<?xml version="1.0" encoding="UTF-8"?>
<!DOCTYPE svg PUBLIC "-//W3C//DTD SVG 1.0//EN" "http://www.w3.org/TR/2001/REC-SVG-20010904/DTD/svg10.dtd">
<!-- Creator: CorelDRAW X7 -->
<svg xmlns="http://www.w3.org/2000/svg" xml:space="preserve" width="2.59891in" height="1.46408in" version="1.0" style="shape-rendering:geometricPrecision; text-rendering:geometricPrecision; image-rendering:optimizeQuality; fill-rule:evenodd; clip-rule:evenodd"
viewBox="0 0 1974 1112"
 xmlns:xlink="http://www.w3.org/1999/xlink">
 <defs>
  <style type="text/css">
   <![CDATA[
    .fil2 {fill:#FEFEFE}
    .fil1 {fill:#EF7F1A}
    .fil0 {fill:#C22A32}
   ]]>
  </style>
 </defs>
 <g id="Layer_x0020_1">
  <metadata id="CorelCorpID_0Corel-Layer"/>
  <g id="_1775812302064">
   <path class="fil0" d="M505 444c-67,0 -122,-54 -122,-121 0,-67 55,-121 122,-121 67,0 121,54 121,121 0,67 -54,121 -121,121z"/>
   <path class="fil1" d="M303 326l45 0c-1,5 -1,9 -1,14 0,79 72,144 160,144 88,0 160,-65 160,-144 0,-5 -1,-9 -1,-14l58 0c39,0 71,32 71,70l0 603c0,39 -32,71 -71,71l-421 0c-38,0 -70,-32 -70,-71l0 -603c0,-38 32,-70 70,-70z"/>
   <path class="fil0" d="M661 100l-120 -46c19,26 29,44 33,61 -302,-10 -556,152 -573,373 -18,232 229,442 550,469 114,10 223,-5 316,-38 -67,12 -139,16 -214,10 -321,-26 -568,-227 -550,-448 15,-187 217,-330 474,-353 2,16 -1,32 -6,54 68,-62 77,-70 90,-82z"/>
   <path class="fil1" d="M643 73c-20,0 -37,-16 -37,-36 0,-21 17,-37 37,-37 20,0 37,16 37,37 0,20 -17,36 -37,36z"/>
   <path class="fil2" d="M690 623l-18 0c-5,-14 -13,-28 -24,-42 -12,-15 -23,-24 -34,-25 -4,-1 -11,-1 -19,-2 -8,0 -15,0 -22,0l-52 0 0 132 33 0c10,0 18,-1 25,-3 7,-2 13,-6 19,-11 4,-4 7,-11 11,-20 4,-9 6,-17 7,-24l18 0 0 142 -18 0c-1,-7 -3,-16 -7,-26 -5,-10 -8,-17 -11,-20 -5,-5 -11,-9 -18,-12 -7,-2 -16,-3 -26,-3l-33 0 0 112c0,5 1,10 3,14 2,4 6,8 12,10 4,2 8,3 15,4 6,1 12,2 18,3l0 18 -183 0 0 -18c5,-1 11,-1 19,-2 7,-1 13,-2 16,-3 5,-3 9,-6 12,-10 2,-4 3,-9 3,-15l0 -238c0,-6 -1,-11 -3,-15 -2,-4 -6,-7 -12,-10 -5,-2 -11,-3 -18,-5 -7,-2 -13,-3 -17,-3l0 -19 304 0 0 91z"/>
   <path class="fil2" d="M759 527l-69 0 0 -11c3,-3 7,-6 10,-9 4,-2 8,-4 11,-6 4,-2 7,-4 10,-6 3,-2 5,-3 6,-5 2,-2 3,-3 4,-5 0,-2 1,-5 1,-7 0,-5 -2,-9 -4,-12 -3,-2 -6,-3 -10,-3 -2,0 -3,0 -4,0 -1,0 -2,0 -4,1 1,2 2,4 2,6 1,2 1,4 1,7 0,3 -1,5 -3,7 -2,2 -5,2 -8,2 -4,0 -6,-1 -8,-3 -2,-2 -3,-4 -3,-7 0,-5 3,-10 9,-14 6,-3 14,-5 22,-5 10,0 18,1 24,5 7,3 10,9 10,16 0,4 -1,8 -3,10 -1,2 -4,5 -7,6 -3,2 -6,3 -9,4 -4,2 -8,3 -12,3 -4,2 -7,3 -10,4 -4,1 -6,2 -9,4l0 1 53 0 0 17z"/>
   <path class="fil1" d="M739 254c-33,0 -60,-27 -60,-60 0,-33 27,-60 60,-60 33,0 60,27 60,60 0,33 -27,60 -60,60z"/>
  </g>
  <path class="fil0" d="M969 1072c-11,-1 -22,-1 -32,-1 -11,0 -21,0 -32,1 4,-12 8,-22 11,-31 4,-12 8,-26 13,-43 5,-17 10,-32 13,-46 4,-13 7,-27 10,-39 3,-13 7,-27 10,-43 20,1 39,2 59,2 21,0 42,-1 63,-2 0,1 -1,3 -1,3 0,1 -1,2 -1,4 -2,5 -4,13 -6,23 -14,-1 -30,-2 -48,-2l-7 0 -7 0c-4,15 -9,33 -15,56l7 0 7 0c15,0 32,-1 49,-2 -2,5 -4,10 -5,14 -1,5 -2,10 -3,16 -16,-1 -31,-1 -46,-2l-8 0 -8 0c-9,31 -17,61 -23,92zm368 -1c-10,0 -20,0 -28,0 -8,0 -14,0 -19,1 6,-16 13,-39 21,-69 9,-29 17,-58 24,-85 7,-26 11,-42 12,-48 8,1 17,2 26,2 11,0 22,-1 34,-2 27,0 44,1 52,4 8,3 15,7 20,14 4,6 7,14 7,23 0,10 -3,20 -10,31 -2,4 -7,9 -14,14 -7,5 -14,9 -20,13 -6,3 -10,5 -13,7l2 7c1,7 7,22 17,45 11,24 17,38 20,44 -12,-1 -24,-1 -36,-1 -12,0 -25,0 -37,1 -1,-6 -3,-15 -6,-26 -3,-12 -6,-24 -9,-36 -4,-11 -6,-18 -7,-20l-5 21c-6,19 -11,40 -15,61 -2,-1 -5,-1 -8,-1 -2,0 -5,0 -8,0zm43 -107l5 0c10,0 18,-3 25,-9 7,-6 11,-15 14,-28 2,-5 3,-10 3,-14 0,-6 -2,-11 -5,-14 -3,-2 -7,-4 -13,-4 -1,0 -3,1 -7,1 0,0 -1,0 -1,0 0,0 -1,0 -1,1l-20 67zm119 38l11 -36 6 -20 4 -15c4,-17 10,-38 14,-61 4,0 9,1 16,1 21,0 37,0 47,-1 -4,11 -8,21 -11,30 -3,9 -6,19 -9,31l-5 15 -11 42c-2,5 -3,12 -5,21 -1,3 -1,5 -1,6 0,9 3,16 10,21 6,5 15,8 26,8 5,0 10,-1 14,-1 8,-2 15,-5 22,-10 6,-5 12,-12 18,-21 5,-10 9,-21 13,-34l9 -33 4 -14c6,-22 11,-42 15,-61 6,1 12,1 16,1 5,0 11,0 17,-1 -9,25 -16,45 -20,61l-4 12 -6 22 -7 27c-2,8 -4,13 -5,15 -5,11 -10,20 -18,28 -8,8 -17,16 -29,23 -9,5 -20,10 -31,13 -9,2 -19,3 -28,3 -13,0 -26,-2 -37,-7 -11,-5 -20,-11 -27,-20 -7,-8 -10,-16 -10,-24 0,-6 1,-13 2,-21zm209 69c-7,0 -14,0 -21,1 3,-5 5,-10 7,-13 1,-3 3,-6 5,-10 1,-3 3,-7 6,-12 7,-15 15,-30 22,-47 8,-16 14,-30 19,-41 4,-11 10,-24 16,-39 6,-15 11,-29 15,-40 3,0 7,0 12,1 5,0 11,0 18,0 3,0 7,-1 10,-1 2,9 3,20 5,30 2,11 4,22 6,34 3,11 6,24 9,37l5 18 1 5 18 -24c10,-13 20,-25 28,-36 8,-11 17,-22 25,-34 8,-12 15,-22 20,-30 6,1 13,1 19,1 7,0 13,0 21,-1 -4,15 -7,32 -10,51 -3,19 -6,38 -9,57 -3,19 -5,38 -7,58 0,2 -1,6 -1,10 0,5 -1,10 -1,15 0,5 -1,8 -1,11 -3,-1 -6,-1 -9,-1 -3,0 -6,0 -7,0 -22,0 -39,0 -50,1 3,-12 6,-25 9,-38 3,-13 5,-25 7,-36 1,-3 2,-7 3,-13 1,-5 1,-9 2,-12 0,-2 1,-7 2,-13 -11,13 -21,25 -30,37 -10,11 -19,24 -29,38 -10,14 -19,26 -26,36 -2,0 -6,0 -10,0 -5,0 -9,0 -12,0 -1,-4 -2,-10 -3,-18 -2,-8 -3,-14 -4,-18 -5,-28 -11,-53 -17,-77 -2,5 -4,8 -5,11 -1,3 -2,6 -4,10 -13,31 -25,62 -34,92 -6,0 -13,0 -20,0z"/>
  <path class="fil1" d="M1279 851c-35,-27 -115,8 -178,78 -63,69 -86,147 -51,174 35,26 115,-9 178,-78 63,-69 86,-148 51,-174z"/>
  <path class="fil2" d="M1232 903c-21,-15 -68,5 -105,46 -37,40 -50,86 -29,101 20,16 67,-4 104,-45 37,-41 50,-86 30,-102z"/>
  <path class="fil0" d="M1087 875l146 -2 -34 36 -112 -34z"/>
  <path class="fil0" d="M983 792c0,2 -1,3 -2,4 -1,2 -2,2 -4,2 -1,0 -3,0 -3,-2 -1,-1 -2,-2 -2,-4l0 -93c0,-4 1,-6 2,-7 1,-1 3,-1 7,-1l48 0c2,0 3,0 4,1 1,1 2,2 2,4 0,1 -1,2 -2,3 -1,1 -2,1 -4,1l-46 0 0 19 44 0c2,0 3,0 4,1 1,1 2,2 2,4 0,1 -1,2 -2,3 -1,1 -2,1 -4,1l-44 0 0 64zm55 -34c0,-12 3,-22 10,-30 7,-7 16,-11 26,-11 11,0 20,4 27,11 6,8 10,18 10,30 0,12 -3,22 -10,29 -7,8 -16,12 -27,12 -10,0 -19,-4 -26,-12 -7,-7 -10,-17 -10,-29zm36 -32c-7,0 -14,3 -19,9 -5,6 -7,13 -7,23 0,9 2,17 7,23 5,6 12,9 19,9 8,0 14,-3 19,-9 5,-6 8,-14 8,-23 0,-10 -2,-17 -8,-23 -5,-6 -11,-9 -19,-9zm108 60c-4,4 -7,7 -11,10 -5,2 -9,3 -15,3 -9,0 -16,-3 -21,-8 -5,-5 -7,-13 -7,-23l0 -44c0,-2 0,-3 1,-5 1,-1 2,-1 4,-1 2,0 3,0 4,1 0,2 1,3 1,5l0 39c0,10 1,17 5,21 3,4 8,6 15,6 8,0 14,-3 18,-8 4,-6 6,-15 6,-26l0 -32c0,-2 0,-3 1,-5 1,-1 2,-1 4,-1 1,0 2,0 3,1 1,2 1,3 1,5l0 67c0,3 0,4 -1,5 -1,1 -2,2 -3,2 -2,0 -3,-1 -4,-2 -1,-1 -1,-3 -1,-5l0 -5zm42 6c0,2 0,3 -1,4 -1,1 -2,2 -4,2 -1,0 -3,-1 -3,-2 -1,-1 -2,-2 -2,-4l0 -68c0,-2 1,-3 2,-5 0,-1 2,-1 3,-1 2,0 3,0 4,1 1,2 1,3 1,5l0 6c4,-5 7,-8 11,-10 4,-2 9,-3 15,-3 9,0 16,3 21,8 4,5 7,13 7,23l0 44c0,2 -1,3 -1,4 -1,1 -3,2 -4,2 -2,0 -3,-1 -4,-2 -1,-1 -1,-2 -1,-4l0 -39c0,-10 -2,-17 -5,-21 -3,-4 -8,-6 -15,-6 -8,0 -14,3 -18,8 -4,6 -6,14 -6,26l0 32zm126 -65c0,0 -1,0 -1,0 -3,-1 -5,-1 -6,-1 -13,0 -23,4 -30,10 -8,6 -11,15 -11,26 0,8 2,15 7,19 4,5 11,7 20,7l21 0 0 -61zm0 70l-13 0c-9,0 -16,0 -20,-1 -5,-1 -9,-3 -12,-5 -5,-3 -8,-7 -11,-12 -2,-5 -3,-11 -3,-17 0,-14 5,-25 14,-33 10,-8 23,-12 40,-12 1,0 2,0 3,0 1,0 2,0 2,0l0 -20c0,-2 1,-4 2,-5 1,-1 2,-1 3,-1 2,0 3,0 4,1 1,1 1,3 1,5l0 94c0,2 0,4 -2,5 -1,1 -4,1 -8,1zm77 -44c-15,1 -26,2 -33,6 -7,3 -10,8 -10,15 0,6 2,10 6,13 3,3 9,4 16,4 8,0 13,-2 16,-5 4,-3 5,-8 5,-15l0 -18zm0 38c-3,3 -6,5 -10,6 -4,1 -8,2 -14,2 -9,0 -16,-2 -21,-7 -5,-4 -8,-9 -8,-17 0,-10 5,-17 14,-22 9,-5 22,-7 39,-8 0,0 0,0 0,-1 0,-1 0,-1 0,-2 0,-5 -1,-9 -2,-11 -2,-2 -5,-4 -9,-4l-29 0c-2,0 -3,0 -4,-1 -1,0 -2,-2 -2,-3 0,-1 1,-3 2,-3 1,-1 2,-2 4,-2l26 0c9,0 15,2 19,6 3,3 5,10 5,19l0 49c0,2 -1,3 -1,4 -1,1 -2,2 -4,2 -1,0 -3,-1 -4,-2 -1,-1 -1,-2 -1,-4l0 -1zm41 -87c0,-2 0,-4 1,-5 1,-1 2,-1 4,-1 2,0 3,0 4,1 0,1 1,3 1,5l0 14 17 0c2,0 4,1 5,1 1,1 1,2 1,4 0,1 0,2 -1,3 -1,1 -3,1 -5,1l-17 0 0 48c0,5 1,9 2,11 2,2 5,2 9,2l10 0c2,0 3,1 4,2 1,0 2,2 2,3 0,1 -1,2 -2,3 -1,1 -2,1 -4,1l-8 0c-9,0 -15,-1 -18,-5 -3,-3 -5,-10 -5,-20l0 -45 -5 0c-2,0 -3,0 -4,-1 -1,-1 -2,-2 -2,-3 0,-2 1,-3 2,-3 1,-1 2,-2 4,-2l5 0 0 -14zm55 2c0,3 0,4 -1,6 -1,1 -2,1 -4,1 -2,0 -3,0 -4,-1 0,-2 -1,-3 -1,-6 0,-2 1,-4 1,-5 1,-1 2,-2 4,-2 2,0 3,1 4,2 1,1 1,3 1,5zm-10 19c0,-2 1,-4 1,-5 1,-1 3,-2 4,-2 2,0 3,1 4,2 1,1 1,3 1,5l0 67c0,2 0,3 -1,4 -1,1 -2,2 -4,2 -1,0 -3,-1 -4,-2 0,-1 -1,-2 -1,-4l0 -67zm27 33c0,-12 3,-22 10,-30 7,-7 16,-11 26,-11 11,0 20,4 27,11 6,8 10,18 10,30 0,12 -4,22 -10,29 -7,8 -16,12 -27,12 -10,0 -19,-4 -26,-12 -7,-7 -10,-17 -10,-29zm36 -32c-8,0 -14,3 -19,9 -5,6 -7,13 -7,23 0,9 2,17 7,23 5,6 11,9 19,9 8,0 14,-3 19,-9 5,-6 8,-14 8,-23 0,-10 -3,-17 -8,-23 -5,-6 -11,-9 -19,-9zm63 66c0,2 0,3 -1,4 -1,1 -2,2 -3,2 -2,0 -3,-1 -4,-2 -1,-1 -1,-2 -1,-4l0 -68c0,-2 0,-3 1,-5 1,-1 2,-1 4,-1 1,0 2,0 3,1 1,2 1,3 1,5l0 6c4,-5 8,-8 12,-10 4,-2 9,-3 14,-3 9,0 16,3 21,8 5,5 7,13 7,23l0 44c0,2 0,3 -1,4 -1,1 -2,2 -4,2 -1,0 -3,-1 -3,-2 -1,-1 -2,-2 -2,-4l0 -39c0,-10 -1,-17 -4,-21 -4,-4 -9,-6 -16,-6 -8,0 -14,3 -18,8 -4,6 -6,14 -6,26l0 32z"/>
 </g>
</svg>
