<?xml version="1.0" encoding="UTF-8"?>
<!DOCTYPE svg PUBLIC "-//W3C//DTD SVG 1.1//EN" "http://www.w3.org/Graphics/SVG/1.1/DTD/svg11.dtd">
<!-- Creator: CorelDRAW X7 -->
<svg xmlns="http://www.w3.org/2000/svg" xml:space="preserve" width="2.32576in" height="0.458303in" version="1.1" style="shape-rendering:geometricPrecision; text-rendering:geometricPrecision; image-rendering:optimizeQuality; fill-rule:evenodd; clip-rule:evenodd"
viewBox="0 0 1923 379"
 xmlns:xlink="http://www.w3.org/1999/xlink">
 <defs>
  <style type="text/css">
   <![CDATA[
    .fil3 {fill:#FEFEFE}
    .fil2 {fill:#D12023}
    .fil0 {fill:#005AA5}
    .fil1 {fill:#FEFEFE;fill-rule:nonzero}
   ]]>
  </style>
 </defs>
 <g id="Layer_x0020_1">
  <metadata id="CorelCorpID_0Corel-Layer"/>
  <path class="fil0" d="M355 83c0,0 42,-61 88,-60 31,1 85,4 106,-23 -7,30 -51,47 -90,50 -51,5 -65,-1 -104,33z"/>
  <g>
   <path class="fil1" d="M111 376l122 0 0 3 -122 0 -1 -1 1 -2zm0 3c-1,0 -2,-1 -2,-2 0,-1 1,-1 2,-1l0 3zm-87 -180l88 178 -2 1 -88 -177 2 -2 0 0zm-2 2c-1,-1 0,-2 0,-2 1,-1 2,0 2,0l-2 2zm-10 -17l3 -2 0 0 0 1 0 0 1 1 0 0 0 1 0 0 1 0 0 1 0 0 1 1 0 0 0 1 0 0 1 1 0 0 0 1 1 1 0 0 0 1 1 0 0 1 0 0 1 1 0 0 0 1 0 1 1 0 0 1 0 1 1 0 0 1 0 0 -2 2 -1 -1 0 0 0 -1 -1 -1 0 0 0 -1 -1 0 0 -1 0 -1 -1 0 0 -1 0 0 0 -1 -1 0 0 -1 0 0 -1 -1 0 0 0 -1 -1 0 0 -1 0 0 0 -1 -1 0 0 -1 0 0 -1 -1 0 0 0 -1 0 0 -1 0 0 -1 0 0zm0 0c0,-1 0,-2 1,-2 0,-1 1,0 2,0l-3 2zm-10 -17l0 3 1 -3 0 1 1 0 0 1 1 1 0 0 0 1 1 0 0 0 1 1 0 0 1 1 0 0 0 1 1 0 0 1 1 0 0 1 0 0 1 1 0 0 0 1 1 0 0 0 0 1 1 0 0 1 0 0 1 1 0 0 0 1 0 0 1 0 -3 2 0 0 0 -1 -1 0 0 0 0 -1 -1 0 0 -1 0 0 -1 -1 0 0 0 0 -1 -1 0 0 0 -1 -1 0 0 -1 0 0 -1 -1 0 0 0 0 -1 -1 0 0 -1 -1 0 0 0 -1 -1 0 0 -1 -1 0 0 -1 -1 0 0 -1 -1 0 2 -3zm-2 3c0,-1 0,-2 1,-3 0,0 1,0 2,0l-3 3zm138 0l-136 0 0 -3 136 0 1 2 -1 1zm0 -3c1,0 1,1 1,2 0,0 0,1 -1,1l0 -3zm-2 13l-3 0 0 0 0 0 0 -1 0 0 0 0 0 -1 0 0 0 -1 0 0 0 0 0 -1 0 0 0 0 1 -1 0 0 0 0 0 -1 0 0 0 0 0 -1 0 0 0 -1 1 0 0 0 0 -1 0 0 0 -1 0 0 0 0 1 -1 0 0 0 -1 0 0 3 1 0 1 0 0 0 0 -1 1 0 0 0 1 0 0 0 0 0 1 0 0 -1 0 0 1 0 0 0 0 0 1 0 0 0 0 0 1 0 0 0 0 -1 1 0 0 0 0 0 1 0 0 0 0 0 0 0 1 0 0 0 0 0 1 0 0 0 0zm1 9l-3 1 0 0 0 0 0 0 0 -1 0 0 0 0 0 -1 0 0 0 0 0 0 0 -1 0 0 0 0 -1 -1 0 0 0 0 0 -1 0 0 0 0 0 -1 0 0 0 0 0 -1 0 0 0 0 0 -1 0 0 0 0 0 -1 0 0 0 0 0 -1 0 0 3 0 0 0 0 1 0 0 0 0 0 1 0 0 0 0 0 0 0 1 0 0 0 0 0 1 0 0 0 0 0 1 0 0 1 0 0 0 0 1 0 0 0 0 0 1 0 0 0 0 0 0 0 1 0 0 0 0 0 0 0 1 0 0 0 0 0 0zm6 12l-3 2 0 0 -1 -1 0 0 0 -1 0 0 0 -1 -1 0 0 -1 0 0 0 -1 -1 0 0 0 0 -1 0 0 0 -1 0 0 -1 0 0 -1 0 0 0 -1 0 0 0 0 -1 -1 0 0 0 0 0 -1 0 0 0 0 0 -1 0 0 0 0 -1 -1 0 0 3 -1 0 0 1 1 0 0 0 0 0 1 0 0 0 0 0 0 0 1 0 0 1 0 0 1 0 0 0 1 0 0 0 0 0 1 1 0 0 0 0 1 0 0 0 1 1 0 0 1 0 0 0 0 0 1 1 0 0 1 0 0 0 1 1 0 0 0zm0 0c0,1 0,2 -1,3 -1,0 -2,0 -2,-1l3 -2zm64 137l-67 -135 3 -2 67 135 0 2 -3 0zm3 -2c0,1 0,2 -1,2 -1,1 -2,0 -2,0l3 -2zm92 -167l-92 169 -3 -2 92 -168 3 1 0 0zm-3 -1c0,-1 1,-2 2,-1 1,0 1,1 1,2l-3 -1zm116 -110l0 3 0 0 -5 1 -6 1 -5 1 -5 2 -5 2 -4 2 -5 2 -5 3 -4 3 -5 3 -4 4 -4 4 -4 3 -4 4 -4 4 -3 5 -4 4 -3 4 -4 5 -3 4 -3 5 -3 4 -2 4 -3 5 -3 4 -2 4 -2 4 -2 4 -2 3 -2 4 -2 3 -1 3 -3 -1 1 -3 2 -4 2 -3 2 -4 2 -4 2 -4 3 -4 2 -4 3 -4 3 -5 3 -4 3 -5 3 -4 3 -5 4 -4 3 -4 4 -5 4 -4 4 -4 4 -4 4 -4 4 -3 5 -3 5 -4 4 -3 5 -2 5 -2 5 -2 5 -2 6 -1 5 -1 6 -1 0 0zm141 -57l-3 2 3 -1 -2 5 -2 4 -2 4 -3 4 -3 3 -3 3 -3 4 -3 3 -4 2 -4 3 -4 2 -4 2 -4 2 -5 2 -5 2 -4 2 -5 1 -5 2 -5 1 -5 1 -6 1 -5 1 -5 1 -6 0 -5 1 -6 1 -5 0 -6 1 -6 0 -5 1 -6 0 -5 0 0 -3 5 0 6 -1 5 0 6 0 5 -1 6 -1 5 0 6 -1 5 -1 5 0 6 -1 5 -1 5 -1 5 -2 5 -1 5 -1 4 -2 5 -2 4 -2 5 -2 4 -2 4 -2 3 -2 4 -3 3 -3 3 -3 3 -3 3 -3 2 -4 2 -4 2 -4 2 -4 3 0zm-3 0c0,-1 1,-1 2,-1 1,0 1,1 1,2l-3 -1zm-49 122l-1 -3 0 0 5 -2 5 -3 4 -2 5 -3 4 -4 4 -3 3 -3 4 -4 3 -4 3 -4 3 -4 2 -4 2 -4 2 -4 2 -5 2 -4 1 -4 1 -5 1 -4 1 -4 0 -5 1 -4 0 -4 0 -4 -1 -4 0 -4 -1 -3 -1 -4 -1 -3 -1 -3 -1 -3 -2 -2 3 -2 1 3 2 3 1 3 1 3 1 4 1 4 1 4 0 4 0 4 0 4 0 5 -1 4 -1 4 -1 5 -1 4 -1 5 -2 4 -2 5 -2 4 -2 5 -3 4 -3 4 -3 4 -3 4 -3 4 -4 4 -4 3 -4 3 -5 3 -5 3 -5 3 -5 2 0 0zm-156 49l-3 -2 0 0 3 -6 4 -5 3 -5 4 -4 4 -3 3 -4 4 -2 4 -2 4 -2 4 -2 4 -1 4 -1 5 0 4 0 5 -1 4 0 5 0 5 0 5 1 5 0 5 0 6 0 5 0 6 -1 6 0 6 -1 7 -1 6 -1 7 -2 7 -2 7 -2 7 -3 1 3 -7 3 -8 2 -7 2 -6 2 -7 1 -6 1 -7 1 -6 1 -5 0 -6 0 -6 0 -5 0 -5 0 -5 0 -5 0 -5 0 -4 0 -5 0 -4 0 -4 1 -4 0 -4 1 -4 2 -4 1 -3 3 -4 2 -3 3 -4 3 -3 4 -3 5 -4 5 -3 6 0 0zm0 0c-1,0 -2,1 -2,0 -1,0 -1,-1 -1,-2l3 2zm-116 205l113 -207 3 2 -114 206 -1 1 -1 -2zm2 1c0,1 -1,1 -2,1 -1,-1 -1,-2 0,-2l2 1zm256 -194l-3 -1 0 0 1 -1 0 -1 0 0 0 -1 0 0 1 -1 0 0 0 -1 0 0 1 -1 0 0 0 -1 0 0 1 -1 0 0 0 -1 1 0 0 0 0 -1 1 0 0 -1 0 0 1 -1 0 0 0 -1 1 0 0 0 0 -1 1 0 0 -1 1 0 0 -1 2 3 0 0 -1 0 0 1 0 0 -1 1 0 0 0 0 -1 1 0 0 0 1 -1 0 0 1 0 0 0 0 -1 1 0 0 0 1 -1 0 0 1 0 0 0 0 -1 1 0 0 0 1 0 0 0 1 -1 0 0 1 0 0 0 1 0 0 -1 1 0 0zm-3 16l-3 0 0 0 0 -1 0 0 0 -1 0 -1 0 0 0 -1 0 0 0 -1 0 0 1 -1 0 0 0 -1 0 0 0 -1 0 0 0 -1 0 0 0 -1 0 -1 0 0 1 -1 0 0 0 -1 0 0 0 -1 0 0 0 -1 1 0 0 -1 0 0 0 -1 0 0 3 1 0 0 0 1 0 0 0 1 -1 0 0 1 0 0 0 1 0 0 0 1 0 0 0 1 -1 0 0 1 0 0 0 1 0 0 0 1 0 0 0 1 0 0 0 1 0 0 0 1 0 0 -1 1 0 0 0 1 0 0 0 1 0 0 0 1 0 0zm-3 146l0 -146 3 0 0 146 0 0 -3 0zm6 16l-3 2 0 0 0 -1 0 0 0 -1 -1 0 0 -1 0 0 0 -1 0 0 0 -1 0 0 -1 -1 0 0 0 -1 0 0 0 -1 0 -1 0 0 0 -1 0 0 0 -1 0 0 -1 -1 0 0 0 -1 0 -1 0 0 0 -1 0 0 0 -1 0 0 0 -1 0 -1 3 0 0 1 0 0 0 1 0 1 0 0 0 1 1 0 0 1 0 0 0 1 0 0 0 1 0 0 0 1 0 0 0 1 0 0 0 1 0 0 0 1 1 0 0 1 0 0 0 1 0 0 0 1 0 0 0 1 1 0 0 1 0 0 0 0 0 0zm0 0c0,1 0,2 -1,3 -1,0 -2,-1 -2,-1l3 -2zm8 17l0 -3 -1 2 -1 0 0 0 0 -1 -1 0 0 -1 -1 0 0 -1 0 0 -1 -1 0 0 0 -1 -1 0 0 0 0 -1 -1 0 0 -1 0 0 -1 -1 0 0 0 -1 0 0 -1 -1 0 0 0 -1 0 0 -1 0 0 -1 0 0 0 -1 0 0 -1 -1 0 0 3 -2 0 1 0 0 1 1 0 0 0 1 0 0 0 1 1 0 0 0 0 1 0 0 1 1 0 0 0 1 0 0 1 0 0 1 0 0 1 1 0 0 0 1 1 0 0 0 0 1 1 0 0 1 0 0 1 0 0 1 0 0 1 1 0 0 -1 3zm1 -3c1,1 1,2 0,2 0,1 -1,1 -2,0l2 -2zm-136 0l135 0 0 3 -135 0 -1 -3 1 0zm0 3c-1,0 -2,-1 -2,-2 0,-1 1,-1 2,-1l0 3zm8 -17l3 1 0 0 -1 1 0 0 0 1 0 0 -1 1 0 0 0 1 0 0 0 1 -1 1 0 0 0 0 -1 1 0 0 0 1 0 0 -1 1 0 0 0 1 -1 0 0 1 0 0 -1 1 0 0 0 1 -1 0 0 0 0 1 -1 0 0 1 -1 0 0 0 -2 -2 0 0 0 -1 1 0 0 0 1 -1 0 0 0 -1 1 0 0 0 0 -1 0 0 1 -1 0 0 0 0 1 -1 0 0 0 -1 0 0 1 -1 0 0 0 -1 0 0 1 0 0 -1 0 0 0 -1 1 0 0 -1 0 0 0 -1 0 0 1 -1 0 0zm3 -16l3 0 0 0 0 1 0 0 0 1 0 0 0 1 0 0 0 1 0 1 -1 0 0 1 0 0 0 1 0 0 0 1 0 0 0 1 0 0 0 1 0 0 -1 1 0 0 0 1 0 1 0 0 0 1 0 0 -1 1 0 0 0 1 0 0 0 1 0 0 -3 -1 0 0 0 -1 0 0 0 -1 0 0 1 -1 0 0 0 -1 0 0 0 -1 0 0 0 -1 0 0 1 -1 0 0 0 -1 0 0 0 -1 0 0 0 -1 0 0 0 -1 0 0 0 -1 0 0 0 -1 0 0 0 -1 1 0 0 -1 0 0 0 -1 0 0zm3 -146l0 146 -3 0 0 -146 0 0 3 0zm-6 -17l3 -1 0 0 0 1 0 0 0 1 0 0 1 1 0 0 0 1 0 0 0 1 0 0 0 1 1 0 0 1 0 0 0 1 0 0 0 1 0 1 0 0 0 1 0 0 0 1 0 0 1 1 0 0 0 1 0 1 0 0 0 1 0 0 0 1 0 1 -3 0 0 -1 0 -1 0 0 -1 -1 0 0 0 -1 0 0 0 -1 0 0 0 -1 0 0 0 -1 0 -1 0 0 0 -1 0 0 0 -1 0 0 0 -1 -1 0 0 -1 0 0 0 0 0 -1 0 0 0 -1 0 0 -1 -1 0 0 0 -1 0 0 0 -1 0 0zm-8 -16l0 3 1 -3 0 1 1 0 0 1 1 0 0 1 0 0 1 1 0 0 1 0 0 1 0 0 1 1 0 0 0 1 1 0 0 1 0 0 0 1 1 0 0 1 0 0 1 0 0 1 0 0 0 1 1 0 0 1 0 0 0 1 0 0 1 1 0 0 -3 1 0 0 -1 0 0 -1 0 0 0 -1 0 0 -1 -1 0 0 0 0 0 -1 0 0 -1 -1 0 0 0 -1 -1 0 0 -1 0 0 0 0 -1 -1 0 0 0 -1 -1 0 0 0 0 -1 -1 0 0 -1 0 0 -1 -1 0 0 0 0 -1 -1 0 0 1 -3zm-1 3c-1,-1 -1,-2 0,-3 0,0 1,0 2,0l-2 3zm136 0l-135 0 0 -3 135 0 1 3 -1 0zm0 -3c1,0 2,1 2,2 0,0 -1,1 -2,1l0 -3zm290 39l1 -3 0 0 1 0 0 0 1 0 1 1 1 0 0 0 1 0 1 0 0 0 1 1 1 0 0 0 1 0 1 0 1 0 0 1 1 0 1 0 0 0 1 1 1 0 0 0 1 0 1 0 0 1 1 0 0 0 1 1 1 0 0 0 1 0 1 1 -2 3 0 -1 -1 0 -1 0 0 0 -1 -1 0 0 -1 0 -1 -1 0 0 -1 0 0 0 -1 0 -1 -1 0 0 -1 0 -1 0 0 0 -1 -1 -1 0 0 0 -1 0 -1 0 0 0 -1 -1 -1 0 0 0 -1 0 -1 0 0 0 -1 0 -1 -1 -1 0 0 0zm0 0c0,0 -1,-1 -1,-2 0,0 1,-1 2,-1l-1 3zm-25 -1l0 -4 0 0 1 0 0 0 1 0 1 0 1 0 1 0 1 0 1 0 1 1 0 0 1 0 1 0 1 0 1 0 1 0 0 0 1 0 1 0 1 0 1 0 1 0 0 0 1 0 1 0 1 0 0 1 1 0 1 0 1 0 0 0 1 0 1 0 -1 3 0 0 -1 0 -1 0 0 0 -1 0 -1 0 -1 0 0 0 -1 0 -1 -1 -1 0 -1 0 0 0 -1 0 -1 0 -1 0 -1 0 0 0 -1 0 -1 0 -1 0 -1 0 -1 0 0 0 -1 0 -1 0 -1 0 -1 0 -1 0 -1 0 0 0 -1 0 0 0zm-101 -4l101 0 0 4 -101 0 0 0 0 -4zm-14 6l-1 -3 0 0 0 0 0 -1 1 0 0 0 1 0 0 0 0 0 1 0 0 0 1 -1 0 0 1 0 0 0 0 0 1 0 0 0 1 0 0 0 1 0 0 0 1 0 0 0 1 0 0 0 1 -1 1 0 0 0 1 0 0 0 1 0 0 0 1 0 0 4 -1 0 0 0 -1 0 0 0 -1 0 0 0 -1 0 0 0 -1 0 0 0 -1 0 0 0 -1 0 0 0 -1 0 0 0 -1 0 0 0 0 0 -1 0 0 1 -1 0 0 0 0 0 -1 0 0 0 0 0 -1 0 0 0 0 0 -1 1 0 0 0 0zm-4 7l-3 0 0 0 0 0 0 -1 0 0 0 -1 0 0 0 -1 0 0 0 0 0 -1 0 0 0 -1 1 0 0 0 0 -1 0 0 0 0 0 -1 1 0 0 0 0 -1 0 0 1 0 0 0 0 -1 0 0 1 0 0 0 0 -1 1 0 0 0 0 0 1 0 1 3 0 0 0 0 -1 0 0 0 0 0 0 0 -1 1 0 0 0 0 0 0 0 0 0 0 -1 1 0 0 0 0 0 0 0 1 0 0 0 0 0 0 -1 0 0 1 0 0 0 0 0 1 0 0 0 0 0 1 0 0 0 0 0 1 0 0 0 0zm-3 7l0 -7 3 0 0 7 0 0 -3 0zm7 9l-1 3 0 0 -1 0 0 0 0 0 -1 -1 0 0 0 0 -1 0 0 -1 0 0 -1 0 0 -1 0 0 0 0 0 -1 -1 0 0 0 0 -1 0 0 0 -1 0 0 -1 0 0 -1 0 0 0 -1 0 0 0 -1 0 0 0 -1 0 0 0 -1 0 0 0 -1 3 0 0 1 0 0 0 1 0 0 0 0 0 1 0 0 0 1 0 0 0 0 0 1 1 0 0 0 0 1 0 0 0 0 0 1 0 0 0 0 1 0 0 0 0 1 0 0 0 0 0 0 1 0 0 1 0 0 0 0 0 0 1 0 0 0 0 0zm18 2l0 3 0 0 -1 0 -1 0 -1 0 -1 0 -1 0 0 0 -1 0 -1 0 0 0 -1 0 -1 0 0 0 -1 0 -1 0 0 0 -1 0 -1 0 0 0 -1 0 0 -1 -1 0 0 0 -1 0 0 0 -1 0 0 0 -1 0 0 0 0 0 -1 -1 0 0 0 0 1 -3 0 0 0 0 1 0 0 1 0 0 1 0 0 0 0 0 1 0 0 0 1 0 0 0 1 0 0 0 1 0 0 1 1 0 1 0 0 0 1 0 0 0 1 0 1 0 0 0 1 0 1 0 1 0 0 0 1 0 1 0 1 0 1 0 0 0zm71 3l-71 0 0 -3 71 0 0 0 0 3zm59 6l-1 3 0 0 -1 -1 -2 0 -1 -1 -1 0 -2 -1 -1 0 -1 -1 -2 0 -1 0 -2 -1 -1 0 -2 0 -2 -1 -1 0 -2 0 -2 -1 -2 0 -2 0 -2 0 -1 0 -2 -1 -2 0 -2 0 -3 0 -2 0 -2 0 -2 0 -2 -1 -3 0 -2 0 -2 0 -3 0 0 -3 3 0 2 0 2 0 3 0 2 0 2 0 2 0 3 1 2 0 2 0 2 0 2 0 2 0 2 1 2 0 2 0 1 0 2 1 2 0 2 0 1 1 2 0 1 1 2 0 2 0 1 1 1 0 2 1 1 0 2 1 1 0 1 1 0 0zm0 0c1,0 1,1 1,2 0,1 -1,1 -2,1l1 -3zm20 36l-3 0 0 0 0 -1 0 -2 0 -1 0 -2 0 -1 -1 -2 0 -1 0 -2 0 -1 -1 -1 0 -1 0 -1 -1 -2 0 -1 -1 -1 0 -1 -1 -1 -1 -1 0 -1 -1 -1 -1 -1 -1 0 0 -1 -1 -1 -1 -1 -1 -1 -1 0 -1 -1 -1 -1 -1 0 -1 -1 -1 0 1 -3 1 0 2 1 1 1 1 0 1 1 1 1 1 1 1 0 1 1 1 1 1 1 0 1 1 1 1 1 1 1 0 2 1 1 0 1 1 1 0 1 1 2 0 1 1 1 0 2 0 1 1 2 0 1 0 2 0 1 0 2 0 2 0 1 0 0zm-3 57l0 -57 3 0 0 57 0 0 -3 0zm-18 35l-2 -3 0 0 2 0 1 -1 1 0 1 -1 1 -1 1 0 1 -1 1 -1 1 -1 1 -1 1 0 0 -1 1 -1 1 -1 1 -1 0 -1 1 -1 0 -1 1 -1 0 -1 1 -1 0 -2 1 -1 0 -1 0 -1 0 -2 1 -1 0 -1 0 -2 0 -1 0 -1 0 -2 3 0 0 2 0 1 0 2 0 1 0 2 0 1 -1 1 0 2 0 1 -1 1 0 2 -1 1 0 1 -1 1 0 2 -1 1 -1 1 -1 1 0 1 -1 1 -1 1 -1 1 -1 1 -1 1 -1 0 -1 1 -1 1 -1 1 -2 0 -1 1 -1 1 -1 0 0 0zm-58 10l0 -3 0 0 2 0 3 0 2 0 2 0 2 -1 2 0 2 0 2 0 2 0 2 0 2 0 2 -1 2 0 2 0 1 0 2 -1 2 0 2 0 1 -1 2 0 2 0 1 -1 2 0 1 -1 2 0 1 0 2 -1 1 0 1 -1 2 0 1 -1 1 -1 2 3 -2 1 -1 1 -2 0 -1 1 -1 0 -2 1 -1 0 -2 1 -2 0 -1 0 -2 1 -1 0 -2 1 -2 0 -2 0 -1 1 -2 0 -2 0 -2 0 -2 1 -2 0 -2 0 -2 0 -2 0 -2 0 -2 1 -2 0 -2 0 -2 0 -2 0 -2 0 -3 0 0 0zm-193 -3l193 0 0 3 -193 0 -2 -1 2 -2zm0 3c-1,0 -2,-1 -2,-2 0,-1 1,-1 2,-1l0 3zm-9 -44l11 42 -4 1 -10 -42 2 -2 1 1zm-3 1c0,-1 1,-2 2,-2 0,0 1,0 1,1l-3 1zm27 4l-1 3 0 0 0 0 -1 0 -1 0 -1 0 -1 0 -1 -1 0 0 -1 0 -1 0 -1 0 -1 0 0 0 -1 -1 -1 0 -1 0 -1 0 0 0 -1 -1 -1 0 -1 0 0 0 -1 0 -1 -1 -1 0 -1 0 0 0 -1 -1 -1 0 -1 0 0 -1 -1 0 -1 0 1 -3 1 0 1 0 1 1 0 0 1 0 1 0 0 1 1 0 1 0 1 0 0 1 1 0 1 0 1 0 0 0 1 1 1 0 1 0 0 0 1 0 1 1 1 0 1 0 0 0 1 0 1 0 1 0 1 0 0 1 1 0 1 0 1 0 0 0zm0 0c1,0 1,1 1,2 0,1 -1,1 -2,1l1 -3zm29 1l0 4 0 0 -1 0 -1 -1 -1 0 -1 0 -1 0 -1 0 -1 0 -1 0 -1 0 -1 0 -1 0 -1 0 -1 0 -1 0 0 0 -1 0 -1 0 -1 0 -1 0 -1 0 -1 0 -1 0 -1 0 -1 0 -1 0 0 0 -1 -1 -1 0 -1 0 -1 0 -1 0 -1 0 1 -3 1 0 0 0 1 0 1 0 1 0 1 0 1 0 1 0 0 1 1 0 1 0 1 0 1 0 1 0 1 0 1 0 1 0 1 0 1 0 0 0 1 0 1 0 1 0 1 0 1 0 1 0 1 0 1 0 1 0 1 0 1 0 1 0 0 0zm9 4l-9 0 0 -4 9 0 0 0 0 4zm0 -4c1,0 1,1 1,2 0,1 0,2 -1,2l0 -4zm85 4l-85 0 0 -4 85 0 0 0 0 4zm0 -4c1,0 1,1 1,2 0,1 0,2 -1,2l0 -4zm8 4l-8 0 0 -4 8 0 0 0 0 4zm12 -6l1 3 0 0 0 0 0 0 0 0 -1 1 0 0 0 0 -1 0 0 0 0 0 -1 0 0 0 0 1 -1 0 0 0 -1 0 0 0 0 0 -1 0 0 0 -1 0 0 0 -1 0 0 0 -1 0 0 0 -1 0 0 0 -1 0 0 0 -1 0 0 1 -1 0 0 -4 1 0 0 0 1 0 0 0 1 0 0 0 1 0 0 0 1 0 0 0 0 0 1 0 0 0 1 0 0 0 0 0 1 0 0 0 0 -1 1 0 0 0 0 0 1 0 0 0 0 0 0 0 1 0 0 0 0 0 0 -1 0 0 1 0 0 0zm2 -7l3 0 0 0 0 0 0 1 0 0 0 1 0 0 0 0 0 1 0 0 0 0 0 1 0 0 0 0 0 1 0 0 0 0 -1 1 0 0 0 0 0 1 0 0 0 0 0 1 -1 0 0 0 0 0 0 1 0 0 -1 0 0 0 0 0 0 1 -1 0 -1 -3 0 0 0 0 0 0 0 0 0 0 0 -1 1 0 0 0 0 0 0 0 0 0 0 -1 0 0 0 0 0 0 0 0 1 -1 0 0 0 0 0 0 0 -1 0 0 0 0 0 0 0 -1 0 0 0 0 0 -1 0 0 0 0 0 -1 0 0 0 0zm3 -7l0 7 -3 0 0 -7 0 0 3 0zm-5 -8l3 -3 0 0 0 1 0 0 0 0 0 0 0 1 1 0 0 0 0 1 0 0 0 0 0 0 0 1 0 0 1 0 0 1 0 0 0 0 0 1 0 0 0 0 0 1 0 0 0 1 0 0 0 0 0 1 0 0 0 1 0 0 0 0 0 1 0 0 -3 0 0 0 0 0 0 -1 0 0 0 -1 0 0 0 0 0 -1 0 0 0 0 0 -1 0 0 0 0 0 -1 0 0 0 0 0 0 0 -1 -1 0 0 0 0 0 0 -1 0 0 0 0 0 0 0 0 0 -1 0 0 -1 0 0 0 0 0 0 0 0 0zm-9 -3l0 -3 0 0 0 0 1 0 0 0 1 0 0 0 1 0 0 0 1 0 0 0 1 0 0 0 0 0 1 0 0 1 1 0 0 0 0 0 1 0 0 0 0 0 1 0 0 0 0 1 1 0 0 0 0 0 0 0 1 1 0 0 0 0 0 0 1 0 -3 3 0 -1 0 0 0 0 0 0 0 0 -1 0 0 0 0 0 0 0 0 -1 -1 0 0 0 0 0 0 0 -1 0 0 0 0 0 -1 0 0 0 0 0 -1 -1 0 0 0 0 -1 0 0 0 -1 0 0 0 0 0 -1 0 0 0 -1 0 0 0 0 0zm-83 -3l83 0 0 3 -83 0 0 0 0 -3zm-59 -5l1 -3 0 0 2 0 1 1 1 0 1 1 2 0 1 0 1 1 2 0 1 1 2 0 2 0 1 1 2 0 2 0 1 1 2 0 2 0 2 0 2 1 2 0 2 0 2 0 2 0 2 0 2 1 2 0 3 0 2 0 2 0 3 0 2 0 2 0 0 3 -2 0 -2 0 -3 0 -2 0 -3 0 -2 0 -2 0 -2 0 -2 -1 -3 0 -2 0 -2 0 -2 0 -2 0 -1 -1 -2 0 -2 0 -2 0 -2 -1 -1 0 -2 0 -2 -1 -1 0 -2 -1 -1 0 -2 0 -1 -1 -2 0 -1 -1 -1 0 -2 -1 -1 0 0 0zm0 0c-1,-1 -1,-2 -1,-2 1,-1 2,-2 2,-1l-1 3zm-20 -37l4 0 0 0 0 2 0 2 0 1 0 2 0 1 0 1 0 2 1 1 0 1 0 2 1 1 0 1 1 1 0 1 1 2 0 1 1 1 0 1 1 1 1 0 0 1 1 1 1 1 1 1 1 0 0 1 1 1 1 1 1 0 1 1 1 0 1 1 -1 3 -1 -1 -1 0 -1 -1 -1 -1 -1 0 -2 -1 -1 -1 0 -1 -1 -1 -1 -1 -1 -1 -1 -1 -1 -1 0 -1 -1 -1 -1 -1 0 -1 -1 -1 0 -1 -1 -2 0 -1 -1 -1 0 -2 0 -1 -1 -2 0 -1 0 -2 0 -1 0 -2 0 -1 -1 -2 0 -2 0 0zm4 -57l0 57 -4 0 0 -57 0 0 4 0zm18 -35l2 3 0 0 -2 0 -1 1 -1 0 -1 1 -1 1 -1 1 -1 0 -1 1 -1 1 -1 1 -1 1 -1 0 0 1 -1 1 -1 1 0 1 -1 1 -1 1 0 1 -1 2 0 1 0 1 -1 1 0 1 0 1 -1 2 0 1 0 1 0 2 0 1 0 2 0 1 -4 0 0 -1 1 -2 0 -2 0 -1 0 -1 0 -2 0 -1 1 -2 0 -1 1 -1 0 -2 1 -1 0 -1 1 -1 0 -1 1 -1 1 -2 0 -1 1 -1 1 -1 1 -1 1 -1 1 -1 1 0 1 -1 1 -1 1 -1 1 -1 1 0 2 -1 1 -1 1 0 0 0zm57 -10l0 3 0 0 -2 0 -2 0 -2 0 -2 0 -2 0 -2 1 -2 0 -2 0 -2 0 -2 0 -2 0 -2 1 -2 0 -2 0 -1 0 -2 1 -2 0 -2 0 -1 1 -2 0 -1 0 -2 1 -2 0 -1 1 -2 0 -1 0 -2 1 -1 0 -1 1 -2 0 -1 1 -1 1 -2 -3 2 -1 1 -1 2 0 1 -1 1 0 2 -1 1 0 2 -1 2 0 1 0 2 -1 1 0 2 -1 2 0 2 0 1 -1 2 0 2 0 2 0 2 -1 2 0 2 0 2 0 2 0 2 -1 2 0 2 0 2 0 2 0 2 0 2 0 2 0 0 0zm189 3l-189 0 0 -3 189 0 2 1 -2 2zm0 -3c1,0 2,1 2,2 0,0 -1,1 -2,1l0 -3zm9 45l-10 -43 3 -1 10 43 -2 2 -1 -1zm3 -1c1,1 0,2 -1,2 -1,0 -1,-1 -2,-1l3 -1zm172 -27l-3 -1 0 0 1 -1 0 0 0 -1 0 -1 0 0 1 -1 0 0 0 -1 0 0 1 -1 0 0 0 -1 0 0 1 -1 0 0 0 -1 1 0 0 0 0 -1 1 0 0 -1 0 0 1 -1 0 0 0 -1 1 0 0 0 0 -1 1 0 0 -1 0 0 1 -1 2 3 0 0 -1 0 0 1 0 0 -1 1 0 0 0 0 -1 1 0 0 0 1 -1 0 0 1 0 0 0 0 -1 1 0 0 0 1 -1 0 0 1 0 0 0 0 -1 1 0 0 0 1 0 0 -1 1 0 0 0 1 0 0 0 1 -1 0 0 1 0 0zm-3 16l-3 0 0 0 0 -1 0 0 0 -1 0 -1 0 0 0 -1 0 0 0 -1 0 0 0 -1 1 0 0 -1 0 0 0 -1 0 0 0 -1 0 0 0 -1 0 -1 0 0 0 -1 1 0 0 -1 0 0 0 -1 0 0 0 -1 1 0 0 -1 0 0 0 -1 0 0 3 1 0 0 0 1 0 0 0 1 -1 0 0 1 0 0 0 1 0 0 0 1 0 0 -1 1 0 0 0 1 0 0 0 1 0 0 0 1 0 0 0 1 0 0 0 1 0 0 0 1 -1 0 0 1 0 0 0 1 0 0 0 1 0 0 0 1 0 0zm-3 118l0 -118 3 0 0 118 0 0 -3 0zm8 18l-2 3 0 0 -1 -1 0 0 0 -1 -1 0 0 0 0 -1 -1 0 0 -1 0 0 0 -1 -1 0 0 -1 0 -1 0 0 0 -1 -1 0 0 -1 0 -1 0 0 0 -1 0 -1 0 -1 0 0 -1 -1 0 -1 0 -1 0 0 0 -1 0 -1 0 -1 0 -1 0 -1 3 0 0 1 0 1 0 1 0 1 0 0 0 1 1 1 0 1 0 0 0 1 0 1 0 0 0 1 0 1 0 0 1 1 0 0 0 1 0 0 0 1 0 0 1 1 0 0 0 1 0 0 0 0 1 1 0 0 0 1 0 0 1 0 0 0 0 0zm23 5l0 4 0 0 -2 -1 -1 0 -1 0 -1 0 -1 0 -1 0 -1 0 -1 0 -1 0 -1 0 -1 0 -1 0 -1 0 -1 -1 0 0 -1 0 -1 0 -1 0 0 0 -1 -1 -1 0 0 0 -1 0 -1 -1 0 0 -1 0 0 -1 -1 0 0 0 -1 -1 0 0 0 0 2 -3 0 1 0 0 1 0 0 0 1 1 0 0 0 0 1 0 0 1 1 0 0 0 1 0 1 0 0 1 1 0 1 0 0 0 1 0 1 0 1 1 1 0 0 0 1 0 1 0 1 0 1 0 1 0 1 0 1 0 1 0 1 0 2 0 0 0zm90 4l-90 0 0 -4 90 0 0 0 0 4zm22 -9l2 3 0 0 0 0 -1 0 0 1 0 0 -1 0 0 1 -1 0 -1 0 0 1 -1 0 0 0 -1 0 -1 1 0 0 -1 0 -1 0 -1 0 0 0 -1 1 -1 0 -1 0 -1 0 -1 0 -1 0 -1 0 -1 0 -1 0 -1 0 -1 0 -1 0 -1 0 -1 1 0 -4 1 0 1 0 1 0 1 0 1 0 1 0 1 0 1 0 1 0 1 0 1 0 0 0 1 -1 1 0 1 0 0 0 1 0 1 0 0 -1 1 0 1 0 0 0 1 0 0 -1 1 0 0 0 0 0 1 -1 0 0 0 0 1 0 0 -1 0 0zm5 -18l3 0 0 0 0 1 0 1 0 1 0 1 0 1 0 0 -1 1 0 1 0 1 0 0 0 1 0 1 0 1 0 0 0 1 -1 1 0 0 0 1 0 0 0 1 -1 1 0 0 0 1 0 0 -1 1 0 0 0 1 0 0 -1 0 0 1 0 0 -1 1 -2 -3 0 0 0 0 1 0 0 -1 0 0 0 -1 1 0 0 0 0 -1 0 0 0 -1 1 0 0 -1 0 0 0 -1 0 0 0 -1 1 0 0 -1 0 -1 0 0 0 -1 0 -1 0 0 0 -1 0 -1 0 -1 0 0 0 -1 1 -1 0 -1 0 -1 0 0zm3 -118l0 118 -3 0 0 -118 0 0 3 0zm-6 -17l3 -1 0 0 0 1 0 0 0 1 0 0 1 1 0 0 0 1 0 0 0 1 0 0 0 1 1 0 0 1 0 0 0 1 0 1 0 0 0 1 0 0 0 1 0 0 0 1 0 0 1 1 0 1 0 0 0 1 0 0 0 1 0 0 0 1 0 1 -3 0 0 -1 0 -1 0 0 -1 -1 0 0 0 -1 0 0 0 -1 0 0 0 -1 0 0 0 -1 0 0 0 -1 0 0 0 -1 0 0 0 -1 0 0 -1 -1 0 0 0 -1 0 0 0 -1 0 0 0 -1 0 0 -1 -1 0 0 0 -1 0 0 0 -1 0 0zm-8 -16l0 3 1 -3 0 1 1 0 0 1 1 0 0 1 0 0 1 0 0 1 1 0 0 1 0 0 1 1 0 0 0 1 1 0 0 1 0 0 0 0 1 1 0 0 0 1 1 0 0 1 0 0 0 1 1 0 0 1 0 0 0 1 0 0 1 1 0 0 -3 1 0 0 -1 -1 0 0 0 0 0 -1 0 0 -1 -1 0 0 0 -1 0 0 0 -1 -1 0 0 0 0 -1 -1 0 0 -1 0 0 0 -1 -1 0 0 0 0 -1 -1 0 0 -1 0 0 -1 0 0 -1 0 0 -1 -1 0 0 0 0 -1 -1 0 0 1 -3zm-1 3c-1,-1 -1,-2 0,-3 0,0 1,0 2,0l-2 3zm73 0l-72 0 0 -3 72 0 2 3 -2 0zm0 -3c1,0 2,1 2,2 0,0 -1,1 -2,1l0 -3zm-7 17l-3 -1 0 0 0 -1 0 -1 0 0 1 -1 0 0 0 -1 0 0 1 -1 0 0 0 -1 0 0 1 -1 0 0 0 -1 0 0 1 -1 0 0 0 0 1 -1 0 0 0 -1 1 0 0 -1 0 0 1 -1 0 0 0 0 1 -1 0 0 1 -1 0 0 0 -1 3 3 -1 0 0 0 0 1 -1 0 0 1 0 0 -1 0 0 1 0 0 -1 1 0 0 0 1 -1 0 0 0 0 1 -1 0 0 1 0 0 0 1 -1 0 0 0 0 1 0 0 -1 1 0 0 0 1 0 0 0 1 -1 0 0 1 0 0 0 1 0 0zm-3 16l-3 0 0 0 0 -1 0 0 0 -1 0 -1 0 0 0 -1 0 0 0 -1 0 0 0 -1 0 0 0 -1 0 0 0 -1 0 0 0 -1 1 0 0 -1 0 -1 0 0 0 -1 0 0 0 -1 0 0 1 -1 0 0 0 -1 0 0 0 -1 0 0 1 -1 0 0 3 1 0 0 -1 1 0 0 0 1 0 0 0 1 0 0 0 1 -1 0 0 1 0 0 0 1 0 0 0 1 0 0 0 1 -1 0 0 1 0 0 0 1 0 0 0 1 0 0 0 1 0 0 0 1 0 0 0 1 0 0 0 1 0 0 0 1 0 0zm-3 118l0 -118 3 0 0 118 0 0 -3 0zm-1 24l-3 -1 0 0 1 0 0 -1 0 -1 0 0 0 -1 1 0 0 -1 0 -1 0 0 0 -1 0 -1 0 0 1 -1 0 -1 0 -1 0 0 0 -1 0 -1 0 -1 0 0 0 -1 0 -1 0 -1 0 -1 0 0 1 -1 0 -1 0 -1 0 -1 0 -1 0 -1 0 0 3 0 0 0 0 1 0 1 0 1 0 1 0 1 0 1 0 1 0 1 0 0 -1 1 0 1 0 1 0 1 0 0 0 1 0 1 0 1 0 0 0 1 -1 1 0 1 0 0 0 1 0 1 0 0 -1 1 0 1 0 0 0 1 0 1 -1 0 0 0zm0 0c0,1 -1,2 -2,1 0,0 -1,-1 -1,-2l3 1zm-14 19l-2 -2 0 0 1 -1 0 0 1 -1 0 0 1 -1 1 0 0 -1 1 0 0 -1 1 -1 0 0 1 -1 0 0 1 -1 0 0 1 -1 0 0 0 -1 1 -1 0 0 0 -1 1 0 0 -1 0 0 1 -1 0 0 0 -1 1 -1 0 0 0 -1 0 0 0 -1 3 1 0 1 0 1 0 0 -1 1 0 0 0 1 0 1 -1 0 0 1 0 1 -1 0 0 1 -1 0 0 1 0 1 -1 0 0 1 -1 0 0 1 -1 0 0 1 -1 1 0 0 -1 1 -1 0 0 1 -1 1 0 0 -1 1 -1 0 0 1 -1 0 0 0zm0 0c-1,1 -2,1 -2,0 -1,-1 -1,-2 0,-2l2 2zm-26 14l-1 -3 0 0 1 -1 1 0 1 0 1 -1 0 0 1 0 1 -1 1 0 1 0 1 -1 0 0 1 0 1 -1 1 0 1 0 0 -1 1 0 1 -1 1 0 1 0 0 -1 1 0 1 -1 0 0 1 -1 1 0 1 -1 0 0 1 -1 1 0 0 -1 1 0 2 2 -1 1 0 0 -1 1 -1 1 -1 0 0 1 -1 0 -1 1 -1 0 0 1 -1 0 -1 0 -1 1 0 0 -1 1 -1 0 -1 1 -1 0 -1 0 0 1 -1 0 -1 0 -1 1 -1 0 -1 1 -1 0 -1 0 0 0 -1 1 -1 0 -1 0 -1 1 0 0zm-32 4l0 -3 0 0 1 0 1 0 1 0 1 0 1 0 1 0 1 -1 1 0 1 0 1 0 1 0 1 0 1 0 1 0 1 0 1 0 1 0 1 -1 1 0 1 0 1 0 1 0 1 0 1 -1 0 0 1 0 1 0 1 -1 1 0 1 0 1 0 1 0 1 3 -1 0 -1 0 -1 0 -1 1 -1 0 -1 0 -1 0 -1 1 -1 0 -1 0 -1 0 -1 0 -1 0 -1 1 -1 0 -1 0 -1 0 -1 0 -1 0 -1 0 -1 0 -1 1 -1 0 -1 0 -1 0 -1 0 -1 0 -1 0 -1 0 -1 0 -1 0 -1 0 0 0zm-157 -3l157 0 0 3 -157 0 0 0 0 -3zm-57 -14l2 -2 0 0 1 1 1 1 1 1 1 0 2 1 1 1 1 1 2 1 1 0 2 1 1 1 2 0 1 1 2 1 2 0 1 1 2 0 2 1 2 0 2 0 2 1 1 0 2 0 2 1 2 0 3 0 2 0 2 0 2 1 2 0 3 0 2 0 0 3 -2 0 -3 0 -2 0 -2 0 -3 0 -2 -1 -2 0 -2 0 -2 0 -2 -1 -2 0 -2 0 -2 -1 -2 0 -2 -1 -1 0 -2 -1 -2 0 -2 -1 -1 -1 -2 0 -2 -1 -1 -1 -2 0 -1 -1 -2 -1 -1 -1 -1 -1 -2 -1 -1 -1 -1 -1 -1 -1 0 0zm0 0c-1,0 -1,-1 -1,-2 1,-1 2,-1 3,0l-2 2zm-20 -44l4 0 0 0 0 1 0 2 0 1 0 2 0 2 0 1 1 2 0 1 0 2 0 1 1 2 0 1 1 1 0 2 1 1 0 1 1 2 0 1 1 1 1 1 0 2 1 1 1 1 1 1 1 1 1 2 0 1 1 1 1 1 2 1 1 1 1 1 -2 2 -2 -1 -1 -1 -1 -1 -1 -1 -1 -1 -1 -1 -1 -2 -1 -1 -1 -1 0 -1 -1 -2 -1 -1 -1 -1 0 -2 -1 -1 -1 -1 0 -2 -1 -1 0 -2 -1 -1 0 -2 -1 -1 0 -2 0 -1 -1 -2 0 -1 0 -2 0 -2 0 -1 0 -2 -1 -2 0 -1 0 0zm4 -118l0 118 -4 0 0 -118 0 0 4 0zm-6 -17l3 -1 0 0 0 1 0 0 0 1 0 0 1 1 0 0 0 1 0 0 0 1 0 0 0 1 1 0 0 1 0 0 0 1 0 0 0 1 0 1 0 0 0 1 0 0 0 1 0 0 0 1 1 0 0 1 0 1 0 0 0 1 0 0 0 1 0 1 -4 0 0 -1 0 -1 0 0 0 -1 0 0 0 -1 0 0 0 -1 0 0 0 -1 0 0 0 -1 0 -1 0 0 0 -1 0 0 0 -1 0 0 0 -1 -1 0 0 -1 0 0 0 0 0 -1 0 0 0 -1 0 0 -1 -1 0 0 0 -1 0 0 0 -1 0 0zm0 0c-1,0 0,-1 1,-2 0,0 1,0 2,1l-3 1zm-8 -16l0 3 1 -3 0 1 1 0 0 1 1 0 0 1 0 0 1 1 0 0 0 0 1 1 0 0 0 1 1 0 0 1 0 0 1 1 0 0 0 1 1 0 0 1 0 0 0 0 1 1 0 0 0 1 0 0 1 1 0 0 0 1 0 0 1 1 0 0 -3 1 0 0 -1 0 0 -1 0 0 0 -1 0 0 -1 -1 0 0 0 0 0 -1 -1 0 0 -1 0 0 0 -1 -1 0 0 -1 0 0 0 0 -1 -1 0 0 0 -1 -1 0 0 0 0 -1 -1 0 0 -1 0 0 -1 -1 0 0 -1 0 0 -1 0 0 1 -3zm-1 3c-1,-1 -1,-2 0,-3 0,0 1,0 2,0l-2 3zm136 0l-135 0 0 -3 135 0 1 3 -1 0zm0 -3c1,0 2,1 2,2 0,0 -1,1 -2,1l0 -3zm566 187l-102 -185 2 -1 103 184 -3 2 0 0zm3 -2c0,1 0,2 -1,2 -1,1 -2,0 -2,0l3 -2zm21 27l0 -3 -1 3 -1 -1 -1 -1 -1 -1 -1 0 -1 -1 0 -1 -1 -1 -1 0 -1 -1 -1 -1 -1 -1 0 -1 -1 0 -1 -1 -1 -1 0 -1 -1 0 -1 -1 -1 -1 0 -1 -1 -1 -1 0 0 -1 -1 -1 0 -1 -1 0 -1 -1 0 -1 -1 -1 0 -1 -1 0 0 -1 3 -2 0 1 1 1 0 0 1 1 0 1 1 1 0 0 1 1 0 1 1 1 1 0 0 1 1 1 0 1 1 0 1 1 1 1 0 1 1 0 1 1 1 1 0 1 1 0 1 1 1 1 1 1 0 0 1 1 1 1 1 1 1 0 1 1 -1 3zm1 -3c1,1 1,2 0,2 0,1 -1,1 -2,1l2 -3zm-148 0l147 0 0 3 -147 0 -1 -3 1 0zm0 3c-1,0 -2,-1 -2,-2 0,-1 1,-1 2,-1l0 3zm6 -16l3 0 0 0 0 1 0 0 0 1 0 0 0 1 0 0 0 1 0 0 -1 1 0 0 0 1 0 0 0 1 0 0 -1 1 0 0 0 1 -1 0 0 1 0 0 0 1 -1 0 0 1 0 0 -1 1 0 0 -1 0 0 1 -1 0 0 1 0 0 -1 1 -2 -3 0 0 1 -1 0 0 1 0 0 -1 0 0 1 -1 0 0 0 0 1 -1 0 0 0 -1 1 0 0 0 0 -1 0 0 0 -1 1 0 0 0 0 -1 0 0 0 -1 0 0 0 0 1 -1 0 0 0 -1 0 0 0 0 0 -1 0 0 0 -1 0 0zm-8 -21l3 -2 0 0 0 1 1 1 0 0 1 1 0 1 1 1 0 0 0 1 1 1 0 1 0 0 1 1 0 1 0 1 1 0 0 1 0 1 0 1 1 0 0 1 0 1 0 0 0 1 1 1 0 0 0 1 0 1 0 1 0 0 0 1 0 1 0 0 -3 0 0 0 0 -1 0 -1 0 0 0 -1 0 0 0 -1 -1 -1 0 0 0 -1 0 -1 0 0 0 -1 -1 0 0 -1 0 -1 0 0 -1 -1 0 -1 0 0 0 -1 -1 -1 0 -1 0 0 -1 -1 0 -1 -1 0 0 -1 -1 -1 0 -1 0 0 -1 -1 0 0zm0 0c0,-1 0,-2 1,-2 0,-1 1,-1 2,0l-3 2zm-11 -19l0 -4 1 1 0 1 1 0 0 1 0 0 0 1 1 0 0 1 1 0 0 1 0 0 1 1 0 1 0 0 1 1 0 0 1 1 0 1 0 0 1 1 0 1 1 0 0 1 0 1 1 0 0 1 1 1 0 0 1 1 0 1 1 1 0 0 1 1 -3 2 0 -1 -1 -1 0 0 -1 -1 0 -1 -1 -1 0 0 -1 -1 0 -1 -1 0 0 -1 0 -1 -1 0 0 -1 -1 -1 0 0 -1 -1 0 0 0 -1 -1 -1 0 0 0 -1 -1 0 0 -1 -1 -1 0 0 0 -1 -1 0 0 -1 0 0 0 -1 -1 0 2 1zm-2 -1c0,-1 0,-2 1,-2 0,-1 1,-1 2,0l-3 2zm-118 -3l120 0 0 4 -120 0 -1 -3 1 -1zm0 4c0,0 -1,-1 -1,-2 0,-1 1,-2 1,-2l0 4zm-19 26l18 -29 3 2 -19 28 0 0 -2 -1zm2 1c0,1 -1,1 -2,1 0,-1 -1,-2 0,-2l2 1zm-3 7l-3 -2 0 0 0 0 0 0 0 0 0 0 0 -1 0 0 0 0 1 0 0 0 0 -1 0 0 0 0 0 0 0 -1 0 0 1 0 0 0 0 0 0 -1 0 0 0 0 0 0 1 -1 0 0 0 0 0 0 0 0 0 -1 0 0 1 0 0 0 0 0 2 1 0 1 0 0 0 0 0 0 0 0 0 1 -1 0 0 0 0 0 0 0 0 1 0 0 0 0 0 0 -1 0 0 1 0 0 0 0 0 0 0 1 0 0 0 0 0 0 -1 0 0 1 0 0 0 0 0 0 0 0 0 1 0 0 0 0 0 0zm-2 6l-3 0 0 0 0 0 0 -1 0 0 0 0 0 0 0 -1 0 0 0 0 0 0 0 0 0 -1 0 0 0 0 0 0 0 -1 0 0 0 0 0 0 1 -1 0 0 0 0 0 0 0 -1 0 0 0 0 0 0 0 0 0 -1 0 0 0 0 1 0 0 -1 3 2 -1 0 0 0 0 0 0 1 0 0 0 0 0 0 0 0 0 1 0 0 0 0 0 0 0 0 0 1 -1 0 0 0 0 0 0 0 0 0 0 1 0 0 0 0 0 0 0 0 0 1 0 0 0 0 0 0 0 0 0 1 0 0 0 0 0 0zm1 6l-2 1 0 0 -1 0 0 0 0 0 0 -1 0 0 0 0 0 0 0 -1 0 0 0 0 0 0 0 -1 -1 0 0 0 0 0 0 0 0 -1 0 0 0 0 0 0 0 -1 0 0 0 0 0 0 0 -1 0 0 0 0 0 0 0 0 0 -1 0 0 0 0 3 0 0 0 0 0 0 0 0 1 0 0 0 0 0 0 0 0 0 1 0 0 0 0 0 0 0 0 0 0 0 1 0 0 0 0 1 0 0 0 0 1 0 0 0 0 0 0 0 0 0 1 0 0 0 0 0 0 0 1 0 0 0 0 0 0 0 0zm0 0c1,1 0,2 0,2 -1,1 -2,0 -2,-1l2 -1zm3 10l0 -3 -1 2 0 0 0 0 -1 0 0 -1 0 0 0 0 0 0 0 -1 -1 0 0 0 0 0 0 -1 0 0 0 0 0 0 -1 -1 0 0 0 0 0 0 0 -1 0 0 0 0 0 0 -1 -1 0 0 0 0 0 0 0 -1 0 0 0 0 0 0 0 -1 2 -1 1 0 0 1 0 0 0 0 0 0 0 1 0 0 0 0 0 0 0 0 1 1 0 0 0 0 0 0 0 1 0 0 0 0 0 0 1 0 0 1 0 0 0 0 0 0 0 1 0 0 1 0 0 0 0 0 0 1 0 0 0 0 0 0 -1 3zm1 -3c1,1 1,2 0,3 -1,0 -2,0 -2,-1l2 -2zm-83 0l82 0 0 3 -82 0 -1 -3 1 0zm0 3c-1,0 -1,-1 -1,-2 0,-1 0,-1 1,-1l0 3zm18 -21l2 2 0 0 0 1 -1 1 -1 0 0 1 -1 0 0 1 -1 1 0 0 -1 1 -1 0 0 1 -1 1 0 0 -1 1 0 0 -1 1 -1 0 0 1 -1 1 0 0 -1 1 -1 0 0 1 -1 0 0 1 -1 0 -1 1 0 0 -1 1 0 1 -1 0 -1 1 -2 -3 1 0 1 -1 0 0 1 -1 0 -1 1 0 0 -1 1 0 1 -1 0 0 1 -1 0 0 1 -1 1 0 0 -1 1 0 0 -1 1 -1 0 0 1 -1 1 0 0 -1 1 -1 0 0 1 -1 0 0 1 -1 1 0 0 -1 1 -1 0 0 1 -1 0 0zm0 0c0,-1 1,-1 2,0 1,1 1,2 0,2l-2 -2zm16 -21l3 2 0 0 -1 1 0 0 -1 1 0 1 -1 1 0 0 -1 1 0 1 -1 0 0 1 -1 1 0 0 -1 1 0 1 -1 0 0 1 -1 1 0 0 -1 1 0 1 -1 0 0 1 -1 0 0 1 -1 1 -1 0 0 1 -1 1 0 0 -1 1 0 1 -1 0 -2 -2 0 -1 1 0 0 -1 1 0 1 -1 0 -1 1 0 0 -1 1 -1 0 0 1 -1 0 -1 1 0 0 -1 1 0 0 -1 1 -1 0 0 1 -1 0 -1 1 0 0 -1 1 -1 0 0 1 -1 0 -1 1 0 0 -1 1 -1 0 0 1 -1 0 -1 0 0zm0 0c1,0 2,-1 2,0 1,0 1,1 1,2l-3 -2zm105 -155l-102 157 -3 -2 103 -157 2 0 0 2zm-2 -2c0,-1 1,-1 2,0 1,0 1,1 0,2l-2 -2zm-11 -13l0 3 1 -3 1 1 0 0 1 0 0 1 0 0 1 0 0 1 1 0 0 0 1 1 0 0 0 1 1 0 0 0 1 1 0 0 0 1 1 0 0 0 0 1 1 0 0 1 0 0 1 0 0 1 1 0 0 1 0 0 1 1 0 0 0 1 0 0 -2 2 0 0 -1 -1 0 0 0 -1 -1 0 0 -1 0 0 -1 0 0 -1 0 0 -1 -1 0 0 0 -1 -1 0 0 0 0 -1 -1 0 0 0 0 -1 -1 0 0 0 -1 -1 0 0 0 -1 -1 0 0 0 -1 -1 0 0 0 0 -1 0 0 -1 -1 0 1 -3zm-1 3c0,-1 0,-2 0,-2 1,-1 2,-1 2,-1l-2 3zm130 0l-129 0 0 -3 129 0 1 1 -1 2zm0 -3c1,0 2,1 2,2 0,0 -1,1 -2,1l0 -3zm-134 119l40 -64 3 1 -41 65 -1 1 -1 -3zm2 2c0,1 -1,1 -2,1 -1,-1 -1,-2 0,-3l2 2zm77 1l-78 0 0 -3 78 0 1 0 -1 3zm0 -3c1,0 1,0 1,1 0,1 0,2 -1,2l0 -3zm-36 -64l37 64 -3 2 -37 -65 0 -1 3 0zm-3 1c0,-1 0,-2 1,-2 1,0 2,0 2,1l-3 1zm233 153l317 0 0 3 -317 0 -1 -3 1 0zm0 3c0,0 -1,-1 -1,-2 0,-1 1,-1 1,-1l0 3zm8 -17l3 1 0 0 0 1 0 0 0 1 -1 0 0 1 0 0 0 1 -1 0 0 1 0 0 0 1 -1 0 0 1 0 0 -1 1 0 0 0 1 0 0 -1 1 0 0 0 1 -1 0 0 1 0 0 -1 1 0 0 -1 0 0 1 0 0 -1 1 0 0 0 0 -3 -2 1 0 0 -1 0 0 1 0 0 -1 0 0 1 -1 0 0 0 0 1 -1 0 0 0 -1 1 0 0 0 0 -1 0 0 1 -1 0 0 0 -1 1 0 0 -1 0 0 0 0 0 -1 1 0 0 -1 0 0 0 -1 1 0 0 -1 0 0 0 -1 0 0zm0 0c0,-1 1,-1 2,-1 1,1 1,1 1,2l-3 -1zm3 -16l3 0 0 0 0 1 0 0 0 1 0 0 0 1 0 0 0 1 0 1 0 0 0 1 0 0 0 1 0 0 0 1 0 0 -1 1 0 0 0 1 0 0 0 1 0 0 0 1 0 1 0 0 -1 1 0 0 0 1 0 0 0 1 0 0 -1 1 0 0 -3 -1 0 0 1 -1 0 0 0 -1 0 0 0 -1 0 0 0 -1 1 0 0 -1 0 0 0 -1 0 0 0 -1 0 0 0 -1 0 0 1 -1 0 0 0 -1 0 0 0 -1 0 0 0 -1 0 0 0 -1 0 0 0 -1 0 0 0 -1 0 0 0 -1 0 0zm3 -146l0 146 -3 0 0 -146 0 0 3 0zm-6 -17l3 -1 0 0 1 1 0 0 0 1 0 0 0 1 0 0 0 1 1 0 0 1 0 0 0 1 0 0 0 1 0 0 0 1 1 0 0 1 0 1 0 0 0 1 0 0 0 1 0 0 0 1 0 0 0 1 0 1 0 0 0 1 0 0 0 1 0 1 -3 0 0 -1 0 -1 0 0 0 -1 0 0 0 -1 0 0 0 -1 0 0 0 -1 0 0 0 -1 0 -1 0 0 -1 -1 0 0 0 -1 0 0 0 -1 0 0 0 -1 0 0 0 0 0 -1 -1 0 0 -1 0 0 0 -1 0 0 0 -1 0 0 -1 -1 0 0zm0 0c0,0 0,-1 1,-2 1,0 2,0 2,1l-3 1zm-8 -16l0 3 2 -3 0 1 0 0 1 1 0 0 1 1 0 0 0 1 1 0 0 0 0 1 1 0 0 1 0 0 1 1 0 0 0 1 1 0 0 1 0 0 1 1 0 0 0 0 0 1 1 0 0 1 0 0 0 1 1 0 0 1 0 0 0 1 0 0 -3 1 0 0 0 0 0 -1 0 0 -1 -1 0 0 0 -1 0 0 0 0 -1 -1 0 0 0 -1 0 0 -1 -1 0 0 0 -1 -1 0 0 0 0 -1 0 0 -1 -1 0 0 0 0 -1 -1 0 0 0 -1 -1 0 0 -1 -1 0 0 0 0 -1 -1 0 1 -3zm-1 3c0,-1 0,-2 0,-3 1,0 2,0 3,0l-3 3zm137 0l-136 0 0 -3 136 0 1 3 -1 0zm0 -3c1,0 2,1 2,2 0,0 -1,1 -2,1l0 -3zm-8 16l-3 -1 0 0 0 0 1 -1 0 0 0 -1 0 0 0 -1 1 0 0 -1 0 0 0 -1 1 0 0 -1 0 0 0 -1 1 0 0 0 0 -1 1 0 0 -1 0 0 1 -1 0 0 0 -1 1 0 0 -1 1 0 0 0 0 -1 1 0 0 -1 0 0 1 -1 2 3 0 0 -1 1 0 0 0 0 -1 1 0 0 0 1 -1 0 0 0 0 1 -1 0 0 1 0 0 -1 0 0 1 0 0 -1 1 0 0 0 1 0 0 -1 0 0 1 0 0 0 1 -1 0 0 1 0 0 0 1 0 0 -1 0 0 1 0 0 0 0zm0 0c0,1 -1,2 -2,1 -1,0 -1,-1 -1,-2l3 1zm-3 17l-3 0 0 0 0 -1 0 -1 0 0 0 -1 0 0 0 -1 0 0 0 -1 0 -1 0 0 1 -1 0 0 0 -1 0 0 0 -1 0 0 0 -1 0 -1 0 0 0 -1 0 0 1 -1 0 0 0 -1 0 0 0 -1 0 0 0 -1 1 0 0 -1 0 0 0 -1 3 1 0 1 0 0 0 1 -1 0 0 1 0 0 0 1 0 0 0 1 0 0 0 1 -1 0 0 1 0 0 0 1 0 0 0 1 0 0 0 1 0 0 0 1 0 0 0 1 0 0 0 1 -1 0 0 1 0 0 0 1 0 0 0 1 0 1 0 0zm-3 143l0 -143 3 0 0 143 -1 2 -2 -2zm3 0c0,1 0,2 -1,2 -1,0 -2,-1 -2,-2l3 0zm165 2l-166 0 0 -4 166 0 0 0 0 4zm19 -5l1 3 0 0 -1 0 0 0 -1 0 0 0 -1 0 -1 0 0 0 -1 1 0 0 -1 0 0 0 -1 0 -1 0 0 0 -1 0 -1 0 0 0 -1 0 0 0 -1 0 -1 0 0 0 -1 0 -1 0 0 0 -1 0 -1 0 -1 0 0 0 -1 0 -1 1 0 0 0 -4 0 0 1 0 1 0 0 0 1 0 1 0 0 0 1 0 1 0 0 0 1 0 1 0 0 0 1 0 1 0 0 0 1 0 0 0 1 0 1 0 0 0 1 -1 0 0 1 0 0 0 1 0 1 0 0 0 1 0 0 0 1 0 0 0 0 0zm19 -5l-3 0 2 2 0 0 -1 0 -1 0 0 1 -1 0 0 0 -1 0 0 1 -1 0 0 0 -1 0 0 0 -1 1 0 0 -1 0 0 0 -1 1 -1 0 0 0 -1 0 0 0 -1 0 0 1 -1 0 0 0 -1 0 0 0 -1 0 -1 0 0 1 -1 0 0 0 -1 -3 1 -1 0 0 1 0 0 0 1 0 0 0 1 0 0 0 1 -1 0 0 1 0 0 0 1 0 0 0 1 -1 0 0 1 0 0 0 1 0 0 -1 1 0 1 0 0 0 1 0 0 -1 1 0 0 0 1 0 0 -1 1 0 0 0 1 0 2 1zm-2 -1c0,-1 1,0 2,0 0,1 0,2 -1,3l-1 -3zm-10 43l9 -42 3 0 -9 43 -2 1 -1 -2zm3 1c0,1 -1,1 -2,1 -1,0 -2,-1 -1,-2l3 1z"/>
   <path id="1" class="fil2" d="M233 377l-122 0 -88 -177c-3,-7 -7,-12 -10,-17 -3,-4 -6,-9 -11,-14l136 0c-2,4 -3,8 -3,11 0,4 0,7 1,10 1,3 3,7 5,12l67 135 92 -169c16,-31 56,-105 115,-108 58,-4 123,-11 139,-58 19,28 6,96 -50,120 -80,33 -122,-17 -158,49l-113 206zm265 -208c-4,4 -7,9 -9,14 -2,6 -3,11 -3,17l0 146c0,7 1,12 3,17 2,5 5,10 9,14l-135 0c4,-4 7,-9 9,-14 2,-6 3,-11 3,-17l0 -146c0,-7 -1,-12 -3,-17 -2,-5 -5,-10 -9,-14l135 0zm312 42c-7,-3 -14,-5 -21,-6 -8,-1 -17,-2 -26,-2l-101 0c-6,0 -11,1 -15,2 -3,2 -5,5 -5,9l0 7c0,6 2,9 5,11 3,1 10,2 19,2l71 0c26,0 46,3 58,8 13,6 20,18 20,35l0 57c0,16 -7,28 -21,34 -14,6 -33,9 -57,9l-193 0 -10 -42c7,4 16,6 25,6 9,1 18,2 29,2l9 0 85 0 8 0c6,0 10,-1 13,-2 2,-2 3,-5 3,-9l0 -7c0,-4 -1,-8 -3,-9 -1,-2 -5,-3 -10,-3l-83 0c-26,0 -46,-3 -58,-9 -13,-5 -19,-17 -19,-35l0 -57c0,-16 7,-28 21,-34 14,-6 33,-9 56,-9l189 0 11 42zm181 -42c-4,4 -7,9 -9,14 -2,6 -3,11 -3,17l0 118c0,10 1,16 5,20 3,3 11,5 24,5l90 0c12,0 20,-2 23,-5 3,-4 5,-10 5,-20l0 -118c0,-6 -1,-12 -3,-17 -2,-5 -5,-10 -9,-14l72 0c-4,4 -7,9 -9,14 -2,6 -3,11 -3,17l0 118c0,9 -1,17 -3,24 -2,6 -7,12 -14,18 -7,6 -16,10 -26,13 -10,3 -20,4 -31,4l-157 0c-25,0 -44,-5 -56,-16 -13,-11 -19,-25 -19,-43l0 -118c0,-7 -1,-12 -3,-17 -2,-5 -5,-10 -9,-14l135 0zm465 0l102 184c5,8 13,16 23,24l-147 0c5,-4 7,-9 7,-14 0,-6 -2,-14 -8,-22 -5,-8 -9,-15 -12,-20l-120 0 -18 28c-1,3 -3,5 -4,7 -1,2 -2,5 -2,7 0,2 1,4 2,7 1,2 2,5 4,7l-82 0c7,-5 13,-11 19,-18 6,-7 11,-14 16,-21l103 -157c-3,-5 -7,-9 -12,-12l129 0zm-92 53l-41 65 78 0 -37 -65zm548 155l-317 0c5,-4 8,-9 10,-14 2,-6 3,-11 3,-17l0 -146c0,-7 -1,-12 -3,-17 -2,-5 -5,-10 -10,-14l136 0c-4,4 -7,9 -9,14 -2,5 -3,11 -3,17l0 143 166 0c7,0 14,-1 20,-2 5,-1 11,-3 16,-6l-9 42z"/>
  </g>
  <path class="fil3" d="M593 59c3,0 4,0 5,-2 1,-3 5,-8 10,-14 4,-6 9,-9 9,-11 0,-3 -2,-4 -4,-4 -2,0 -3,1 -5,3 -2,4 -4,6 -7,10 -2,3 -5,7 -7,9l-3 -8c-2,-3 -3,-6 -3,-8 0,-1 1,-2 1,-2 0,-1 -2,-3 -5,-3 -3,0 -4,2 -4,3 0,1 0,1 0,2 0,2 3,7 5,13 2,4 4,8 4,9 0,3 2,3 4,3l0 0zm33 -44c-3,0 -4,3 -4,7 0,2 1,3 3,3 2,0 5,-2 5,-6 0,-2 -2,-4 -4,-4l0 0zm4 17c0,-1 -3,-3 -4,-3 -5,0 -5,2 -5,4 0,1 0,1 0,2l0 18c0,0 0,1 0,3 0,2 1,3 3,3 2,0 6,-1 6,-3 0,-1 -1,-2 -1,-3l0 -19c0,0 1,-1 1,-2l0 0zm31 -4c-11,0 -24,4 -24,12 0,4 3,7 8,7 3,0 7,-1 11,-2 4,-1 7,-1 9,-1 3,0 4,1 4,2 0,5 -11,8 -19,8 -2,0 -5,-1 -6,-2 0,0 0,0 0,0 0,-1 0,-2 -2,-2 -3,0 -4,1 -4,3 0,4 6,7 12,7 8,0 27,-4 27,-15 0,-5 -5,-7 -10,-7 -3,0 -6,1 -11,2 -4,1 -7,1 -9,1 -2,0 -3,0 -3,-1 0,-4 8,-7 16,-7 6,0 6,1 7,1 0,0 0,1 2,1 2,0 3,-1 3,-3 0,-3 -4,-4 -11,-4l0 0zm30 5c1,0 1,-1 1,-1 0,-3 -3,-3 -4,-3 -2,0 -5,0 -5,3 0,1 1,1 1,2l0 18c0,4 4,8 8,8 7,0 12,-3 17,-7l0 2c-1,0 -1,1 -1,2 0,1 1,2 4,2 2,0 5,-1 5,-3 0,0 -1,-1 -1,-1l0 -22c0,-4 -2,-4 -5,-4 -2,0 -3,1 -3,3 0,0 0,1 1,1l0 14c-5,3 -11,7 -14,7 -2,0 -4,-2 -4,-3l0 -18zm61 6c-21,1 -30,9 -30,15 0,4 4,6 8,6 8,0 15,-3 22,-8l0 0 0 3c0,0 -1,1 -1,2 0,1 1,2 4,2 2,0 5,-1 5,-3 0,0 0,-1 -1,-1l0 -20c0,-4 -3,-7 -9,-7 -8,0 -14,2 -19,4 -2,0 -3,2 -3,3 0,2 1,4 3,4 2,0 3,-2 3,-2 4,-2 9,-4 15,-4 2,0 3,1 3,3l0 3zm0 6c0,3 -12,9 -19,9 -2,0 -3,0 -3,-1 0,-3 8,-9 22,-10l0 2zm18 9c-1,0 -1,1 -1,1 0,3 2,4 5,4 3,0 4,-2 4,-3 0,-1 0,-2 -1,-2l0 -34c1,0 1,-1 1,-3 0,-2 -2,-3 -4,-3 -4,0 -5,1 -5,4 0,1 0,2 1,2l0 34zm21 -39c-2,0 -4,3 -4,7 0,2 1,3 4,3 2,0 4,-2 4,-6 0,-2 -1,-4 -3,-4l-1 0zm4 17c0,-1 -2,-3 -4,-3 -4,0 -4,2 -4,4 0,1 0,1 0,2l0 18c0,0 -1,1 -1,3 0,2 2,3 4,3 2,0 6,-1 6,-3 0,-1 -1,-2 -1,-3l0 -19c0,0 0,-1 0,-2l0 0zm8 21c-1,1 -2,2 -2,4 0,1 1,2 3,2 1,0 2,0 2,0l27 0c0,0 1,0 2,0 3,0 4,-1 4,-5 0,-3 -1,-4 -3,-4 -2,0 -3,1 -3,3l-20 0 23 -18c2,-1 3,-2 3,-4 0,-1 -1,-2 -3,-2 -2,0 -3,0 -4,1l-26 0c-3,0 -4,1 -4,5 0,2 1,4 3,4 2,0 3,-2 3,-4l18 0 -23 18zm47 -38c-2,0 -4,3 -4,7 0,2 1,3 4,3 2,0 4,-2 4,-6 0,-2 -1,-4 -4,-4l0 0zm4 17c0,-1 -2,-3 -4,-3 -4,0 -5,2 -5,4 0,1 1,1 1,2l0 18c0,0 -1,1 -1,3 0,2 2,3 4,3 2,0 5,-1 5,-3 0,-1 0,-2 -1,-3l0 -19c1,0 1,-1 1,-2l0 0zm17 10c9,-7 14,-8 15,-8 1,0 2,1 2,2l0 18c0,1 0,1 0,2 0,2 1,3 4,3 2,0 4,-1 4,-3 0,-1 0,-2 0,-2l0 -21c0,-2 -4,-5 -7,-5 -4,0 -9,2 -18,8l0 -3c0,-1 1,-2 1,-2 0,-2 -1,-3 -4,-3 -2,0 -5,1 -5,3 0,1 0,1 1,2l0 5c-1,3 -1,4 -1,5 0,1 0,2 1,2l0 10c-1,0 -1,1 -1,2 0,1 2,2 4,2 2,0 4,-1 4,-3 0,0 0,-1 0,-1l0 -13zm68 -9c0,-3 -2,-4 -5,-4 -19,0 -32,12 -32,24 0,4 3,7 10,7 7,0 16,-5 20,-12 0,4 0,8 0,11 0,7 -8,9 -11,9 -3,0 -6,-1 -8,-2 0,-1 -2,-2 -3,-2 -2,0 -3,2 -3,4 0,3 5,5 13,5 8,0 19,-4 19,-13l0 -27zm-26 21c-2,0 -3,-1 -3,-3 0,-8 10,-17 22,-17l0 1c-1,3 -2,6 -3,8 -4,8 -12,11 -16,11l0 0zm68 3c-3,7 -6,10 -10,10 -3,0 -5,-1 -5,-2 0,0 1,-1 1,-1 0,-2 -2,-3 -4,-3 -3,0 -4,1 -4,4 0,2 1,1 1,3 2,3 6,5 11,5 5,0 10,-3 14,-9l16 -29c1,-1 2,-2 2,-3 0,-2 -2,-3 -5,-3 -2,0 -3,1 -3,3l-10 19 -15 -18c1,-3 -1,-4 -4,-4 -2,0 -4,1 -4,4 0,1 1,2 2,3l17 21zm48 -29c-14,0 -25,9 -25,21 0,8 7,11 12,11 8,0 13,-1 20,-7 2,-1 7,-6 7,-12 0,-5 -3,-13 -14,-13l0 0zm-1 6c5,0 7,3 7,7 0,4 -2,7 -6,10 -3,2 -6,3 -11,3 -3,0 -7,-2 -7,-6 0,-8 9,-14 17,-14l0 0zm30 -1c0,0 1,-1 1,-1 0,-3 -3,-3 -4,-3 -3,0 -5,0 -5,3 0,1 0,1 1,2l0 18c0,4 4,8 8,8 7,0 12,-3 16,-7l0 2c0,0 0,1 0,2 0,1 0,2 4,2 2,0 4,-1 4,-3 0,0 0,-1 0,-1l0 -22c0,-4 -2,-4 -5,-4 -2,0 -3,1 -3,3 0,0 0,1 0,1l0 14c-4,3 -10,7 -14,7 -1,0 -3,-2 -3,-3l0 -18zm34 22c0,0 0,1 0,1 0,2 1,3 3,3 4,0 6,-1 6,-3 0,-1 -1,-2 -1,-2l0 -11c5,-5 10,-8 12,-8 1,0 1,1 1,2 0,0 0,1 0,2 0,1 1,2 4,2 2,0 4,-2 4,-4 0,-6 -3,-8 -5,-8 -5,0 -11,3 -16,7l0 0 0 -3c0,-1 0,-1 0,-2 0,-1 -1,-2 -4,-2 -2,0 -4,1 -4,2l0 2 0 22zm79 -23c-1,-1 -3,-2 -6,-2 -11,0 -26,11 -26,22 0,6 5,8 9,8 9,0 19,-5 23,-10l0 4c0,1 0,1 0,2 0,2 1,3 4,3 3,0 5,-1 5,-3 0,-1 -1,-2 -1,-2l0 -34 0 -3c0,-1 -1,-3 -4,-3 -2,0 -5,1 -5,3 0,1 1,2 1,3l0 12zm-6 4c4,0 6,1 6,4 0,4 -3,7 -6,9 -4,3 -9,5 -14,5 -3,0 -4,-1 -4,-4 0,-5 11,-14 18,-14l0 0zm24 19c-1,0 -1,1 -1,1 0,2 1,3 4,3 4,0 5,-1 5,-3 0,-1 0,-2 -1,-2l0 -11c5,-5 11,-8 13,-8 0,0 1,1 1,2 -1,0 -1,1 -1,2 0,1 2,2 4,2 2,0 4,-2 4,-4 0,-6 -3,-8 -5,-8 -5,0 -11,3 -16,7l0 0 0 -3c1,-1 1,-1 1,-2 0,-1 -2,-2 -4,-2 -3,0 -5,1 -5,2l1 2 0 22zm53 -27c-12,0 -24,9 -24,22 0,7 6,10 14,10 15,0 22,-8 22,-10 0,-2 0,-4 -3,-4 -3,0 -4,2 -4,4 -2,1 -8,4 -15,4 -4,0 -7,-1 -7,-4 0,-2 1,-3 1,-3l4 -1c23,-3 25,-6 25,-9 0,-2 -3,-9 -13,-9l0 0zm-1 6c5,0 6,2 6,3 0,1 -2,2 -19,4 3,-5 9,-7 13,-7l0 0zm48 5c-21,1 -30,9 -30,15 0,4 4,6 8,6 8,0 15,-3 22,-8l0 0 0 3c0,0 -1,1 -1,2 0,1 1,2 4,2 2,0 5,-1 5,-3 0,0 0,-1 -1,-1l0 -20c0,-4 -3,-7 -9,-7 -8,0 -14,2 -19,4 -2,0 -4,2 -4,3 0,2 2,4 3,4 3,0 4,-2 4,-2 4,-2 8,-4 14,-4 3,0 4,1 4,3l0 3zm0 6c0,3 -12,9 -19,9 -2,0 -3,0 -3,-1 0,-3 8,-9 22,-10l0 2zm25 -3c6,-4 12,-7 15,-7 1,0 1,0 1,1l0 18c0,0 -1,1 -1,2 0,2 2,3 4,3 3,0 5,-1 5,-5l0 -11c8,-7 13,-9 16,-9 1,0 1,1 1,2l0 18c0,1 0,1 0,2 0,2 1,3 4,3 2,0 4,-1 4,-3 0,-1 0,-1 0,-2l0 -22c0,-3 -2,-4 -6,-4 -4,0 -11,3 -19,9l0 -4c0,-4 -2,-5 -6,-5 -4,0 -12,4 -18,8l0 -3c0,-1 0,-1 0,-2 0,-2 -1,-3 -3,-3 -3,0 -5,0 -5,3 0,1 0,2 1,3l0 19c-1,1 -1,2 -1,3 0,2 2,3 5,3 2,0 4,-1 4,-3 0,-1 -1,-2 -1,-2l0 -12zm80 -14c-10,0 -23,4 -23,12 0,4 3,7 7,7 4,0 8,-1 12,-2 4,-1 7,-1 9,-1 3,0 4,1 4,2 0,5 -11,8 -19,8 -3,0 -5,-1 -6,-2 0,0 0,0 0,0 0,-1 0,-2 -3,-2 -2,0 -3,1 -3,3 0,4 5,7 12,7 8,0 26,-4 26,-15 0,-5 -4,-7 -9,-7 -3,0 -7,1 -11,2 -4,1 -7,1 -9,1 -2,0 -3,0 -3,-1 0,-4 8,-7 16,-7 6,0 6,1 7,1 0,0 0,1 2,1 2,0 3,-1 3,-3 0,-3 -5,-4 -12,-4l0 0zm26 31c4,0 5,-2 5,-5 0,-3 -1,-4 -4,-4 -3,0 -4,3 -4,5 0,3 2,4 3,4l0 0zm18 0c4,0 5,-2 5,-5 0,-3 -2,-4 -4,-4 -3,0 -5,3 -5,5 0,3 2,4 4,4l0 0zm18 0c3,0 4,-2 4,-5 0,-3 -1,-4 -3,-4 -3,0 -5,3 -5,5 0,3 2,4 4,4l0 0zm17 0c4,0 5,-2 5,-5 0,-3 -1,-4 -4,-4 -3,0 -4,3 -4,5 0,3 2,4 3,4l0 0zm18 0c3,0 5,-2 5,-5 0,-3 -2,-4 -4,-4 -3,0 -5,3 -5,5 0,3 2,4 4,4l0 0z"/>
 </g>
</svg>
