<?xml version="1.0" encoding="utf-8"?>
<!-- Generator: Adobe Illustrator 26.0.1, SVG Export Plug-In . SVG Version: 6.00 Build 0)  -->
<svg version="1.2" baseProfile="tiny-ps" id="Layer_1" xmlns="http://www.w3.org/2000/svg"
	xmlns:xlink="http://www.w3.org/1999/xlink"
	viewBox="0 0 256 256" xml:space="preserve">
	<title>V.Vidhya</title>
<rect x="0.3" fill="#FFFFFF" width="256" height="256"/>
<g>
	<polyline fill="none" stroke="#4CB748" stroke-width="4" stroke-miterlimit="2.6131" points="90.9,159.2 110,174.7 89.8,184.8 	"/>
	<polyline fill="none" stroke="#4CB748" stroke-width="4" stroke-miterlimit="2.6131" points="165.1,159.2 146,174.7 166.2,184.8 	
		"/>
</g>
<path fill="none" stroke="#000000" stroke-width="6.5" stroke-miterlimit="2.6131" d="M192.4,133.5v56.2c0,11.4-9.3,20.8-20.8,20.8
	H84.4c-11.4,0-20.8-9.3-20.8-20.8v-56.2"/>
<path fill="none" stroke="#000000" stroke-width="6.5" stroke-linecap="round" stroke-linejoin="round" stroke-miterlimit="2.6131" d="
	M63,123.8h130c0-33-25.1-60.3-57.5-63.9c-8.2-0.9-6.7,7.7-8.3,7.7c-1.6,0,0.4-8.9-10-7.2C86.4,65.4,63,91.9,63,123.8z"/>
<path fill="none" stroke="#000000" stroke-width="3.25" stroke-miterlimit="2.6131" d="M90.3,73.6c1.3,4.2,1.1,5.9,4.9,10.5
	c7.6-4.3,11.3-4.3,16.9-4.9c-0.1-4.7,1.7-9.1,5.3-10.1"/>
<path fill="none" stroke="#000000" stroke-width="3.25" stroke-miterlimit="2.6131" d="M101.8,80.8c0.2,11,3.4,18.5,12.6,19"/>
<path fill="none" stroke="#000000" stroke-width="3.25" stroke-miterlimit="2.6131" d="M113.4,116.1c-23-3.7-33.4-17.2-18.6-23.7"/>
<path fill="none" stroke="#000000" stroke-width="3.25" stroke-miterlimit="2.6131" d="M88.1,101.6c-4-3.6-8.1-3.5-12.1-0.7"/>
<path fill="none" stroke="#000000" stroke-width="3.25" stroke-miterlimit="2.6131" d="M93.9,109.3c-5.1,0.2-9.2,3.2-10.5,6.7"/>
<path fill="none" stroke="#000000" stroke-width="3.25" stroke-miterlimit="2.6131" d="M127.4,79.4c8.4,7.2,18.1,3.2,25.7,1.4"/>
<path fill="none" stroke="#000000" stroke-width="3.25" stroke-miterlimit="2.6131" d="M144.6,83.1c-7.8,5.3-6.4,11.7-1.6,13.3
	c17.1,3.2,11.5,16.2-2.6,16.4"/>
<path fill="none" stroke="#000000" stroke-width="3.25" stroke-miterlimit="2.6131" d="M171.4,77.4c-8.9,2.4-13.5,6.8-12.3,14"/>
<path fill="none" stroke="#000000" stroke-width="3.25" stroke-miterlimit="2.6131" d="M181.3,90.5c-4.1-1.6-9.9,3.7-10.4,7.6
	c2.1,7.7-0.4,11.6-5.7,16"/>
<line fill="none" stroke="#000000" stroke-width="6.5" stroke-linecap="round" stroke-linejoin="round" stroke-miterlimit="2.6131" x1="127.4" y1="66.6" x2="127.4" y2="102.8"/>
<g>
	<path fill-rule="evenodd" d="M155.3,209.1l7,0.2l-0.4,27H172c2.3,0,4.1-0.6,4.1,2.6l0,0c0,3.1-1.1,4.4-3.3,4.4l-17.4-0.2
		L155.3,209.1z"/>
	<path fill-rule="evenodd" d="M100.7,209.1l-7,0.2l0.4,27H84c-2.3,0-4.1-0.6-4.1,2.6l0,0c0,3.1,1.1,4.4,3.3,4.4l17.4-0.2
		L100.7,209.1z"/>
</g>
<path fill-rule="evenodd" fill="#4CB748" d="M128,15.2l11.5,28.5L159,19.4l2.5,30.4l26-18.1l-6.7,29.8L211.2,51l-15.4,26.8l32.3-2
	l-22.8,21.6L237,104l-36.3,14.9c0-0.2,0-0.4,0-0.6c0-37.8-32.5-68.4-72.7-68.4s-72.7,30.6-72.7,68.4L19,104l31.6-6.6L27.9,75.7
	l32.3,2L44.8,50.9l30.4,10.5l-6.7-29.8l26,18.1L97,19.4l19.5,24.3L128,15.2z"/>
</svg>