<svg height="1229.564" viewBox="0 0 1545.646 1229.564" width="1545.646" xmlns="http://www.w3.org/2000/svg" xmlns:xlink="http://www.w3.org/1999/xlink"><clipPath id="a"><path d="m827.955 167.626c-1.653 24.533-2.609 57.434-2.953 89.05-.5 45.941 57.631-.001 60.137-33.726 3.867-52.042-55.997-72.94-57.184-55.324z"/></clipPath><clipPath id="b"><ellipse cx="827.147" cy="215.36" rx="28.667" ry="30.404" transform="matrix(.99964534 -.02663058 .02663058 .99964534 -5.442 22.103)"/></clipPath><clipPath id="c"><ellipse cx="945.454" cy="206.131" rx="34.114" ry="36.181" transform="matrix(.99964534 -.02663058 .02663058 .99964534 -5.154 25.25)"/></clipPath><path d="m947.806 706.859s-26.95 424.105-128.73 469.722c-96.082 43.064-225.9-7.558-225.9-7.558l108.643-471.821s34.255-166.032 125.976-157.888c91.722 8.144 130.073 87.048 120.011 167.544z" fill="#f2b9a9"/><path d="m797.899 466.98s-102.376 29.42-121.02 117.129c-21.487 101.08-59.345 247.533-59.345 247.533l200.432 33.491-20.066-398.154z" fill="#41b30a"/><path d="m668.812 840.163s-50.819-18.453-51.279-8.521c-.794 17.134 45.306 34.84 45.306 34.84z" fill="#111"/><path d="m1283.359 1058.177s19.414-28.727 24.585-23.491c5.171 5.235-9.39 44.543-9.39 44.543l-15.194-21.052z" fill="#111"/><path d="m1419.236 1176.817c-85.17 26.7-193.51 44.76-331.19 51.76-83.02 4.22-158.31-5.27-225.46-25.12-2.34-2.94-3.82-6.12-4.38-9.52-15.42-94.49-100.29-697.33-76.87-718.68 19.32-17.61 175.01-44.75 214.02-49.4 0 0 227.57-28.15 337.98-.25 42.92 10.84 24.54 142.7 34.76 223.68 19.71 156.21 41.58 434.93 51.14 527.53z" fill="#41b30a"/><rect fill="#f2b9a9" height="309.296" rx="86.785" transform="matrix(.97957525 -.20107792 .20107792 .97957525 -54.243 209.119)" width="173.571" x="915.485" y="216.923"/><path d="m832.623 131.294c-8.55 23.907-9.488 201.659-5.502 225.459 5.679 33.908 122.368 41.464 204.457-10.238 46.918-29.551 58.971-149.733 20.763-215.668-47.429-81.847-195.536-67.171-219.718.448z" fill="#f2b9a9"/><path d="m1053.731 231.16c-5.128 10.547-18.224 14.544-18.989-2.974s12.234-46.241-6.83-64.614c-20.693-19.942-35.979-66.075-58.86-72.142-66.768-17.703-129.328 16.85-136.43 39.863-12.967 7.543-46.188-50.652-16.949-85.247 0 0 6.718 26.39 26.545 27.878 0 0-8.56-42.434 13.324-73.926 0 0 4.691 17.561 16.086 23.626-1.346-12.855 22.351-15.887 40.495 8.725-1.786-11.48 10.238-29.156 27.832 2.203 0 0 32.05-8.286 50.044 23.57 0 0 64.316 18.738 81.734 46.729 0 0-6.222-23.201.695-24.93 6.916-1.729 35.331 117.962 22.816 146.69s-41.515 4.546-41.515 4.546z" fill="#111"/><path d="m845.742 161.752c15.144-2.356 14.039-26.293 1.056-24.038-8.161 1.418-35.101 9.447-42.808 21.581-4.998 7.869-5.925 17.593 5.428 13.22 11.353-4.374 21.801-8.504 36.325-10.763z" fill="#111"/><path d="m1048.603 241.708c12.363-33.906 52.823-46.756 65.054-10.118 12.231 36.637-19.673 62.502-41.811 58.76s-31.085-27.135-23.243-48.642z" fill="#f2b9a9"/><path d="m1068.207 271.011c-3.634 0-6.826-2.646-7.402-6.348-2.729-17.543 5.971-31.591 26.596-42.945 3.631-1.997 8.19-.675 10.188 2.954 1.997 3.628.675 8.189-2.953 10.187-19.011 10.465-20.145 20.193-19.008 27.499.637 4.093-2.165 7.927-6.259 8.563-.39.061-.778.09-1.161.09z" fill="#de8f74"/><path d="m1084.812 261.314c-2.026 0-4.047-.816-5.526-2.427l-10.187-11.093c-2.802-3.051-2.6-7.795.451-10.597s7.795-2.601 10.598.451l10.187 11.093c2.802 3.051 2.6 7.795-.451 10.597-1.44 1.323-3.259 1.976-5.071 1.976z" fill="#de8f74"/><path d="m899.988 325.981c-3.731 0-6.964-2.782-7.434-6.58-.509-4.111 2.412-7.855 6.522-8.364 11.117-1.375 26.028-6.993 34.536-18.636 2.444-3.344 7.138-4.074 10.48-1.63 3.345 2.444 4.074 7.136 1.631 10.48-14.261 19.514-37.9 23.817-44.806 24.672-.313.039-.623.058-.931.058z" fill="#de8f74"/><path d="m915.356 150.995c-14.947 7.184-26.225-14.998-9.941-21.09 20.68-7.736 57.272-7.791 71.967 4.269 14.695 12.061 10.815 20.061-.947 16.911s-41.054-9.715-61.079-.091z" fill="#111"/><path d="m914.407 393.672c-3.929 0-7.23-3.058-7.479-7.033-.258-4.134 2.884-7.695 7.018-7.953 31.188-1.947 79.488-18.087 103.363-34.54 3.411-2.351 8.082-1.49 10.432 1.92 2.351 3.411 1.49 8.081-1.92 10.432-26.151 18.021-76.955 35.037-110.939 37.159-.159.01-.317.015-.475.015z" fill="#de8f74"/><g clip-path="url(#a)"><ellipse cx="827.147" cy="215.36" fill="#fff" rx="28.667" ry="30.404" transform="matrix(.99964534 -.02663058 .02663058 .99964534 -5.442 22.103)"/><g clip-path="url(#b)"><ellipse cx="827.147" cy="215.36" fill="#111" rx="16.388" ry="26.766" transform="matrix(.99964534 -.02663058 .02663058 .99964534 -5.442 22.103)"/></g></g><ellipse cx="945.454" cy="206.131" fill="#fff" rx="34.114" ry="36.181" transform="matrix(.99964534 -.02663058 .02663058 .99964534 -5.154 25.25)"/><g clip-path="url(#c)"><ellipse cx="928.122" cy="208.999" fill="#111" rx="19.618" ry="29.9" transform="matrix(.99964534 -.02663058 .02663058 .99964534 -5.236 24.789)"/></g><path d="m882.713 243.401c-19.155-18.907-36.312-1.695-19.25 22.184" fill="#f2b9a9"/><path d="m863.47 273.085c-2.34 0-4.646-1.091-6.109-3.14-12.148-17.003-9.711-31.331-1.906-37.988 7.035-6 19.82-6.436 32.526 6.105 2.948 2.91 2.979 7.659.069 10.606-2.911 2.949-7.66 2.979-10.606.069-5.931-5.853-10.737-6.665-12.255-5.368-1.816 1.548-2.396 8.375 4.377 17.854 2.408 3.37 1.628 8.055-1.742 10.463-1.321.944-2.845 1.398-4.354 1.398z" fill="#de8f74"/><path d="m913.415 439.296c-1.455 17.815 14.967 81.467 80.01 84.513 73.89 3.461 113.677-50.136 159.006-109.768l-52.331 2.516-168.54 19.496-18.145 3.244z" fill="#f2b9a9"/><path d="m427.118 1020.945 299.936-38.126c50.703 1.931-50.114 203.153-103.59 195.861l-209.266-54.636c-40.025-13.201-34.308-91.251 12.919-103.099z" fill="#f2b9a9"/><path d="m817.403 859.06c-2.646 0-4.855-2.076-4.99-4.749l-7.635-151.515c-.14-2.758 1.983-5.106 4.741-5.245 2.756-.15 5.107 1.984 5.246 4.742l7.636 151.515c.139 2.758-1.984 5.106-4.742 5.245-.086.004-.172.006-.256.006z" fill="#2a7700"/><path d="m208.012 957.129v.016s.073.02.073.02l144.329 42.027 125.059 36.401c3.857.878 7.743 1.576 11.642 2.091.468.065.921.129 1.391.179 5.065.631 10.168.959 15.277.999l434.76 3.196 2.181-14.748c.021-.074.027-.151.032-.226l.028-.181-.03-.002-430.407-6.798c-4.1-.057-8.204-.282-12.295-.673-6.516-.616-13.017-1.657-19.41-3.103-1.322-.28-2.626-.605-3.93-.929l-266.011-76.411-2.69 18.144z" fill="#374047"/><path d="m210.703 938.985 269.941 77.34 1.628.47c5.888 1.485 11.873 2.473 17.926 2.948 2.125.156 4.268.268 6.402.302l434.913 8.182c.671.004 1.084-.424 1.212-.918.021-.074.027-.151.032-.226.004-.061.009-.122-.002-.183-.04-.491-.342-.956-.958-1.093l-301.401-69.7c-6.182-1.431-12.483-2.275-18.828-2.512l-152.129-5.414-258.738-9.196z" fill="#656c72"/><path d="m691.886 1006.131-182.131-47.452c-4.114-1.072-8.34-1.66-12.591-1.751l-159.219-3.435c-.022 0-.027.03-.006.037l161.17 53.81c3.865 1.29 7.911 1.956 11.986 1.97l180.293.656c2.291.008 2.716-3.258.499-3.835z" fill="#374047"/><path d="m1.683 544.723 29.033 60.756 125.298 262.201 33.081 69.231c4.114 8.603 10.755 15.621 18.917 20.218l2.69-18.144 258.738 9.196-151.451-352.439c-10.725-24.972-33.617-42.583-60.485-46.569l-232.43-34.38c-16.771-2.483-29.856 14.257-23.391 29.929z" fill="#656c72"/><path d="m208.012 957.129c.014.017.043.034.073.036 3.12 1.771 6.467 3.161 9.995 4.152l134.334 37.875 136.235 38.396c.15.042.315.069.466.095.481.096.935.145 1.391.179 7.992.464 14.135-7.768 10.812-15.503l-1.12-2.615-.144-.315-5.903-13.755-21.179-49.268-3.531-8.225-258.738-9.196-2.69 18.144z" fill="#656c72"/><g fill="#f2b9a9"><path d="m250.645 1026.616c13.311 27.346 125.839 87.398 163.554 97.428 32.054 8.524 116.033-16.971 97.921-53.006-18.112-36.034-101.432-52.991-101.432-52.991s-183.543-39.708-160.043 8.568z"/><path d="m1495.275 708.442s68.174 330.381-27.535 383.06c-93.515 51.471-191.06 30.336-191.06 30.336l-25.188-395.987s-17.089-163.317 80.422-167.158c97.511-3.842 155.375 72.11 163.361 149.75z"/><path d="m901.807 926.267 388.038-21.179c49.721 2.892 50.755 221.623 1.034 218.731l-392.843-54.861c-39.771-7.657-42.839-132.488 3.771-142.692z"/><path d="m942.615 995.611c4.079-32.954-11.202-65.305-39.23-83.11-24.9-15.818-51.146-34.904-63.382-43.871-20.457-14.991-87.61 124.226-60.515 146.548 23.299 19.195 36.625 37.596 62.962 48.647 19.632 8.237 52.127 12.739 71.144 8.566 16.246-3.565 24.681-41.718 29.021-76.78z"/><path d="m840.003 868.631c-16.327-17.216-74.672-56.95-87.248-55.451s-74.877 35.424-85.473 42.067c-19.98 12.525 2.536 45.427 27.343 32.981 25.367-12.727 50.593-25.623 50.593-25.623l67.661 43.309 27.125-37.283z"/><path d="m827.774 910.479c-15.372-12.222-66.115-49.52-78.221-53.59s-89.444 25.622-102.208 30.473c-28.322 10.765-14.798 56.3 19.259 45.334 23.57-7.589 67.809-22.4 67.809-22.4l71.003 43.373 22.358-43.191z"/><path d="m822.917 941.443c-11.056-10.85-64.555-38.945-81.216-37.374s-71.241 17.566-87.976 22.543c-23.022 6.847-18.025 50.917 14.231 43.281 34.974-8.28 63.65-14.807 63.65-14.807l69.103 32.809z"/><path d="m811.462 982.408c-7.835-7.866-46.796-32.984-57.584-33.589s-50.042 16.574-62.199 22.347c-20.79 9.872-7.737 40.798 26.885 31.698 18.733-4.924 32.248-7.949 32.248-7.949l28.677 20.264 31.974-32.77z"/></g><path d="m801.42 981.963c-1.438 0-2.893-.413-4.176-1.276-.104-.07-10.604-7.107-22.526-13.484-21.609-11.558-27.202-9.935-27.258-9.918-13.276 4.844-35.076 12.856-35.076 12.856l-5.174-14.079s21.819-8.02 35.115-12.871c5.33-1.946 14.625-2.485 39.354 10.725 12.661 6.764 23.479 14.017 23.933 14.322 3.438 2.311 4.35 6.97 2.04 10.408-1.448 2.153-3.818 3.317-6.232 3.317z" fill="#de8f74"/><path d="m814.585 948.089c-1.523 0-3.061-.462-4.39-1.424-25.242-18.262-58.084-36.929-67.109-35.226-17.319 3.251-76.846 19.316-77.445 19.478-4.005 1.079-8.116-1.286-9.196-5.284-1.08-3.999 1.285-8.116 5.284-9.196 2.47-.667 60.696-16.38 78.59-19.739 5.971-1.124 17.49-.483 48.352 17.938 16.096 9.607 29.746 19.463 30.319 19.878 3.355 2.428 4.106 7.117 1.679 10.472-1.467 2.027-3.759 3.104-6.083 3.104z" fill="#de8f74"/><path d="m825.179 915.945c-1.502 0-3.02-.45-4.338-1.387-21.58-15.336-64.834-45.636-74.709-50.993-.981-.294-8.444-1.667-40.987 9.721-17.983 6.293-34.446 13.306-34.61 13.375-3.813 1.627-8.216-.143-9.843-3.952-1.626-3.81.143-8.216 3.952-9.843.718-.307 17.802-7.585 36.749-14.158 36.075-12.515 46.382-11.285 51.705-8.43 12.856 6.896 73.843 50.211 76.433 52.052 3.376 2.399 4.168 7.082 1.769 10.458-1.463 2.058-3.773 3.156-6.12 3.156z" fill="#de8f74"/><path d="m849.354 1073.898c-1.186 0-2.388-.282-3.508-.876-3.389-1.797-33.372-17.809-42.736-26.415-3.05-2.803-3.25-7.547-.447-10.597 2.804-3.05 7.548-3.25 10.598-.447 6.734 6.189 30.88 19.573 39.615 24.208 3.659 1.941 5.052 6.481 3.11 10.141-1.347 2.539-3.944 3.986-6.632 3.986z" fill="#de8f74"/><path d="m336.374 1043.213c-20.355 1.416-79.356-7.93-85.728-16.597-6.373-8.667-21.235-69.123-23.213-79.982-3.73-20.476 30.116-28.483 36.704-5.114 6.737 23.898 13.285 47.82 13.285 47.82l66.675 12.669-7.722 41.204z" fill="#f2b9a9"/><path d="m372.791 1063.743c-16.314-4.262-67.998-19.914-76.889-26.154-8.892-6.24-26.036-75.006-28.901-86.33-6.356-25.126 32.766-39.428 41.818-10.24 6.265 20.2 17.62 58.408 17.62 58.408l66.04 26.477-19.688 37.84z" fill="#f2b9a9"/><path d="m402.038 1059.182c-8.056 9.616-22.099 11.523-32.426 4.402-16.484-11.368-36.335-28.168-39.511-37.199-4.72-13.42-11.545-61.48-13.579-76.244-2.799-20.31 34.077-33.108 39.557-5.391 5.941 30.053 11.02 54.594 11.02 54.594l31.515 25.275c10.629 8.524 12.174 24.12 3.424 34.564z" fill="#f2b9a9"/><path d="m431.187 1043.209c-4.91 11.253-18.626 15.614-29.107 9.219-11.862-7.238-24.456-16.169-26.991-20.877-4.348-8.077-4.737-44.786-4.498-56.325.409-19.734 29.708-21.366 34.869 8.725 2.793 16.282 5.227 27.829 5.227 27.829l16.43 9.164c9.913 4.679 8.453 12.216 4.069 22.263z" fill="#f2b9a9"/><path d="m355.125 1075.381c-1.923 0-3.846-.735-5.311-2.205-2.898-2.907-28.435-28.88-32.536-45.393-3.751-15.094-12.116-65.904-12.47-68.06-.672-4.087 2.097-7.945 6.185-8.617 4.085-.673 7.945 2.098 8.616 6.185.086.522 8.62 52.366 12.226 66.876 2.341 9.423 18.787 28.566 28.604 38.42 2.923 2.934 2.915 7.683-.019 10.606-1.464 1.458-3.38 2.188-5.295 2.188z" fill="#de8f74"/><path d="m327.193 1078.539c-1.812 0-3.627-.652-5.067-1.973l-34.424-31.569c-.474-.434-.889-.927-1.236-1.467-8.889-13.805-24.203-79.614-25.92-87.072-.93-4.037 1.59-8.062 5.626-8.991 4.027-.931 8.063 1.588 8.991 5.626 6.101 26.498 17.681 71.234 23.474 81.58l33.628 30.839c3.053 2.799 3.258 7.544.458 10.597-1.479 1.613-3.501 2.431-5.529 2.431z" fill="#de8f74"/><path d="m512.123 1078.541c-2.953 0-5.752-1.755-6.942-4.657-9.938-24.236-58.306-39.579-76.104-43.446-4.047-.879-6.617-4.872-5.739-8.918s4.873-6.614 8.914-5.742c2.927.633 71.845 15.929 86.808 52.415 1.571 3.833-.262 8.213-4.094 9.785-.931.382-1.896.563-2.843.563z" fill="#de8f74"/><path d="m405.239 1078.538c-1.932 0-3.862-.741-5.329-2.222-2.594-2.62-25.528-26.054-31.801-42.023-6.438-16.393-5.11-35.681-5.051-36.494.303-4.131 3.905-7.235 8.028-6.931 4.128.303 7.229 3.892 6.932 8.019-.012.166-1.115 16.763 4.053 29.922 4.359 11.1 22.049 30.438 28.497 36.952 2.914 2.943 2.891 7.692-.053 10.606-1.462 1.448-3.37 2.17-5.276 2.17z" fill="#de8f74"/><path d="m1100.099 416.556s-.597 91.243-101.2 94.513c-101.46 3.297-71.839-74.294-71.839-74.294l-30.775 5.824 1.423 91.966 115.531 53.362 125.589-58.752 24.827-115.461-63.555 2.842z" fill="#41b30a"/><path d="m1247.165 842.618s180.755 50.075 291.027-13.912c0 0 10.672-4.618 6.475-25.184-4.197-20.565-91.517-353.196-211.332-377.919-161.648-33.354-86.169 417.017-86.171 417.015z" fill="#41b30a"/><path d="m1289.772 913.758c-.772 0-1.559-.12-2.333-.374-10.054-3.289-33.872-2.546-42.2-1.982-4.123.278-7.71-2.843-7.989-6.976-.28-4.133 2.843-7.709 6.976-7.99 3.362-.228 33.272-2.087 47.878 2.691 3.937 1.288 6.084 5.524 4.796 9.46-1.034 3.162-3.971 5.17-7.127 5.17z" fill="#de8f74"/><path d="m1254.267 845.991c-2.47 0-4.617-1.829-4.951-4.343-.129-.974-12.9-97.953-12.9-152.172 0-2.761 2.238-5 5-5s5 2.239 5 5c0 53.558 12.686 149.891 12.814 150.858.362 2.737-1.563 5.25-4.3 5.613-.223.03-.444.044-.663.044z" fill="#2a7700"/></svg>