<svg xmlns="http://www.w3.org/2000/svg" viewBox="0 0 3000 3000" width="3000" height="3000"><g transform="translate(267.39130434782606 546.5217391304348) rotate(0.0 1192.8260869565217 1063.0434782608695) scale(1.301717346419179 1.3018910060044597)"><svg width="1832.696" height="1633.076" viewBox="0 0 1832.696 1633.076"><g fill="#3971e5"><path d="M1708.249 1294.292c-24.02 102.34-89.2 194.75-178.25 252.72-31.77 20.68-65.7 36.77-101.12 49.11-4.73 1.66-9.48 3.25-14.27 4.76-.9.29-1.81.57-2.71.85-102.75 32.1-216.72 34.78-325.7 28.8-1.11-.06-2.22-.13-3.32-.2-2.97-.16-5.94-.33-8.91-.52-11.99-.71-23.99-1.51-35.97-2.41-16.55-1.23-33.09-2.63-49.61-4.21-4.55-.43-9.08-.87-13.62-1.33-.22-.02-.44-.05-.65-.07-2.28-.22-4.56-.45-6.84-.69-7.37-.77-14.74-1.56-22.1-2.4-4.82-.54-9.64-1.1-14.45-1.68a2445.526 2445.526 0 0 1-246.51-42.19c-2.22-.49-4.43-1-6.66-1.5-6.89-1.58-13.79-3.18-20.68-4.83-19.62-4.69-39.23-9.71-58.75-15.13-134.36-37.29-264.33-93.47-360.93-190.94-85.77-86.54-139.17-200.42-167.56-318.01-47.24-195.72-23-405.34 58.97-588.92 63.25-141.65 175.1-329.61 340.7-364.5 39.66-8.35 79.3-13.71 118.75-15.58 11.32-.55 22.63-.8 33.91-.75 11 .04 21.99.36 32.94.98a594.195 594.195 0 0 1 35.11 3.02c1.53.18 3.06.37 4.59.56h.01c.6.07 1.2.14 1.81.22 7.72.98 15.42 2.11 23.1 3.39 4.38.74 8.75 1.53 13.11 2.36 6.03 1.16 12.05 2.42 18.06 3.78.22.04.43.09.65.15 1.14.25 2.28.51 3.41.78l2.54.6c19.5 4.64 38.9 10.36 58.15 17.22a559.88 559.88 0 0 1 25.13 9.62c3.07 1.27 6.13 2.54 9.18 3.86l.05.02c8.58 3.68 17.05 7.55 25.44 11.61.09.04.17.08.26.13 8.95 4.32 17.77 8.86 26.49 13.57l.01.01c1.35.73 2.69 1.47 4.04 2.21l3.84 2.13c1.03.58 2.06 1.16 3.08 1.74a630.8 630.8 0 0 1 19.07 11.25c7.84 4.79 15.561 9.74 23.19 14.87 5.54 3.69 11.02 7.48 16.45 11.35l.01.01h.01c1.07.76 2.13 1.53 3.2 2.3l.01.01c6.21 4.45 12.34 9.03 18.39 13.7.39.3.77.59 1.15.89 6.94 5.37 13.78 10.88 20.53 16.51l.01.01c.96.79 1.92 1.59 2.87 2.39 2.91 2.45 5.8 4.93 8.67 7.44 3.98 3.45 7.92 6.95 11.82 10.5 3.57 3.24 7.1 6.52 10.61 9.83l.01.01c2.8 2.63 5.57 5.29 8.32 7.98 3.37 3.26 6.7 6.56 10 9.91.73.72 1.47 1.46 2.19 2.21 3.36 3.42 6.69 6.87 9.99 10.35 1.35 1.42 2.69 2.85 4.01 4.28 2.06 2.19 4.09 4.39 6.1 6.6 2.65 2.9 5.271 5.81 7.85 8.75 3.92 4.41 7.78 8.87 11.59 13.37 1.04 1.22 2.07 2.46 3.09 3.69 2.26 2.69 4.49 5.4 6.69 8.11 2.54 3.11 5.05 6.23 7.53 9.38a820.067 820.067 0 0 1 24.32 32.43l.01.01a820.45 820.45 0 0 1 14.22 20.62c.34.5.68 1 1 1.51v.01h.01c2.5 3.74 4.96 7.5 7.39 11.29 2.57 4 5.12 8.01 7.63 12.04 4.66 7.46 9.24 14.97 13.75 22.52 4 6.7 7.97 13.44 11.89 20.19.01.01.01.02.02.03 1.74 3 3.48 6 5.21 9 .42.75.86 1.49 1.27 2.22 1.57 2.72 3.13 5.44 4.69 8.17 1.11 1.93 2.21 3.86 3.31 5.79 3.43 6.01 6.86 12.02 10.28 18.04.34.6.69 1.19 1.021 1.8.32.54.63 1.07.93 1.61.02.03.04.07.06.1.88 1.54 1.75 3.06 2.63 4.59v.01c1.62 2.84 3.25 5.67 4.87 8.51 1.81 3.16 3.63 6.31 5.44 9.46l5.37 9.24c.8 1.37 1.59 2.74 2.4 4.1.14.23.27.46.41.69 3.12 5.33 6.28 10.64 9.48 15.94.78 1.31 1.58 2.63 2.37 3.94.5.82.99 1.64 1.49 2.45v.01c.57.94 1.14 1.86 1.7 2.79 5.99 9.75 12.08 19.42 18.38 28.97 3.16 4.8 6.37 9.58 9.63 14.32 5.04 7.33 10.21 14.58 15.52 21.72 1.59 2.14 3.2 4.26 4.81 6.38l.01.02c3.88 5.06 7.8 10.05 11.84 15 .32.39.64.8.97 1.2 2.88 3.52 5.81 7 8.79 10.44.48.57.97 1.14 1.47 1.71.04.05.08.1.13.15.02.02.03.04.05.06l.01.01c.46.53.92 1.06 1.38 1.58.44.51.88 1.02 1.33 1.52.47.54.95 1.08 1.42 1.62.01.01.02.03.04.04 2.91 3.29 5.86 6.55 8.84 9.79.3.33.61.66.92.99 1.05 1.14 2.1 2.27 3.16 3.4.49.52.97 1.04 1.47 1.55.91.98 1.85 1.96 2.77 2.93l1.41 1.47c1.27 1.33 2.54 2.65 3.83 3.97 1.22 1.27 2.46 2.54 3.71 3.79q0 .01.01.02c.5.51 1.01 1.02 1.51 1.51 3.56 3.61 7.16 7.19 10.79 10.72 24.09 23.49 49.55 45.8 75.25 67.86.74.64 1.48 1.27 2.23 1.91q.01 0 .01.01c6.48 5.56 12.97 11.1 19.46 16.65 0 .01.01.01.01.01 8.65 7.4 17.3 14.8 25.89 22.26 2.14 1.84 4.28 3.7 6.41 5.56 1.99 1.74 3.99 3.48 5.97 5.24 9.26 8.12 18.42 16.31 27.43 24.61 3.44 3.17 6.86 6.35 10.26 9.56l.17.17c6.34 5.98 12.6 12.04 18.75 18.17.38.38.76.76 1.14 1.15.21.21.42.42.62.63.56.54 1.09 1.09 1.62 1.63 1.01 1.01 2.01 2.02 3.01 3.04.96.99 1.92 1.98 2.89 2.97.4.41.78.81 1.17 1.22.71.73 1.41 1.46 2.11 2.19.47.49.939.98 1.39 1.46 2.35 2.46 4.66 4.93 6.96 7.41 24.06 26.01 45.94 53.7 64.25 84.27 54.19 90.5 71.58 201.66 47.55 303.99zm-150.202 322.218s222.87-129.951 237.94-423.398c0 0 174.648 371.004-237.94 423.398zM425.733 3.553S124.299 87.202 4.491 447.65c0 0-78.534-494.09 421.242-444.096z"/></g></svg></g><g transform="translate(674.3478260869565 383.47826086956525) rotate(0.0 904.5652173913045 1145.217391304348) scale(1.3017499573904485 1.3023001889447718)"><svg width="1389.768" height="1758.761" viewBox="0 0 1389.768 1758.761"><clipPath id="a"><ellipse cx="1209.08" cy="219.786" rx="34.952" ry="31.162" transform="matrix(.55186421 -.83393398 .83393398 .55186421 358.552 1106.793)"/></clipPath><clipPath id="b"><path d="M1106.345 123.666c-13.259 16.808-28.764 36.063-43.222 55.254-26.049 34.575 47.125 48.696 65.413 21.823 36.468-53.588-13.914-87.569-22.191-77.077z"/></clipPath><clipPath id="c"><ellipse cx="1101.633" cy="161.246" rx="31.357" ry="27.957" transform="matrix(.55186421 -.83393398 .83393398 .55186421 359.22 990.955)"/></clipPath><path d="m1100.832 1117.517-9.454 115.024s-291.001 178.414-461.584 153.049c-170.582-25.364-212.785-218.103-212.785-218.103l35.717-124.943c210.545-27.451 427.318 4.58 648.106 74.972z" fill="#55d6f5"/><path d="M773.066 1299.307c-2.63 22.01-5.51 47.45-8.56 75.4-11.61 106.25-25.74 248.88-38.46 378.38-16.55-1.23-33.09-2.63-49.61-4.21-4.55-.43-9.08-.87-13.62-1.33-.22-.02-.44-.05-.65-.07-2.28-.22-4.56-.45-6.84-.69-7.37-.77-14.74-1.56-22.1-2.4-4.82-.54-9.64-1.1-14.45-1.68a2445.526 2445.526 0 0 1-246.51-42.19c-2.22-.49-4.43-1-6.66-1.5-6.89-1.58-13.79-3.18-20.68-4.83-19.62-4.69-39.23-9.71-58.75-15.13 17.08-144.96 53.74-291.64 99.27-424.88.02-.06.04-.11.06-.17 3.36-9.82 6.76-19.56 10.21-29.22.02-.05.04-.11.06-.16.03-.08.06-.17.09-.25.02-.07.04-.13.07-.2 1.14-3.2 2.29-6.4 3.43-9.58.03-.07.05-.14.08-.21 3.14-8.65 6.3-17.24 9.51-25.75v-.02c.02-.06.05-.12.07-.18 0-.01 0-.02.01-.03.98-2.63 1.97-5.25 2.97-7.86l.09-.24c1.63-4.29 3.26-8.57 4.91-12.82a50.346 50.346 0 0 1 9.52-15.51h.01c5.36-5.99 12.21-10.84 20.24-14.65.01 0 .02-.01.03-.01.1-.05.21-.1.31-.15v-.01a91.16 91.16 0 0 1 8.12-3.31 97.002 97.002 0 0 1 7.74-2.39h.01c.28-.08.55-.16.83-.23h.03c6.44-1.7 13.32-2.93 20.62-3.72.77-.08 1.53-.16 2.31-.23 6.11-.58 12.47-.86 19.04-.86 20.72.01 43.48 2.85 66.71 8.07l2.23.51c33.85 7.81 68.59 20.64 99.37 37.11l2.28 1.23c16.29 8.86 31.43 18.74 44.67 29.44 2.92 2.36 5.75 4.76 8.48 7.2 11.44 10.21 21.12 21.07 28.48 32.43l.33.51c11.4 17.81 17.04 36.83 14.7 56.39z" fill="#55d6f5"/><path d="M1099.946 1727.417c-102.75 32.1-216.72 34.78-325.7 28.8-1.11-.06-2.22-.13-3.32-.2-2.97-.16-5.94-.33-8.91-.52-11.99-.71-23.99-1.51-35.97-2.41-16.55-1.23-33.09-2.63-49.61-4.21-4.55-.43-9.08-.87-13.62-1.33-.22-.02-.44-.05-.65-.07-2.28-.22-4.56-.45-6.84-.69-7.37-.77-14.74-1.56-22.1-2.4-6.49-117.53-4.46-235.83 4.62-333.6l.03-.22c.74-8.04 1.54-15.94 2.38-23.69 3.28-30.27 7.29-58.23 11.95-83.19 3.86-20.62 11.64-38.93 22.48-55.05.11-.17.23-.34.34-.51 7.68-11.32 16.89-21.56 27.3-30.76 5.88-5.19 12.15-10.05 18.75-14.59 3.89-2.68 7.9-5.24 12.01-7.69 15.18-9.06 31.79-16.62 49.29-22.75.67-.24 1.35-.47 2.021-.69 23.61-8.13 48.76-13.69 74.14-16.9.71-.09 1.41-.18 2.12-.26.27-.04.54-.07.81-.1h.01c3.57-.44 7.15-.82 10.72-1.14.73-.08 1.46-.15 2.2-.21 1.01-.09 2.02-.17 3.03-.25.72-.06 1.44-.12 2.16-.17 69.38-5.31 137.55 6.46 177.1 31h.01c.42.26.83.52 1.24.79 13.99 8.91 24.24 19.46 29.51 31.46.12.28.24.55.35.83.53 1.27 1 2.56 1.42 3.85.08.24.15.47.22.71v.01c1.11 3.64 1.76 7.4 1.94 11.27 1.94 42.03 2.84 91.43 3.4 144.49 1.16 112.08.75 240.51 5.17 350.39z" fill="#55d6f5"/><path d="M618.769 1750.21a7.5 7.5 0 0 1-7.484-7.108c-4.75-90.43.788-186.978 19.118-333.247l.015-.113.018-.124c.971-7.766 1.981-15.642 3.021-23.646 3.214-24.819 6.917-52.078 11.32-83.33a7.502 7.502 0 1 1 14.858 2.094c-4.396 31.196-8.092 58.399-11.299 83.166a4775.2 4775.2 0 0 0-3.015 23.598l-.028.202-.003.02c-18.212 145.331-23.723 241.11-19.022 330.595a7.5 7.5 0 0 1-7.498 7.896z" fill="#309cb5"/><path d="M845.105 365.752c-49.044 6.258-265.165 300.786-307.119 326.631s5.017 226.331 102.506 201.499c106.792-27.201 212.868-226.93 245.716-272.571s-41.103-255.559-41.103-255.559zm141.297 16.032c-8.927 15.195-19.583 74.319 36.863 104.9 64.124 34.741 143.024 27.245 208.829-6.276l-45.414-23.902-148.589-60.157z" fill="#a66036"/><path d="M537.986 692.383c-61.445 21.895-261.66-68.245-294.701-72.75-76.272-10.398-144.785 137.986-51.906 178.412 98.457 42.853 308.481 136.24 449.113 95.838 90.289-25.939-102.506-201.499-102.506-201.499z" fill="#a66036"/><path d="M845.105 365.752c-83.009 12.511-321.354 287.314-321.354 287.314 0 104.499 192.064 187.279 155.63 267.662 0 0 157.04-164.128 207.651-262.297 52.787-102.39 18.086-295.075-41.928-292.679z" fill="#41b30a"/><path d="M1024.721 390.735c-33.93-10.067-147.801-30.948-179.399-24.983-27.277 5.149-344.513 421.049-382.809 637.87-49.784 65.643-87.518 145.141-45.503 163.867 37.681-124.347 362.07-43.936 487.627 1.288 136.349 49.111 170.821 205.004 199.388 216.207 28.567 10.082 34.443-108.565 34.443-108.565s22.034-16.631 20.772-36.587c-1.262-19.957-27.424-120.099-20.772-151.697s222.939-518.393 186.173-544.782c-54.926-39.423-130.022-92.117-130.022-92.117l-169.896-60.5z" fill="#41b30a"/><path d="M1324.639 543.352c88.689 101.659-105.367 528.002-210.874 608.468-78.938 60.203-224.202-163.912-175.216-216.665 48.985-52.753 151.84-233.622 151.84-233.622 74.095-92.918 150.174-145.675 234.25-158.18z" fill="#a66036"/><path d="M1113.765 1151.82c-108.933 80.722-348.354 90.407-465.359 97.97-112.823 7.293-99.854-190.289 9.42-207.245 109.275-16.956 227.97-69.71 280.723-107.391s231.186 175.191 175.216 216.665z" fill="#a66036"/><path d="M657.826 1042.545c-41.833 2.87-144.562 22.388-176.407 26.497-31.846 4.109-44.173 185.938 0 185.938s114.94-3.624 166.987-5.19c52.047-1.567 9.42-207.245 9.42-207.245z" fill="#a66036"/><path d="M649.837 1042.545c-19.344-16.541-46.161-42.701-60.967-49.669s-103.989-11.466-127.602-15.26c-27.241-4.378-44.258 39.785-3.768 49.966 40.798 10.258 56.571 9.756 68.707 34.375s145.25-.925 123.63-19.412zm-169.813 89.212c-15.276-.359-80.485-3.135-96.175-3.41-14.667-.257-64.505-6.209-79.279-9.787-34.7-8.405-52.296 36.441-14.008 48.093 18.793 5.719 61.719 15.918 84.432 18.99 17.216 2.328 101.404 6.691 101.404 6.691 5.391-16.552 5.29-39.878 3.626-60.577zm-13.641 82.874c-10.577.283-47.746.341-61.388 0s-42.626-3.458-51.839-4.434c-25.764-2.728-31.376 35.469-3.41 39.651 20.712 3.097 41.608 5.105 57.296 5.132 18.075.032 64.773.082 74.378 0 12.256-.104-15.036-40.349-15.036-40.349z" fill="#a66036"/><path d="M470.475 1181.209c-8.526 1.364-76.089-1.249-85.979-2.613s-48.254-8.36-62.376-10.706c-30.694-5.098-39.561 39.92-8.185 45.649 25.147 4.592 53.246 8.256 69.915 10.038 15.65 1.673 76.394 5.719 89.013 2.649 12.619-3.069-2.387-45.018-2.387-45.018zm10.943-112.167c-33.189 1.363-67.028 3.967-86.663 3.076-19.636-.891-49.472-6.56-70.566-13.213-37.362-11.785-51.752 33.68-18.894 49.288s58.958 23.822 80.82 24.644c21.862.821 82.057 6.424 93.227 6.424s2.076-70.218 2.076-70.218z" fill="#a66036"/><path d="M479.349 1146.761a7.14 7.14 0 0 1-.438-.013c-17.994-1.036-61.528-4.112-93.341-6.431-17.737-1.293-50.764-9.144-52.161-9.477a7.502 7.502 0 0 1 3.483-14.594c.331.079 33.242 7.901 49.769 9.105 31.76 2.315 75.203 5.386 93.113 6.417a7.502 7.502 0 0 1-.424 14.991zm-2.944 53.075c-.137 0-.272-.004-.41-.011l-1.464-.079c-59.666-3.205-92.613-5.396-100.724-6.696-12.08-1.938-67.745-14.418-70.109-14.948a7.503 7.503 0 0 1-5.677-8.963c.906-4.042 4.914-6.592 8.962-5.677.574.128 57.573 12.909 69.199 14.773 5.144.825 26.52 2.627 99.153 6.529l1.466.078a7.502 7.502 0 0 1-.396 14.994zm-6.8 33.895c-58.771 0-103.134-3.014-135.551-9.202a7.503 7.503 0 0 1 2.814-14.738c32.066 6.123 76.579 9.051 135.98 8.934h.014a7.503 7.503 0 0 1 .014 15.004l-3.271.003z" fill="#773a12"/><path d="M1324.639 543.352c50.03 41.707 66.482 138.516 34.665 232.294-31.818 93.779-139.342 403.793-211.222 341.871-53.403-46.006-133.746-135.08-182.585-169.024-13.74-9.549-17.433-28.273-8.442-42.385l130.334-204.576c61.412-123.443 139.658-179.52 237.251-158.18z" fill="#41b30a"/><g fill="#a66036"><path d="M243.285 619.633c-25.469-12.698-94.219-31.606-124.681-49.556-18.854-11.11-91.646 133.16-71.245 152.726 24.336 23.339 100.34 72.948 144.02 75.242 43.666 2.293 51.906-178.412 51.906-178.412z"/><path d="M243.286 619.633c-3.975-14.368-25.173-53.167-43.931-72.035-18.185-18.292-54.284-38.7-66.866-46.082-25.514-14.967-44.877 21.841-18.038 40.966 25.086 17.877 47.068 34.099 47.068 34.099s-32.681 80.9 29.836 117.86c34.75 20.544 48.613-35.984 51.931-74.809zm-178.83 60.332c-10.239-5.801-33.671-21.14-40.208-26.175-11.449-8.82-34.978 21.242-16.819 40.348 9.933 10.451 27.603 19.94 39.931 28.665 18.367 13 17.096-42.838 17.096-42.838z"/><path d="M5.962 694.24c11.158 15.642 30.066 28.913 40.698 37.035 21.946 16.765 44.306-18.474 21.475-36.929-16.451-13.298-33.32-35.351-43.888-40.557s-35.662 16.091-18.286 40.45z"/><path d="M74.478 643.79c-13.82-10.486-32.571-23.781-45.815-30.189S.316 643.44 15.272 654.743s35.324 24.515 43.5 30.346 15.707-41.299 15.707-41.299z"/><path d="M10.142 656.47c8.412 13.556 38.723 35.14 55.905 46.397 21.448 14.051 42.892-25.994 19.411-41.575-21.768-14.444-44.323-45.801-56.796-47.692s-32.934 19.644-18.521 42.869z"/><path d="M89.96 601.098c-11.803-11.979-32.124-26.633-41.077-33.959-15.17-12.414-38.389 15.053-25.075 35.814 11.279 17.588 37.445 37.049 45.967 43.15 7.399 5.297 20.185-45.005 20.185-45.005z"/><path d="M21.05 609.302c10.077 18.238 35.482 46.873 42.458 55.549 16.011 19.914 51.615-4.249 37.297-26.109-12.182-18.598-40.845-58.904-51.921-71.603S4.841 579.966 21.05 609.302z"/><path d="M118.605 570.077c-7.426-7.491-25.277-28.482-42.247-34.945-19.594-7.463-38.369 9.411-27.474 32.008 6.296 13.059 30.228 34.441 37.322 40.221 15.733 12.817 32.399-37.284 32.399-37.284z"/><path d="M43.725 550.434c-10.34 19.115 27.038 64.724 45.065 85.225 19.321 21.974 50.286-6.186 35.056-28.673-14.128-20.859-38.185-66.423-47.48-71.872-16.587-9.725-26.358 3.706-32.641 15.32z"/></g><path d="M105.17 650.724c-7.291 0-14.993-2.823-21.779-9.856-10.443-10.823-41.92-48.076-49.31-76.322a7.502 7.502 0 0 1 14.515-3.797c5.497 21.015 30.455 54.015 45.591 69.701 7.436 7.705 15.566 5.903 20.697 1.647 5.509-4.568 8.523-12.762 2.842-20.77-10.555-14.876-26.98-41.365-27.674-42.485a7.502 7.502 0 0 1 12.754-7.902c.168.271 16.874 27.213 27.156 41.705 10.687 15.061 5.321 32.026-5.501 41.001-5.134 4.257-12.008 7.077-19.292 7.077z" fill="#773a12"/><path d="M80.994 679.885c-8.689 0-17.247-3.564-23.059-10.011-7.521-8.344-34.591-43.133-40.792-51.31a7.502 7.502 0 0 1 11.953-9.066c7.126 9.394 33.187 42.791 39.983 50.331 4.064 4.507 10.833 6.233 16.847 4.289 6.088-1.967 9.896-7.226 10.723-14.807.451-4.118 4.145-7.097 8.271-6.644a7.503 7.503 0 0 1 6.645 8.271c-1.463 13.412-9.323 23.676-21.026 27.457a31.063 31.063 0 0 1-9.545 1.491z" fill="#773a12"/><path d="M76.251 713.258c-21.258 0-67.221-46.572-71.798-51.897a7.501 7.501 0 1 1 11.377-9.78c4.026 4.683 16.352 16.802 30.021 27.94 18.314 14.924 27.695 18.757 30.382 18.734 5.761-.134 8.898-4.104 10.517-7.411 3.153-6.442 2.493-13.958.072-17.229a7.502 7.502 0 0 1 12.06-8.926c6.157 8.319 6.71 21.787 1.344 32.75-4.803 9.812-13.42 15.576-23.644 15.814a18.18 18.18 0 0 1-.331.003zm115.097-11.313a7.474 7.474 0 0 1-4.082-1.213c-36.244-23.561-47.019-76.955-36.494-114.963a7.502 7.502 0 0 1 14.459 4.004c-8.886 32.092.139 78.831 30.213 98.38a7.501 7.501 0 0 1-4.096 13.793z" fill="#773a12"/><path d="M64.591 741.979a7.504 7.504 0 0 1-3.04-14.364c7.103-3.144 9.115-8.786 7.428-20.819a7.5 7.5 0 0 1 6.387-8.471c4.097-.567 7.896 2.283 8.471 6.387.962 6.857 3.89 27.726-16.213 36.623a7.474 7.474 0 0 1-3.032.644z" fill="#773a12"/><path d="m1211.804 235.603 7.344 4.24c40.366 23.305 54.217 74.998 30.912 115.363l-64.488 111.696c-23.305 40.366-74.998 54.216-115.363 30.911l-19.87-11.471c-33.452-19.314-44.931-62.154-25.617-95.607l71.719-124.22c23.305-40.367 74.998-54.217 115.363-30.912z" fill="#a66036"/><path d="M1276.98 95.662c-45.334-30.762-117.815-43.76-149.233 0-31.417 43.76-113.327 134.646-113.327 171.674 0 67.87 80.387 114.449 154.843 114.449 78.029 0 124.844-70.61 146.441-105.924 31.321-51.215 24.111-137.561-38.724-180.199z" fill="#a66036"/><path d="M1174.102 83.948c-17.786-1.525-39.04-10.24-46.08-34.56-6.8-23.49 1.92-43.52 12.8-40.32s12.16 16.64 28.16 14.08 28.663-24.374 42.103-23.094c13.44 1.28 23.556 17.974 33.806 19.894 10.249 1.92 14.729-8.96 25.609-1.28s15.465 28.8 27.625 33.92 35.2-1.92 42.88 3.84 7.68 33.92 12.16 37.12 23.04-.64 24.96 12.8-3.84 35.2 0 42.88 12.8 11.52 11.52 17.92-14.72 13.44-15.36 19.84 1.28 27.622-2.56 33.382-14.08 5.556-14.72 13.978-15.36 67.2-49.28 86.4-36.784-2.399-36.632-13.359c.152-10.961 15.512-73.68 23.192-92.88 0 0-8.32-35.84-.64-58.88 0 0-35.84-21.76-43.529-54.4-3.694-15.678-53.614-15.36-76.014-17.28z" fill="#111"/><ellipse cx="1209.08" cy="219.786" fill="#fff" rx="34.952" ry="31.162" transform="matrix(.55186421 -.83393398 .83393398 .55186421 358.552 1106.793)"/><g clip-path="url(#a)"><ellipse cx="1211.17" cy="219.786" fill="#111" rx="28.469" ry="19.097" transform="matrix(.55186421 -.83393398 .83393398 .55186421 359.489 1108.537)"/></g><path d="M1275.596 299.639c23.775-6.205 46.704.932 49.455 28.808 3.007 30.474-65.226 64.158-81.933 28.4-11.249-24.075 13.609-52.283 32.478-57.208z" fill="#a66036"/><path d="M1258.337 346.053a7.502 7.502 0 0 1-4.935-13.154c7.88-6.876 29.004-21.992 54.944-13.866a7.501 7.501 0 0 1 4.915 9.401 7.5 7.5 0 0 1-9.401 4.916c-18.695-5.858-34.618 5.638-40.593 10.854a7.474 7.474 0 0 1-4.93 1.85z" fill="#773a12"/><path d="M1283.713 352.927a7.5 7.5 0 0 1-7.442-6.644l-2.258-19.593a7.502 7.502 0 0 1 6.594-8.312c4.102-.471 7.837 2.478 8.311 6.594l2.258 19.593a7.502 7.502 0 0 1-7.462 8.362z" fill="#773a12"/><path d="M1213.743 157.98c-17.231-3.379-13.318-22.046 1.5-23.432 22.9-2.142 56.802 26.698 56.802 54.424 0 9.131-11.104 8.286-14.35 0-5.49-14.015-31.98-28.644-43.952-30.992zm-55.168-50.3c13.515 8.328 3.463 29.211-7.602 21.962-12.248-8.024-39.236-12.874-46.415-10.986-7.18 1.888-10.175-6.009-1.731-10.976 14.36-8.447 42.372-8.243 55.749 0z" fill="#111"/><path d="M1146.4 232.149a7.503 7.503 0 0 1-7.304-9.24c1.411-5.935-3.996-12.169-9.934-14.268-5.452-1.929-9.539-.138-12.147 5.319a7.501 7.501 0 1 1-13.535-6.473c5.926-12.387 17.97-17.487 30.684-12.991 12.294 4.346 22.96 17.461 19.528 31.886a7.503 7.503 0 0 1-7.292 5.767z" fill="#773a12"/><path d="M1110.097 284.518c9.936 4.015 18.374 7.129 26.817 7.866 7.663.669 19.433-2.414 26.234-4.459 9.264-2.786 13.85 7.172 10.163 14.166-4.894 9.281-18.353 17.152-35.048 16.905-17.03-.251-30.653-10.841-35.586-23.05-4.216-10.435 2.207-13.534 7.42-11.428z" fill="#fff"/><path d="M1163.892 389.392c-44.847 0-91.702-20.677-115.864-41.997a7.502 7.502 0 0 1 9.926-11.25c22.38 19.747 68.887 39.829 111.01 38.144 4.173-.171 7.631 3.057 7.796 7.196s-3.057 7.63-7.196 7.795c-1.886.076-3.777.112-5.671.112z" fill="#773a12"/><g clip-path="url(#b)"><ellipse cx="1101.633" cy="161.246" fill="#fff" rx="31.357" ry="27.957" transform="matrix(.55186421 -.83393398 .83393398 .55186421 359.22 990.955)"/><g clip-path="url(#c)"><ellipse cx="1109.38" cy="164.206" fill="#111" rx="24.377" ry="16.352" transform="matrix(.55186421 -.83393398 .83393398 .55186421 360.222 998.742)"/></g></g><path d="M1102.4 662.246s125.753-174.191 223.56-92.219c97.808 81.972 13.041 194.684 13.041 194.684s-18.63 239.396-78.246 271.998c0 0-25.323 200.395-114.486 177.075s-209.876 108.367-274.347 9.602c0 0-28.204-193.266-85.058-214.48 0 0 33.814-67.334 165.369-88.179L1102.4 662.245zM726.851 445.802s164.192-138.554 239.238-35.336-34.492 192.047-34.492 192.047-76.048 227.759-141.785 244.955c0 0-73.097 188.298-153.959 144.081s-241.331-16.708-279.967-128.146c0 0 81.139-164.595 26.532-196.699 0 0 3.453-18.111 136.14-6.478L726.85 445.802z" fill="#41b30a"/><path d="M1321.997 888.648a7.486 7.486 0 0 1-5.556-2.459c-60.783-66.975-250.715-129.101-252.626-129.721a7.5 7.5 0 1 1 4.625-14.269c7.959 2.58 195.646 63.982 259.108 133.909a7.499 7.499 0 0 1-.514 10.594 7.47 7.47 0 0 1-5.038 1.946zm-34.674 117.125a7.483 7.483 0 0 1-5.556-2.46c-60.958-67.167-272.345-149.999-274.473-150.827a7.499 7.499 0 0 1-4.267-9.71 7.498 7.498 0 0 1 9.71-4.267c8.824 3.437 216.828 84.966 280.137 154.725a7.499 7.499 0 0 1-.514 10.594 7.47 7.47 0 0 1-5.038 1.946zm12.84-52.684a7.499 7.499 0 0 1-7.49-7.243l-1.387-40.426-41.143 14.536a7.502 7.502 0 0 1-9.932-6.076l-4.244-31.708-35.841 12.299a7.498 7.498 0 0 1-9.488-4.545l-11.713-32.419-35.652 11.553a7.498 7.498 0 0 1-9.431-4.773l-12.521-37.748-32.375 15.196a7.503 7.503 0 0 1-10.685-6.621l-.803-35.618-46.706 21.76a7.5 7.5 0 1 1-6.334-13.597l57.112-26.609a7.5 7.5 0 0 1 10.665 6.63l.802 35.582 29.597-13.891a7.499 7.499 0 0 1 10.304 4.428l12.835 38.695L1181.202 841a7.502 7.502 0 0 1 9.365 4.586l11.67 32.301 37.515-12.874a7.5 7.5 0 0 1 9.868 6.099l4.233 31.624 42.079-14.867a7.5 7.5 0 0 1 9.994 6.815l1.737 50.648a7.5 7.5 0 0 1-7.501 7.756zM601.622 629.057a7.497 7.497 0 0 1-7.427-6.458l-4.953-35.28-43.848 27.061a7.5 7.5 0 1 1-7.877-12.764l53.617-33.09a7.496 7.496 0 0 1 11.365 5.34l4.948 35.245 27.773-17.249a7.499 7.499 0 0 1 10.752 3.195l9.645 20.634a7.5 7.5 0 0 1-13.59 6.351l-6.067-12.983-30.382 18.869a7.491 7.491 0 0 1-3.957 1.129zM1065.1 732.739a7.47 7.47 0 0 1-4.925-1.846c-68.582-59.776-359.086-158.74-362.013-159.732a7.5 7.5 0 0 1 4.819-14.205c12.063 4.092 296.248 100.919 367.05 162.63a7.501 7.501 0 0 1-4.93 13.154zm-84.731 143.228a7.482 7.482 0 0 1-5.343-2.233c-13.854-10.759-232.715-104.301-376.867-164.727a7.5 7.5 0 0 1 5.798-13.834c.924.387 93.425 39.173 185.959 78.874 188.739 80.976 193.542 86.53 196.122 89.514a7.499 7.499 0 0 1-.768 10.579 7.469 7.469 0 0 1-4.902 1.827zm-5.23-2.144h.01zm-.445-.45z" fill="#e1e3e3"/><path d="M1012.483 823.299a7.503 7.503 0 0 1-7.429-6.542l-6.29-48.819-43.971 23.929a7.502 7.502 0 0 1-10.976-5.309l-8.84-51.106-44.571 16.759a7.498 7.498 0 0 1-10.139-7.021v-39.946l-51.47 26.656a7.5 7.5 0 0 1-10.95-6.66v-46.28l-50.791 25.345a7.5 7.5 0 0 1-10.715-5.3l-8.026-41.901-43.611 28.802a7.5 7.5 0 0 1-11.633-6.258v-51.612l-50.989 31.488a7.5 7.5 0 0 1-7.881-12.762l62.43-38.554a7.5 7.5 0 0 1 11.441 6.382v51.117l41.361-27.316a7.5 7.5 0 0 1 11.499 4.847l8.281 43.228 52.786-26.341a7.502 7.502 0 0 1 10.849 6.711v46.074l51.47-26.656a7.5 7.5 0 0 1 10.95 6.66v41.444l42.917-16.137a7.502 7.502 0 0 1 10.03 5.741l8.601 49.727 44.403-24.164a7.501 7.501 0 0 1 11.023 5.629l7.689 59.686a7.5 7.5 0 0 1-7.448 8.46z" fill="#e1e3e3"/><path d="M952.227 928.228a7.501 7.501 0 0 1-6.003-11.989c9.732-13.029 123.064-191.019 134.251-217.615a7.5 7.5 0 0 1 13.826 5.815c-11.93 28.364-125.914 207.193-136.06 220.776a7.488 7.488 0 0 1-6.015 3.012z" fill="#2a7700"/><path d="M674.123 577.257a7.468 7.468 0 0 1-4.745-1.695c-18.483-15.124-53.146-20.389-53.494-20.44a7.501 7.501 0 0 1 2.18-14.841c1.586.233 39.092 5.899 60.813 23.672a7.5 7.5 0 0 1-4.753 13.304zm-65.662 94.751a7.457 7.457 0 0 1-3.84-1.063c-11.716-6.999-65.663-30.942-66.206-31.183a7.5 7.5 0 0 1-3.816-9.896 7.497 7.497 0 0 1 9.896-3.816c2.254.999 55.328 24.556 67.819 32.018a7.5 7.5 0 0 1-3.853 13.94z" fill="#e1e3e3"/><path d="M465.587 979.51a7.502 7.502 0 0 1-7.485-7.145c-.239-4.988-.873-18.236 68.283-154.493 33.776-66.548 68.147-130.743 68.49-131.384 8.546-15.707 117.155-171.221 137.7-198.668a7.5 7.5 0 1 1 12.008 8.989c-20.421 27.284-128.137 181.419-136.509 196.807-.318.595-34.497 64.431-68.138 130.7-62.412 122.946-66.948 143.859-66.852 147.34a7.5 7.5 0 0 1-7.498 7.856z" fill="#2a7700"/><path d="M737.566 1024.715s61.722 173.202 52.952 214.859l99.331-12.23s-23.542-225.273-102.985-218.438l-49.298 15.808zM342.973 652.586s-19.323 154.231-47.046 186.538l84.014 60.988s89.47-197.56 16.529-229.772z" fill="#41b30a"/><path d="M873.93 1232.045a7.502 7.502 0 0 1-7.499-7.83c3.89-88.296-13.961-140.145-29.62-168.093-16.768-29.926-34.621-39.438-34.799-39.529l-.384-.21c-12.281-7.202-42.146 5.901-58.085 15.851a7.5 7.5 0 0 1-10.333-2.387 7.498 7.498 0 0 1 2.381-10.332c4.992-3.123 49.367-30.05 73.458-16.169 2.586 1.376 21.97 12.448 40.046 44.027 24.731 43.207 35.606 102.928 32.322 177.502a7.501 7.501 0 0 1-7.487 7.17z" fill="#2a7700"/><path d="M805.425 1017.394a7.513 7.513 0 0 1-1.539-.16c-4.04-.847-6.64-4.781-5.813-8.825.186-.908 4.799-22.479 26.752-44.832 19.767-20.127 58.188-44.997 128.967-49.178a7.5 7.5 0 1 1 .885 14.973c-51.742 3.057-92.694 18.268-118.429 43.988-19.267 19.256-23.446 37.904-23.486 38.09a7.524 7.524 0 0 1-7.337 5.944zm206.353 234.49a7.5 7.5 0 0 1-6.698-4.113 7.498 7.498 0 0 1 3.298-10.075c2.801-1.419 69.516-34.685 153.297-28.368l.955.071.501.179c1.477.278 20.909 3.201 44.985-29.567a7.5 7.5 0 0 1 12.088 8.88c-28.725 39.096-54.703 36.447-60.171 35.355-79.24-5.81-144.229 26.503-144.877 26.831a7.486 7.486 0 0 1-3.378.807zm241.589-142.121a7.5 7.5 0 0 1-7.392-8.817c6.323-35.456 9.014-90.835 9.04-91.391a7.49 7.49 0 0 1 7.848-7.135 7.499 7.499 0 0 1 7.135 7.848c-.109 2.306-2.761 56.894-9.255 93.311a7.504 7.504 0 0 1-7.375 6.185zm-108.901 194.43a7.499 7.499 0 0 1-7.5-7.5c0-9.603-9.927-31.558-16.184-43.142a7.5 7.5 0 1 1 13.197-7.129c1.841 3.408 17.986 33.773 17.986 50.271 0 4.143-3.357 7.5-7.5 7.5zm-788.58-414.042a7.47 7.47 0 0 1-5.218-2.114 7.499 7.499 0 0 1-.167-10.605c9.795-10.109 21.042-46.19 30.085-96.519 7.862-43.754 11.953-86.585 10.842-99.138-1.499-16.94-36.468-21.447-48.6-21.69a7.504 7.504 0 0 1-7.352-7.643 7.497 7.497 0 0 1 7.635-7.354c2.459.045 60.261 1.502 63.258 35.365 1.39 15.696-3.45 60.988-11.02 103.113-6.957 38.72-18.517 88.247-34.077 104.304a7.479 7.479 0 0 1-5.387 2.281zM554.791 673.78c-1.07 0-2.156-.23-3.188-.716-7.963-3.747-39.525-6.432-57.551-7.245a7.499 7.499 0 0 1-7.154-7.83c.186-4.138 3.691-7.353 7.83-7.154 8.285.373 50.275 2.545 63.262 8.657a7.5 7.5 0 0 1-3.198 14.288z" fill="#2a7700"/><path d="M995.804 412.916s13.854-43.295 25.19-46.208c11.335-2.913 16.313 0 16.313 0s-4.361 54.659 61.098 75.971 103.12-3.406 103.12-3.406 10.545-1.929 10.545 6.32 9.641 88.423-52.773 84.871-199.112-34.155-163.492-117.549z" fill="#41b30a"/><path d="M1098.801 576.117a8.53 8.53 0 0 1-6.608-3.137l-23.977-29.398-34.898 12.863a8.526 8.526 0 0 1-10.677-4.4l-16.109-34.582-45.63 1.398c-2.594.062-5.089-1.03-6.768-3.012a8.523 8.523 0 0 1-1.855-7.171l6.003-30.213-36.563-13.55a8.528 8.528 0 0 1-2.546-14.502l30.76-26.038-19.919-18.913a8.528 8.528 0 0 1 3.738-14.437l18.358-4.744-11.582-6.633a8.526 8.526 0 0 1 8.475-14.797l29.762 17.045a8.527 8.527 0 0 1-2.104 15.653l-23.752 6.137 15.661 14.87a8.524 8.524 0 0 1-.363 12.69l-26.877 22.751 29.693 11.004a8.524 8.524 0 0 1 5.399 9.656l-5.331 26.832 40.534-1.242a8.533 8.533 0 0 1 7.989 4.922l15.169 32.562 33.244-12.253a8.53 8.53 0 0 1 9.556 2.611l21.859 26.802 19.594-19.59a8.524 8.524 0 0 1 9.64-1.694l33.126 15.487 8.007-17.127a8.519 8.519 0 0 1 9.462-4.736l30.718 6.396 7.605-33.669a8.529 8.529 0 0 1 10.485-6.367l44.808 11.783c4.555 1.198 7.275 5.86 6.077 10.414s-5.864 7.273-10.413 6.077l-36.269-9.538-7.507 33.233a8.523 8.523 0 0 1-10.055 6.468l-32.321-6.729-8.761 18.739a8.528 8.528 0 0 1-11.335 4.113l-35.436-16.567-22.04 22.036a8.525 8.525 0 0 1-6.028 2.497z" fill="#e1e3e3"/><path d="M1131.625 520.299c-10.357 0-21.716-1.44-34.051-4.912-41.777-11.756-67.326-25.679-82.839-45.143-16.134-20.244-21.338-46.933-16.376-83.991a7.495 7.495 0 0 1 8.429-6.438 7.5 7.5 0 0 1 6.438 8.429c-4.442 33.182-.359 55.588 13.239 72.651 13.429 16.849 36.612 29.202 75.171 40.052 29.249 8.23 55.647 4.938 78.469-9.785 17.278-11.147 26.032-25.044 26.118-25.183 2.183-3.511 6.8-4.604 10.317-2.432a7.491 7.491 0 0 1 2.457 10.296c-.41.668-10.272 16.514-30.157 29.531-12.994 8.507-32.182 16.924-57.216 16.924z" fill="#2a7700"/><path d="M1180.204 18.417S1207.71-11.494 1233.435 0s35.966 29.604 34.688 46.284c-1.58 20.615-19.124 29.211-38.828 21.223s-49.091-49.09-49.091-49.09z" fill="#111"/></svg></g><g transform="translate(2236.9565217391305 353.47826086956525) rotate(0.0 203.47826086956525 216.52173913043475) scale(1.3006085764297213 1.3025078376055197)"><svg width="312.897" height="332.469" viewBox="0 0 312.897 332.469"><path d="M83.555 10.827s112.55-36.919 189.571 25.592c0 0 17.86 16.744 17.86 73.673S277.591 250.74 277.591 250.74h-26.79l-14.511-43.534-36.07 36.78z" fill="#55d6f5"/><path d="M0 26.354s100.543 60.934 129.118 148.255c15.707 47.998 25.202 108.893 1.625 146.846 0 0 57.441-11.592 69.476-77.47C212.255 178.108 106.127 13.414 73.305 5.179 40.482-3.055 17.506 5.179 0 26.354z" fill="#e1e3e3"/><path d="M204.798 248.308a7.5 7.5 0 0 1-4.012-13.842c.23-.146 23.244-14.915 36.161-39.198a7.5 7.5 0 0 1 10.144-3.1 7.501 7.501 0 0 1 3.099 10.144c-14.843 27.906-40.325 44.164-41.402 44.842a7.467 7.467 0 0 1-3.989 1.154z" fill="#309cb5"/><circle cx="263.93" cy="283.502" fill="#e1e3e3" r="48.967"/></svg></g><g transform="translate(710.8695652173914 858.2608695652174) rotate(0.0 530.2173913043478 562.8260869565217) scale(1.9496404436163421 1.9494951982103497)"><svg width="543.913" height="577.407" viewBox="0 0 543.913 577.407"><g fill="#5917c1"><path d="m58.383 480.528 75.424-318.106 408.573 96.874-75.423 318.106zm75.433-318.113L67.87.841l367.718 87.19 106.811 171.263z"/><path d="m58.388 480.528 75.428-318.113L67.87.841 0 287.077z"/></g><path d="M59.149 482.338a5 5 0 0 1-4.869-6.155l74.301-313.362L64.938 6.889a5 5 0 1 1 9.259-3.779l64.249 157.415c.394.965.476 2.029.236 3.043L64.01 478.49a5.003 5.003 0 0 1-4.861 3.848z" fill="#330096"/><path d="M538.917 263.469c-.382 0-.77-.044-1.158-.136L132.662 167.28a5 5 0 0 1 2.308-9.731l405.097 96.053a5.002 5.002 0 0 1-1.15 9.867z" fill="#330096"/><path d="m213.948 517.413 75.424-318.106 97.442 23.104-75.424 318.105zM386.83 222.407 296.365 55.019l-89.272-21.167 82.292 165.45z" fill="#ff5cf0"/><path d="M386.834 227.408c-.382 0-.77-.044-1.158-.136l-97.445-23.105a5 5 0 0 1 2.307-9.731l97.445 23.105a5 5 0 0 1-1.149 9.867z" fill="#cc2bc5"/></svg></g><g transform="translate(1141.304347826087 628.695652173913) rotate(0.0 442.17391304347825 424.5652173913044) scale(1.932983812353458 1.9319582697013746)"><svg width="457.504" height="439.518" viewBox="0 0 457.504 439.518"><g fill="#ffd215"><path d="M39.984 293.718 90.424 80.98l351.085 83.243-50.44 212.738zM90.43 80.974l351.093 83.248-53.516-66.444L52.568 18.242z"/><path d="m47.13 12.574 43.3 68.4-50.444 212.742L0 210.978z"/></g><path d="m145.55 439.518-69.14-59.883 74.053-85.501 62.598-2.42 6.542 62.303z" fill="#e3e5e5"/><path d="M142.591 355.862c1.774.589 3.586.874 5.377.874 4.998 0 9.829-2.226 13.176-6.292 4.165-5.061 4.751-11.748 1.529-17.454-2.72-4.816-7.595-8.026-13.038-8.586-5.222-.536-10.207 1.428-13.677 5.393-3.631 4.149-4.919 9.858-3.446 15.274 1.414 5.202 5.088 9.134 10.079 10.791zm9.008-12.534c-2.19 2.466-4.662 1.859-6.111.586-1.667-1.462-2.399-4.033-.278-6.478l.001-.001c.505-.583 1.679-1.217 2.944-1.301.097-.006.193-.009.287-.009.919 0 1.727.303 2.447.941.884.725 1.475 1.949 1.581 3.274.094 1.187-.215 2.249-.871 2.988zm39.633 12.453c-.666-2.83-3.193-5.327-6.738-4.619l-.085.019c-14.514 3.578-28.816 7.218-42.647 10.738-10.798 2.748-21.631 5.506-32.755 8.285-2.862.743-4.837 3.085-4.914 5.828-.073 2.599 1.608 4.832 4.21 5.664.597.217 1.23.326 1.899.326.508 0 1.037-.063 1.586-.19 2.433-.601 10.594-2.67 20.905-5.285 17.869-4.531 42.34-10.736 54.519-13.743 3.5-.954 4.672-4.255 4.02-7.023zm-42.804 22.196c-5.043-.436-9.796 1.507-13.01 5.344-3.528 4.212-4.762 9.591-3.387 14.757 1.357 5.099 5.041 9.095 10.108 10.964 1.748.645 3.55.958 5.338.958 4.626 0 9.156-2.095 12.408-5.95 4.372-5.185 5.051-11.935 1.775-17.618a17.001 17.001 0 0 0-13.232-8.455zm2.296 18.505c-2.124 2.354-4.449 1.806-5.792.62-1.521-1.342-2.241-3.849-.229-6.18.865-.997 2.044-1.31 3.604-.962 1.354.305 2.588 1.524 3.068 3.035.243.764.482 2.233-.651 3.487zm54.507-88.644a5 5 0 0 1-4.045-7.933c35.004-48.322 48.368-105.312 39.719-169.388a5 5 0 0 1 9.91-1.338c9.004 66.706-4.969 126.121-41.53 176.592a4.997 4.997 0 0 1-4.054 2.067z"/><path d="M40.723 295.628a5 5 0 0 1-4.869-6.155L69.21 148.797a5 5 0 1 1 9.73 2.307L45.584 291.781a5.002 5.002 0 0 1-4.861 3.847z" fill="#ce9800"/><path d="m64.996 147.796 15.187-64.051 375.565 89.046-15.187 64.052zm15.191-64.059L455.76 172.79l-65.203-83.175L33.698 5z" fill="#ffd215"/><path d="m33.698 5 46.489 78.737-15.188 64.053-45.76-81.923z" fill="#ffd215"/><path d="M425.963 238.379c-.382 0-.77-.044-1.158-.136l-360.96-85.587a5 5 0 0 1-3.711-6.019l15.188-64.053a5 5 0 0 1 6.019-3.712l372.318 88.281a5 5 0 0 1-2.307 9.731L83.898 89.756l-12.881 54.323 356.095 84.434a5 5 0 0 1-1.149 9.866z" fill="#ce9800"/><path d="M80.191 88.738a4.998 4.998 0 0 1-4.31-2.459L29.392 7.542a5 5 0 1 1 8.611-5.085l46.489 78.737a5 5 0 0 1-4.301 7.544zm-15.187 64.053a4.998 4.998 0 0 1-4.37-2.563L25.48 87.294a4.999 4.999 0 0 1 1.927-6.803 4.999 4.999 0 0 1 6.803 1.927l35.154 62.935a4.999 4.999 0 0 1-4.36 7.438z" fill="#ce9800"/></svg></g><g transform="translate(1025.2173913043478 1085.2173913043478) rotate(0.0 721.3043478260871 470.21739130434787) scale(1.3035875964308106 1.303091725186811)"><svg width="1106.645" height="721.695" viewBox="0 0 1106.645 721.695"><g><g><path d="M844.807 612.906c-108.933 80.722-348.354 90.407-465.359 97.97-112.823 7.293-99.854-190.289 9.42-207.245s227.97-69.71 280.723-107.391c52.753-37.681 231.186 175.191 175.216 216.665Z" fill="#a66036"/><g><path d="M388.868 503.631c-41.833 2.87-144.562 22.388-176.407 26.497-31.846 4.109-44.173 185.938 0 185.938s114.94-3.624 166.987-5.19c52.047-1.567 9.42-207.245 9.42-207.245Z" fill="#a66036"/><path d="M380.879 503.631c-19.344-16.541-46.161-42.701-60.967-49.669-14.806-6.968-103.989-11.466-127.602-15.26-27.241-4.378-44.258 39.785-3.768 49.966 40.798 10.258 56.571 9.756 68.707 34.375 12.136 24.619 145.25-.925 123.63-19.412Zm-169.813 89.212c-15.276-.359-80.485-3.135-96.175-3.41-14.667-.257-64.505-6.209-79.279-9.787-34.7-8.405-52.296 36.441-14.008 48.093 18.793 5.719 61.719 15.918 84.432 18.99 17.216 2.328 101.404 6.691 101.404 6.691 5.391-16.552 5.29-39.878 3.626-60.577Zm-13.641 82.874c-10.577.283-47.746.341-61.388 0-13.642-.341-42.626-3.458-51.839-4.434-25.764-2.728-31.376 35.469-3.41 39.651 20.712 3.097 41.608 5.105 57.296 5.132 18.075.032 64.773.082 74.378 0 12.256-.104-15.036-40.349-15.036-40.349Z" fill="#a66036"/><path d="M201.517 642.295c-8.526 1.364-76.089-1.249-85.979-2.613-9.89-1.364-48.254-8.36-62.376-10.706-30.694-5.098-39.561 39.92-8.185 45.649 25.147 4.592 53.246 8.256 69.915 10.038 15.65 1.673 76.394 5.719 89.013 2.649 12.619-3.069-2.387-45.018-2.387-45.018Zm10.943-112.167c-33.189 1.363-67.028 3.967-86.663 3.076-19.636-.891-49.472-6.56-70.566-13.213-37.362-11.785-51.752 33.68-18.894 49.288 32.858 15.608 58.958 23.822 80.82 24.644s82.057 6.424 93.227 6.424 2.076-70.218 2.076-70.218Z" fill="#a66036"/><path d="M210.391 607.848a7.14 7.14 0 0 1-.438-.013c-23.136-1.333-81.813-5.591-93.34-6.432-17.738-1.293-50.764-9.143-52.161-9.476a7.503 7.503 0 0 1 3.483-14.594c.331.079 33.241 7.901 49.768 9.106 31.793 2.317 75.256 5.388 93.113 6.417a7.502 7.502 0 0 1-.424 14.991Zm-2.944 53.073c-.136 0-.272-.003-.409-.011l-1.297-.07c-58.926-3.163-92.871-5.418-100.893-6.705-12.08-1.938-67.745-14.418-70.109-14.949a7.503 7.503 0 0 1 3.285-14.64c.574.129 57.573 12.909 69.2 14.774 5.158.828 26.577 2.633 99.32 6.538l1.298.069a7.502 7.502 0 0 1-.395 14.994Zm-6.801 33.897c-58.772 0-103.135-3.013-135.549-9.203a7.503 7.503 0 0 1-5.962-8.776 7.499 7.499 0 0 1 8.776-5.961c32.064 6.123 76.516 9.072 135.979 8.934 4.099-.027 7.509 3.345 7.516 7.488a7.502 7.502 0 0 1-7.488 7.516l-3.272.003Z" fill="#773a12"/></g></g><path d="M1055.681 4.438c50.03 41.707 66.482 138.516 34.665 232.294-31.818 93.779-139.342 403.793-211.222 341.871-53.403-46.006-133.746-135.08-182.585-169.024-13.74-9.549-17.433-28.273-8.442-42.385l130.334-204.576c61.412-123.443 139.658-179.52 237.251-158.18Z" fill="#41b30a"/><path d="M833.442 123.332s125.753-174.191 223.56-92.219c97.808 81.972 13.041 194.684 13.041 194.684s-18.63 239.396-78.246 271.998c0 0-25.323 200.395-114.486 177.075-89.163-23.32-209.876 108.367-274.347 9.602 0 0-28.204-193.266-85.058-214.48 0 0 33.814-67.334 165.369-88.179l150.167-258.482Z" fill="#41b30a"/><path d="M1053.038 349.734a7.486 7.486 0 0 1-5.556-2.459C986.699 280.3 796.767 218.174 794.856 217.554a7.5 7.5 0 1 1 4.625-14.269c7.959 2.58 195.646 63.982 259.108 133.909a7.499 7.499 0 0 1-.514 10.594 7.47 7.47 0 0 1-5.038 1.946Zm-34.674 117.125a7.486 7.486 0 0 1-5.556-2.459c-60.958-67.168-272.345-149.999-274.473-150.828a7.499 7.499 0 0 1-4.267-9.71 7.5 7.5 0 0 1 9.71-4.267c8.824 3.437 216.828 84.966 280.137 154.724a7.499 7.499 0 0 1-.514 10.594 7.47 7.47 0 0 1-5.038 1.946Zm12.841-52.684a7.498 7.498 0 0 1-7.49-7.243l-1.387-40.427-41.144 14.536a7.499 7.499 0 0 1-9.932-6.076l-4.244-31.708-35.84 12.299a7.497 7.497 0 0 1-9.488-4.545l-11.714-32.419-35.651 11.553a7.495 7.495 0 0 1-9.431-4.773l-12.521-37.748-32.376 15.195a7.5 7.5 0 0 1-10.685-6.621l-.802-35.617-46.707 21.76a7.5 7.5 0 1 1-6.334-13.597l57.113-26.609a7.5 7.5 0 0 1 10.665 6.63l.802 35.582 29.596-13.891a7.498 7.498 0 0 1 10.304 4.428l12.836 38.695 35.467-11.494a7.501 7.501 0 0 1 9.366 4.586l11.671 32.302 37.514-12.874a7.5 7.5 0 0 1 9.868 6.099l4.233 31.624 42.079-14.867a7.5 7.5 0 0 1 9.994 6.814l1.738 50.648a7.501 7.501 0 0 1-7.501 7.757Z" fill="#e1e3e3"/><path d="M683.269 389.314a7.501 7.501 0 0 1-6.003-11.989c9.732-13.029 123.064-191.019 134.251-217.615a7.5 7.5 0 0 1 13.826 5.815c-11.93 28.364-125.914 207.193-136.06 220.776a7.488 7.488 0 0 1-6.015 3.012Z" fill="#2a7700"/><path d="M468.608 485.801S530.33 659.003 521.56 700.66l99.331-12.23s-23.542-225.273-102.985-218.438L468.608 485.8Z" fill="#41b30a"/><path d="M604.972 693.13a7.5 7.5 0 0 1-7.499-7.83c3.89-88.295-13.96-140.145-29.619-168.093-16.768-29.926-34.621-39.437-34.799-39.529l-.384-.21c-12.313-7.217-42.161 5.89-58.083 15.849a7.5 7.5 0 0 1-7.955-12.717c4.991-3.123 49.372-30.048 73.459-16.168 2.586 1.376 21.969 12.448 40.045 44.027 24.732 43.208 35.606 102.927 32.322 177.501a7.5 7.5 0 0 1-7.487 7.17Z" fill="#2a7700"/><path d="M536.468 478.48a7.513 7.513 0 0 1-1.539-.16c-4.04-.847-6.64-4.781-5.813-8.826.186-.907 4.799-22.479 26.751-44.832 19.768-20.127 58.188-44.997 128.967-49.179a7.497 7.497 0 0 1 7.93 7.044 7.5 7.5 0 0 1-7.045 7.929c-51.742 3.057-92.694 18.268-118.429 43.988-19.267 19.256-23.445 37.904-23.485 38.09a7.526 7.526 0 0 1-7.337 5.944Zm206.351 234.49a7.499 7.499 0 0 1-6.698-4.114 7.498 7.498 0 0 1 3.298-10.075c2.8-1.419 69.531-34.676 153.297-28.369l.955.072.501.179c1.483.278 20.908 3.202 44.985-29.568a7.5 7.5 0 0 1 12.088 8.882c-28.726 39.096-54.7 36.445-60.171 35.355-79.226-5.81-144.229 26.503-144.877 26.831a7.475 7.475 0 0 1-3.378.808Zm241.589-142.119a7.5 7.5 0 0 1-7.392-8.818c6.324-35.456 9.014-90.835 9.04-91.391.196-4.137 3.722-7.342 7.848-7.135a7.499 7.499 0 0 1 7.135 7.847c-.109 2.306-2.76 56.894-9.255 93.312a7.505 7.505 0 0 1-7.375 6.185Z" fill="#2a7700"/></g></svg></g><g transform="translate(2213.4782608695655 379.5652173913044) rotate(0.0 56.08695652173901 45.0) scale(1.274356005674339 1.2313754463735993)"><svg width="88.024" height="73.089" viewBox="0 0 88.024 73.089"><path d="M0 21.046S27.506-8.864 53.231 2.629c25.725 11.494 35.966 29.604 34.688 46.284-1.58 20.615-19.124 29.211-38.828 21.223C29.387 62.148 0 21.046 0 21.046Z" fill="#111"/></svg></g><g transform="translate(932.6086956521739 408.2608695652174) rotate(0.0 227.60869565217394 372.39130434782606) scale(1.9430650394161975 1.9408976827403888)"><svg width="234.278" height="383.731" viewBox="0 0 234.278 383.731"><g fill="#00ba96"><path d="m89.977 383.731-45.928-10.89L186.664 84.586l45.928 10.891zM132.949 1.79l42.844 10.159 56.799 83.528-45.928-10.891z"/><path d="m132.949 1.79 53.715 82.796L44.049 372.841 0 270.507z"/></g><path d="M93.332 182.363a5.001 5.001 0 0 1-4.063-2.087c-2.184-3.046-6.332-7.308-11.135-12.242-14.444-14.838-34.225-35.158-32.463-54.756.763-8.486 5.435-15.845 13.885-21.872 7.295-5.202 16.732-3.981 25.245 3.268 8.875 7.557 16 20.767 19.058 35.335 2.511 11.964 3.501 30.276-6.045 49.572a4.998 4.998 0 0 1-4.482 2.782zM69.513 98.199c-1.406 0-2.811.393-4.15 1.348-6.052 4.316-9.235 9.1-9.732 14.626-1.35 15.021 16.578 33.438 29.668 46.886 2.39 2.455 4.626 4.753 6.598 6.878 9.607-27.176-.959-54.904-13.579-65.65-2.424-2.064-5.615-4.088-8.805-4.088z" fill="#e3e5e5"/><path d="M72.34 185.609c-15.561 0-31.606-4.203-39.958-11.562-4.799-4.229-6.794-9.444-5.618-14.684 1.852-8.247 7.228-13.694 15.138-15.338 16.198-3.367 40.563 9.98 55.468 30.388a5 5 0 0 1-2.337 7.651c-6.669 2.412-14.617 3.545-22.693 3.545zm-25.12-32.107c-1.171 0-2.27.104-3.283.314-4.064.845-6.42 3.304-7.416 7.738-.13.581-.527 2.348 2.472 4.99 9.136 8.05 30.6 10.575 45.575 7.937-11.959-13.34-27.302-20.979-37.348-20.979z" fill="#e3e5e5"/><path d="M78.852 261.718a5 5 0 0 1-4.204-7.7c8.883-13.843 13.515-35.438 13.809-64.291-7.596 7.51-19.373 18.087-31.995 25.425a5 5 0 0 1-5.027-8.646c19.66-11.43 37.949-32.224 38.131-32.433a5.001 5.001 0 0 1 8.764 3.145c1.074 37.085-4.062 64.741-15.266 82.2a4.995 4.995 0 0 1-4.212 2.3z" fill="#e3e5e5"/><path d="M45.315 375.276a5 5 0 0 1-4.478-7.219L180.921 84.92 130.836 7.721a5 5 0 0 1 8.389-5.443l51.633 79.586a5.003 5.003 0 0 1 .287 4.939L49.801 372.492a5.002 5.002 0 0 1-4.486 2.784z" fill="#007a63"/><path d="M229.282 99.692c-.382 0-.77-.044-1.158-.136L185.51 89.452a5 5 0 0 1-3.711-6.019 5 5 0 0 1 6.019-3.712l42.614 10.104a5 5 0 0 1 3.711 6.019 5.003 5.003 0 0 1-4.861 3.848z" fill="#007a63"/><path d="M23.106 324.298a5 5 0 0 1-4.477-7.219L155.273 40.891a5.001 5.001 0 0 1 5.635-2.648l44.383 10.524a5 5 0 0 1-2.307 9.731l-40.512-9.606L27.591 321.515a5 5 0 0 1-4.485 2.783z" fill="#e3e5e5"/></svg></g><g transform="translate(1374.7826086956522 409.5652173913044) rotate(0.0 286.9565217391304 235.43478260869563) scale(1.9417292923397012 1.9384208617757366)"><svg width="295.568" height="242.914" viewBox="0 0 295.568 242.914"><g fill="#ea2688"><path d="M34.436 188.7 64.774 60.748l228.648 54.213-30.338 127.952zm258.996-73.74L64.778 60.744 28.703 16.151l223.915 53.092z"/><path d="M28.703 16.151 0 137.205l34.439 51.493L64.778 60.744z"/></g><path d="M35.187 190.562a5 5 0 0 1-4.869-6.155L59.346 61.979 26.781 21.725a5 5 0 0 1 7.774-6.289L68.664 57.6a5 5 0 0 1 .978 4.298L40.048 186.714a5.003 5.003 0 0 1-4.861 3.848z" fill="#b7006d"/><path d="M290.572 119.282c-.382 0-.77-.044-1.158-.136L63.624 65.609a5 5 0 0 1 2.308-9.731l225.79 53.537a5 5 0 0 1-1.15 9.867z" fill="#b7006d"/><path d="m201.97 93.273-30.04-43.162-43.313-10.27L156.24 82.43zm-76.074 117.112 30.338-127.951 45.73 10.843-30.338 127.951z" fill="#54d8f7"/><path d="M201.975 98.275c-.382 0-.77-.044-1.158-.136l-45.731-10.843a5 5 0 0 1-3.711-6.019 5.003 5.003 0 0 1 6.019-3.712l45.731 10.843a5 5 0 0 1 3.711 6.019 5.003 5.003 0 0 1-4.861 3.848z" fill="#309eb7"/><path d="M185.926 68.435c1.293-13.901-11.365-19.737-11.365-19.737 15.169-18.348 42.725-40.475 60.354-22.512 23.061 23.498 12.531 46.086-10.762 50.955s-38.227-8.706-38.227-8.706zm-38.27-6.376c-.42-4.334 3.011-11.356.085-19.064-7.487-19.722-19.69-47.264-43.851-42.438C86.568 4.018 74.091 28.35 83.046 42.995c16.646 27.226 64.61 19.064 64.61 19.064z" fill="#54d8f7"/><path d="M147.656 62.059c7.465 5.069 32.458 11.28 38.27 6.376 0-14.044-5.847-19.882-14.615-21.626-6.492-1.291-23.571-3.813-23.571-3.813 4.344 6.775-.084 19.063-.084 19.063z" fill="#54d8f7"/><path d="M177.968 75.159c-11.721 0-27.54-5.174-33.122-8.964a5.001 5.001 0 0 1-1.899-5.823c1.164-3.27 2.838-11.162.583-14.679a4.999 4.999 0 0 1 4.94-7.645c.702.104 17.277 2.555 23.816 3.856 12.368 2.46 18.639 11.386 18.639 26.53 0 1.473-.65 2.872-1.776 3.822-2.459 2.076-6.492 2.903-11.181 2.903zM153.571 59.57c3.4 1.52 8.546 3.224 14.308 4.41 6.59 1.356 10.7 1.382 12.912 1.104-.862-10.037-5.707-12.428-10.455-13.372-3.53-.702-10.381-1.795-15.749-2.623.254 3.872-.362 7.692-1.016 10.481z" fill="#309eb7"/><path d="M200.447 77.09c-6.267 0-12.325-1.344-17.197-4.431a5.001 5.001 0 0 1-1.939-6.148 4.996 4.996 0 0 1 .53-4.806c5.854-8.298 30.166-26.052 44.582-23.633 5.24.879 8.952 4.218 10.453 9.402 2.162 7.467-1.022 15.071-8.738 20.863-7.044 5.286-17.633 8.752-27.691 8.753zm-8.938-11.435c9.116 3.485 22.933.458 30.625-5.316 3.019-2.266 6.36-5.855 5.135-10.084-.433-1.494-1.064-2.08-2.502-2.321-8.204-1.378-26.595 10.526-33.258 17.721zm-45.189-3.176c-.13 0-.261-.005-.394-.015-26.589-2.07-43.269-8.131-49.578-18.014-2.272-3.559-4.348-9.493-1.342-17.559 2.532-6.792 7.416-10.83 13.753-11.369 9.228-.785 19.651 6.016 26.769 11.86 7.621 6.258 15.025 14.39 18.424 20.235a5 5 0 0 1-3.283 7.406 4.998 4.998 0 0 1-4.349 7.456zm-36.003-37.022c-.242 0-.477.01-.709.029-1.637.139-3.711.822-5.231 4.898-1.7 4.56-.586 7.141.4 8.685 2.505 3.924 11.082 10.805 40.367 13.298-5.597-9.334-24.547-26.91-34.827-26.91z" fill="#309eb7"/></svg></g><g transform="translate(674.3478260869565 1076.0869565217392) rotate(0.0 83.47826086956525 133.0434782608695) scale(1.3045108899482005 1.3045268787958102)"><svg width="127.984" height="203.972" viewBox="0 0 127.984 203.972"><path d="M5.958 162.504c11.157 15.652 30.066 28.933 40.699 37.062 21.947 16.778 44.327-18.464 21.496-36.933-16.452-13.308-33.318-35.374-43.888-40.585-10.57-5.211-35.68 16.084-18.306 40.457Z" fill="#a66036"/><path d="M10.152 124.724c8.41 13.563 38.723 35.166 55.908 46.432 21.451 14.063 42.916-25.987 19.432-41.581-21.77-14.457-44.321-45.832-56.798-47.727-12.477-1.896-32.951 19.639-18.542 42.877Z" fill="#a66036"/><path d="M21.081 77.544c10.074 18.248 35.477 46.901 42.452 55.582 16.01 19.927 51.633-4.232 37.318-26.105-12.179-18.609-40.837-58.938-51.913-71.645C37.863 22.669 4.876 48.192 21.08 77.543Z" fill="#a66036"/><path d="M43.784 18.665c-10.35 19.118 27.025 64.755 45.05 85.269 19.32 21.988 50.304-6.171 35.078-28.67C109.786 54.392 85.737 8.806 76.441 3.351 59.852-6.383 50.073 7.049 43.784 18.665Z" fill="#a66036"/><path d="M104.868 119.022c-.062 0-.123 0-.185-.002-7.855-.189-15.204-3.605-21.252-9.877-10.442-10.829-41.915-48.104-49.299-76.364a7.505 7.505 0 0 1 14.521-3.794c5.493 21.026 30.446 54.045 45.581 69.74 3.295 3.417 6.932 5.197 10.81 5.291a7.504 7.504 0 0 1-.177 15.006Zm-23.879 29.155c-8.588 0-17.123-3.47-23.031-10.028-7.539-8.369-34.594-43.167-40.789-51.342a7.504 7.504 0 0 1 1.449-10.513 7.503 7.503 0 0 1 10.514 1.449c7.117 9.392 33.164 42.798 39.977 50.36 4.866 5.403 13.623 6.679 19.933 2.905a7.504 7.504 0 0 1 7.703 12.881c-4.835 2.891-10.306 4.288-15.755 4.288Zm-4.721 33.376c-21.258 0-67.229-46.61-71.808-51.939a7.504 7.504 0 1 1 11.385-9.78c4.026 4.687 16.352 16.814 30.021 27.96 18.311 14.932 27.748 18.828 30.385 18.75l.175-.002a7.504 7.504 0 0 1 7.499 7.332 7.504 7.504 0 0 1-7.33 7.675c-.106.002-.218.003-.326.003Z" fill="#773a12"/></svg></g></svg>