<svg height="1881.829" viewBox="0 0 1238.308 1881.829" width="1238.308" xmlns="http://www.w3.org/2000/svg"><path d="m620.629 438.401c29.656 41.824 138.166 220.058 148.652 235.077 10.485 15.019-32.29 63.838-85.696 74.239-21.088 4.107-120.46-110.639-120.46-110.639s-39.796-88.7-52.097-107.177 109.6-91.499 109.6-91.499z" fill="#a85f36"/><path d="m1088.186 1571.637c3.17.915 12.246 5.766 12.608 14.628 35.375 9.521 119.107 54.997 123.705 116.425-39.245 49.121-105.411 62.977-128.391 62.872s-222.013-40.538-222.013-40.538-56.56-106.302-49.07-127.495c7.489-21.193 263.163-25.893 263.163-25.893z" fill="#00ba96"/><path d="m1072.764 1626.463c-1.05 0-2.083-.331-2.945-.959-7.249-5.284-44.334-27.042-44.708-27.262-2.382-1.396-3.181-4.46-1.784-6.842 1.396-2.381 4.46-3.181 6.842-1.784 1.345.789 29.129 17.09 41.307 24.956 13.349-17.234 38.252-26.956 59.058-22.431 2.698.587 4.41 3.25 3.823 5.949s-3.247 4.411-5.949 3.823c-18.589-4.043-41.165 5.702-51.396 22.188-.733 1.182-1.926 2.005-3.291 2.271-.318.062-.639.093-.958.093z" fill="#007a63"/><path d="m1225.934 1693.614c2.995-.122 5.414 6.921 9.659 24.567 4.003 16.638 2.366 21.656 2.47 24.197s-30.913 32.182-64.37 42.356c-64.482 19.609-115.694 19.459-152.685 21.492s-204.545-47.518-204.545-47.518l7.542-32.683 4.947-10.123s113.847 29.291 190.82 34.502c76.972 5.211 132.458-1.303 159.334-15.366 43.839-22.939 43.957-41.307 46.827-41.424z" fill="#e3e5e5"/><path d="m1007.407 1652.218c39.928 18.734 79.165 26.922 111.346 57.329 23.47 22.176 37.859 92.706 38.072 97.919s-78.971 48.133-96.195 48.314-108.591-12.274-121.73-14.348-226.714-56.533-226.714-56.533-10.965-72.395-6.092-120.373c3.248-31.981 301.314-12.308 301.314-12.308z" fill="#00ba96"/><path d="m571.971 673.478s347.664 142.598 404.701 166.78 108.666 96.911 113.831 182.607c4.575 75.904 3.53 164.347-.264 269.303 4.755 66.744 17.451 162.344-13.252 210.43 14.632 23.672 30.769 51.945 20.729 76.198-16.641-18.821-87.581 15.132-146.977 89.977-39.708-111.329-106.16-598.011-106.16-598.011l-458.586-333.814 185.979-63.47z" fill="#0a3ea5"/><path d="m1138.495 1747.38c-2.063 0-3.993-1.286-4.716-3.342-8.793-24.989-33.657-42.891-54.336-55.695-23.486-14.542-76.435-29.448-76.967-29.597-2.659-.744-4.212-3.502-3.468-6.162s3.503-4.213 6.162-3.469c2.228.624 54.846 15.437 79.538 30.726 22.075 13.668 48.673 32.94 58.504 60.877.917 2.605-.452 5.459-3.057 6.376-.549.193-1.109.285-1.66.285z" fill="#007a63"/><path d="m994.174 1716.765c-1.37 0-2.69-.563-3.641-1.574-5.377-5.716-29.585-19.682-38.458-24.581-2.417-1.335-3.295-4.376-1.961-6.794 1.335-2.417 4.376-3.295 6.794-1.961 2.884 1.592 24.905 13.827 36.086 22.327 17.316-25.986 45.358-39.137 57.179-39.206 2.765-.012 5.013 2.209 5.029 4.971s-2.209 5.013-4.971 5.029c-8.062.047-36.174 12.196-51.72 39.278-.789 1.373-2.181 2.292-3.753 2.477-.195.023-.39.034-.583.034z" fill="#007a63"/><path d="m431.659 733.695s446.409 300.552 460.566 334.065 75.448 277.078 77.452 294.196-9.544 53.248-9.544 53.248 39.121 119.609 40.623 140.686-5.571 58.877-5.571 58.877 24.406 7.256 29.59 13.948 3.134 27.802 3.134 27.802-14.289-8.177-75.019 42.441-167.345 73.906-258.44-4.34c-5.059-82.022-13.472-123.006-29.636-151.669-16.165-28.663-24.468-57.101-21.339-90.277 3.128-33.176-3.091-175.529-3.091-175.529s-16.167-17.678-22.688-32.121 3.689-47.338 3.689-47.338-223.428-127.659-283.058-171.721-103.931-93.211-110.875-130.116c-6.945-36.904 48.501-134.161 101.166-154.812 52.666-20.651 103.043-7.342 103.043-7.342z" fill="#0a3ea5"/><path d="m995.18 1619.768c-.867 0-1.744-.226-2.544-.699-2.375-1.408-3.161-4.475-1.753-6.851 20.268-34.206-18.686-152.498-35.406-195.191-.377-.962-.446-2.018-.199-3.021.081-.329 8.129-33.119 9.41-52.381 1.239-18.641-13.916-94.281-35.251-175.947-3.398-13.007-6.353-25.097-8.959-35.765-13.839-56.641-21.463-87.841-62.25-129.945-32.136-33.174-302.027-180.021-304.75-181.501-2.427-1.319-3.325-4.354-2.006-6.781 1.318-2.427 4.354-3.324 6.78-2.006 11.171 6.071 273.966 149.066 307.158 183.329 42.675 44.053 50.997 78.109 64.782 134.53 2.724 11.15 5.542 22.681 8.919 35.611 18.802 71.966 37.053 156.608 35.555 179.137-1.191 17.92-7.654 45.694-9.306 52.576 2.897 7.572 16.223 43.058 26.856 82.393 16.3 60.297 18.746 100.691 7.27 120.059-.934 1.576-2.598 2.452-4.307 2.452z" fill="#002e77"/><path d="m204.174 753.019c1.117 26.875.846 45.862-.127 49.299-9.61 33.965-6.447 93.041 23.402 93.53 15.259-53.21 53.561-87.994 104.841-115.933-35.131-26.902-83.121-33.04-128.116-26.896z" fill="#ff5cf0"/><path d="m1009.132 798.946-274.156-20.632c-1.375-.313-2.805-.288-4.168.072l-477.781 84.552c-14.972 2.498-12.755 53.889 5.891 59.644l233.272 53.118c22.077 5.027 45.043 4.63 66.933-1.158l445.813-117.88c24.563-5.71 24.077-57.618 4.197-57.716z" fill="#111"/><path d="m1006.186 771.131-271.209-46.851c-1.375-.313-2.805-.288-4.168.072l-478.498 110.901c-8.816 2.331-7.162 30.16 1.73 32.185l269.666 61.405c1.375.313 2.805.288 4.168-.072l477.061-126.143c8.816-2.331 10.142-29.473 1.251-31.497z" fill="#ce9800"/><path d="m1004.642 769.776-261.804-59.844c-1.375-.313-2.805-.288-4.168.072l-484.923 124.581c-8.816 2.331-8.598 14.918.293 16.943l269.666 61.405c1.375.313 2.805.288 4.168-.072l477.061-126.143c8.816-2.331 8.598-14.918-.293-16.943z" fill="#ffd215"/><path d="m554.177 335.296c16.696 6.746 35.5 35.744 62.258 66.267 26.759 30.523 72.431 98.929 80.533 109.859-24.498 53.006-101.615 85.961-155.626 84.055-54.011-1.905-31.442-198.877-29.509-201.107s42.343-59.074 42.343-59.074z" fill="#e3e5e5"/><path d="m98.564 369.809c-8.677 9.492 9.513 41.298 9.513 41.298l37.87-46.159-24.343-7.634s-18.309 7.32-23.04 12.495z" fill="#111"/><path d="m96.931 622.906c-1.843 9.801-25.009 13.672-51.744 8.645-26.734-5.027-46.913-17.047-45.07-26.848 1.843-9.801 31.743-28.241 58.477-23.214s40.179 31.616 38.336 41.417z" fill="#111"/><path d="m438.742 476.993c-52.567 14.723-138.488-34.856-144.899-36.755s-89.138-116.83-89.138-116.83c11.691-5.745 34.451-12.891 60.432-18.301 19.274-4.01 41.997-1.567 61.586-2.411 8.836-.379 15.685-5.811 23.641-5.165 12.806 1.033 25.651 10.325 37.142 11.892 15.763 2.155 29.481-3.255 41.55-.877 24.911 4.902 42.236 6.854 42.236 6.854s20.015 146.861-32.551 161.594z" fill="#e3e5e5"/><path d="m294.362 184.717h121.634v130.524c0 14.969-12.153 27.122-27.122 27.122h-67.391c-14.969 0-27.122-12.153-27.122-27.122v-130.524z" fill="#a85f36" transform="matrix(.99358963 .11304714 -.11304714 .99358963 32.068 -38.462)"/><path d="m472.235 236.611c-2.026 6.683-.639 44.506 26.944 38.879-25.187 17.225-50.926 1.013-48.538-13.787 1.916-11.872 21.594-25.092 21.594-25.092z" fill="#4f2000"/><path d="m466.169 69.141c19.475 16.396 24.126 38.557 24.819 69.368.469 20.877-5.875 31.802-3.317 48.881s7.919 45.073-16.22 73.338c-25.594 29.969-40.065 38.895-78.736 25.486-67.575-23.431-74.297-59.043-83.96-69.862s-40.76-102.231 11.176-136.792 112.726-38.633 146.238-10.419z" fill="#a85f36"/><path d="m601.296 666.264c-12.264-17.956-39.466-62.048-39.466-62.048s10.377-30.554 11.869-60.998-16.177-69.282-28.124-86.394c4.251-21.053 15.086-72.734 13.255-124.125 0 0-22.618-14.626-63.505-21.367-32.922-5.428-55.255-6.524-55.033-3.402.222 3.123 1.835 27.592-6.504 67.023-8.992 42.518-29.884 71.958-36.539 74.001-6.654 2.043-36.49-22.115-68.49-52.788s-85.816-85.836-90.313-87.455-14.274-2.121-46.987 8.578c-32.714 10.7-69.429 26.719-92.894 52.517 67.547-26.52 62.009 127.001 83.795 212.539 13.801 54.187 19.883 124.222 21.815 170.672 44.996-6.144 92.985-.006 128.116 26.896 31.794-17.322 68.574-32.016 107.956-46.833 102.9-38.715 156.078 2.303 140.041-31.323-.674-1.413 33.273-17.539 21.009-35.496z" fill="#ff5cf0"/><path d="m429.056 308.545c-.587 11.18-5.84 48.046-49.19 56.058-66 12.201-105.493-44.415-114.729-59.497 19.274-4.01 40.309-7.073 59.899-7.917l21.039.646 40.875 3.684c15.763 2.155 30.036 4.647 42.106 7.025z" fill="#a85f36"/><path d="m422.09 30.436s-26.76-23.2-75.534-2.987c-47.008 19.481-88.428 69.068-90.296 116.276-1.867 47.209 16.033 76.598 45.096 79.823 14.163-37.623 13.315-41.617 22.464-67.376s39.564-68.725 55.959-80.877 54.909-29.542 54.909-29.542l-12.599-15.317z" fill="#4f2000"/><path d="m309.956 152.453c-10.834-12.566-35.479-13.426-39.479 11.182-4 24.607 23.401 53.136 39.332 38.14s5.157-43.511.147-49.322z" fill="#a85f36"/><path d="m312.266 194.872c-.753 0-1.517-.171-2.236-.531-2.469-1.237-3.467-4.241-2.23-6.71.738-1.471.785-4.974-1.508-10.003-3.165-6.939-8.906-12.688-13.963-13.981-2.675-.684-4.289-3.408-3.605-6.083.685-2.675 3.405-4.29 6.083-3.605 9.76 2.496 17.188 12.075 20.583 19.52 3.284 7.2 3.764 13.818 1.351 18.633-.877 1.75-2.642 2.761-4.474 2.761z" fill="#773a11"/><path d="m294.233 181.391c-1.817 0-3.57-.994-4.455-2.723-1.258-2.458-.285-5.471 2.173-6.729 9.316-4.768 17.962-8.534 21.393-2.353 1.34 2.415.469 5.458-1.945 6.798-1.5.832-3.242.812-4.668.098-1.183.274-4.061 1.205-10.224 4.359-.729.373-1.507.55-2.274.55z" fill="#773a11"/><path d="m440.075 62.631s40.323 13.342 49.946 57.64c6.03-28.152 3.321-51.497-13.664-69.64s-43.709-33.5-60.215-22.909c12.187 31.562 23.933 34.909 23.933 34.909z" fill="#4f2000"/><path d="m442.497 63.566s-43.365 3.671-59.12 42.037c-17.55 42.738-30.531 49.941-45.259 73.088-16.354 25.705-20.951 74.983 4.934 107.922-50.261-12.718-54.761-66.596-46.41-100.783 6-24.565 24.17-42.521 25.287-56.2 1.118-13.679 13.526-56.895 46.848-76.6 35.134-20.777 57.362-17.13 65.577-11.961 8.214 5.168 8.142 22.496 8.142 22.496z" fill="#4f2000"/><path d="m368.096 32.453c-8.923-34.671-53.28-39.356-79.154-24.436-36.263 20.91-44.749 69.356-13.567 99.564 28.957 28.052 92.721-75.127 92.721-75.127z" fill="#4f2000"/><path d="m272.757 92.859s-25.893 14.66-37.541-16.679c-9.077 37.784 22.364 55.444 35.195 38.814 9.693-12.563 2.346-22.136 2.346-22.136z" fill="#4f2000"/><path d="m413.295 295.792c-.242 0-.486-.018-.732-.054-28.888-4.239-47.97-12.744-63.805-28.439-1.961-1.944-1.975-5.11-.031-7.071 1.944-1.962 5.11-1.975 7.071-.031 14.388 14.261 31.254 21.692 58.217 25.648 2.732.401 4.622 2.941 4.221 5.673-.365 2.486-2.5 4.275-4.94 4.275z" fill="#773a11"/><path d="m440.688 218.782c-.296 0-.595-.026-.896-.081-2.717-.492-4.521-3.094-4.029-5.811.617-3.407-2.89-4.585-3.979-4.865-2.709-.697-7.802-.344-9.723 5.381-.878 2.618-3.71 4.028-6.331 3.15-2.618-.878-4.028-3.713-3.15-6.331 3.539-10.552 13.59-13.966 21.69-11.887 8.039 2.064 12.699 8.78 11.332 16.332-.437 2.416-2.542 4.11-4.914 4.11z" fill="#773a11"/><path d="m442.492 68.567c-2.333 0-4.419-1.641-4.896-4.015-2.981-14.825-11.583-26.603-23.599-32.314-2.494-1.186-3.555-4.168-2.369-6.662s4.167-3.555 6.662-2.369c14.891 7.078 25.501 21.429 29.11 39.375.544 2.707-1.209 5.343-3.916 5.888-.333.067-.665.099-.991.099z" fill="#111"/><path d="m312.527 156.248c-1.367 0-2.729-.557-3.716-1.653-1.839-2.041-1.685-5.181.337-7.033.477-.449 9.952-9.678 8.467-30.512-1.044-14.649 3.568-30.499 12.653-43.485 9.6-13.722 22.956-22.761 37.606-25.451 2.714-.498 5.322 1.299 5.821 4.015s-1.299 5.322-4.015 5.821c-24.32 4.466-43.989 31.751-42.091 58.39 1.858 26.075-11.163 38.124-11.718 38.624-.956.861-2.153 1.285-3.345 1.285z" fill="#111"/><path d="m260.166 126.133c-.332 0-.668-.033-1.006-.103-2.697-.553-4.442-3.174-3.899-5.873.206-1.022 5.388-25.43 36.616-60.907 28.818-32.739 68.21-43.143 69.873-43.569 2.677-.687 5.4.926 6.086 3.6.687 2.673-.923 5.396-3.595 6.085-.378.098-38.137 10.135-64.858 40.492-29.232 33.21-34.274 56.062-34.322 56.289-.494 2.358-2.575 3.986-4.895 3.986z" fill="#111"/><path d="m884.143 770.964-243.764-53.956-266.162 54.732-.044 10.45c-.016 3.748 2.584 7 6.243 7.81l278.685 65.31c5.314 1.176 10.83 1.092 16.106-.247l209.039-77.357c3.54-.898 3.462-5.953-.103-6.742z" fill="#656c72"/><path d="m933.682 769.297-287.753-65.283c-3.649-.808-7.436-.75-11.059.169l-258.785 65.65c-2.626.666-2.569 4.417.077 5.003l298.271 65.361c.392.087.799.081 1.188-.018l258.139-65.879c2.626-.666 2.569-4.417-.077-5.003z" fill="#8f969e"/><path d="m535.174 648.379c21.053-1.759 47.669-5.563 57.482-5.477 9.813.085 47.126 27.849 54.633 34.104s-4.172 27.979-14.598 24.799-48.915-25.505-48.915-25.505l-88.628.43z" fill="#a85f36"/><path d="m703.496 727.31-192.925 58.032c-4.438 1.335-4.186 7.703.344 8.683l114.967 24.866c4.923 1.065 10.037.852 14.855-.619l206.634-63.086-134.961-28.257c-2.956-.619-6.02-.487-8.913.383z" fill="#111"/><path d="m79.062 453.973c-19.748 53.19-54.955 186.726-66.899 250.344-11.944 63.618 15.591 119.716 70.791 123.629 43.183 3.061 112.145-10.343 189.306-29.964 77.827-19.791 136.4-45.715 145.768-46.382 8.362 7.25 26.929 14.558 79.789 7.653s61.058-12.981 61.058-12.981l-25.018-97.861s-120.775 11.744-152.892 12.463-151.076-2.01-174.439.439c8.464-26.424 14.903-55.118 14.903-55.118z" fill="#a85f36"/><path d="m114.43 366.627c16.939 1.106 34.529 14.891 61.621 50.098s60.572 108.666 60.231 140.597c-.145 13.574-20.154 75.023-27.45 93.753 0 0-16.172-33.151-93.687-48.551-77.516-15.4-108.372-6.881-115.028 2.179 8.781-37.98 85.285-212.249 114.313-238.076z" fill="#e3e5e5"/><path d="m509.033 667.895c-.39.028 80.991-8.517 85.786-7.289s56.813 34.108 64.674 39.824c7.861 5.717 2.308 30.332-17.43 23.108-19.737-7.224-52.654-28.746-52.654-28.746l-86.432 9.234 6.056-36.13z" fill="#a85f36"/><path d="m511.258 699.12s73.604-13.09 77.981-12.225 49.148 29.143 56.979 34.385c11.123 7.446 2.002 28.103-16.258 19.577-15.226-7.108-43.809-17.497-43.809-17.497l-62.157 5.844-12.735-30.084z" fill="#a85f36"/><path d="m510.743 757.026c13.335-2.756 56.654-2.277 56.654-2.277s21.119 14.049 26.789 18.098c11.987 8.561 26.18-6.965 18.291-14.977-7.254-7.366-27.692-29.985-31.316-31.296s-66.839-6.489-66.839-6.489l-3.578 36.94z" fill="#a85f36"/><g fill="#773a11"><path d="m159.082 668.171c-2.394 0-4.509-1.724-4.924-4.163-.462-2.722 1.369-5.304 4.092-5.767 20.691-3.516 47.442-1.986 48.57-1.919 2.756.163 4.858 2.53 4.695 5.286s-2.531 4.864-5.286 4.696c-.265-.015-26.754-1.527-46.304 1.796-.283.048-.565.071-.844.071z"/><path d="m565.215 730.329c-.173 0-.347-.009-.523-.027l-40.034-4.166c-2.747-.286-4.741-2.744-4.456-5.491.286-2.746 2.737-4.743 5.491-4.456l40.034 4.166c2.747.286 4.741 2.744 4.456 5.491-.268 2.571-2.438 4.483-4.967 4.483z"/><path d="m648.547 728.361c-.893 0-1.797-.239-2.614-.741l-57.903-35.598-58.446 5.174c-2.745.247-5.178-1.789-5.421-4.54-.244-2.751 1.789-5.178 4.54-5.421l60.095-5.32c1.074-.095 2.144.158 3.06.721l59.313 36.465c2.353 1.446 3.087 4.526 1.641 6.878-.944 1.536-2.584 2.382-4.264 2.382z"/><path d="m652.112 689.736-8.368-5.475-.067.107c1.083-1.886-.469-3.21-.979-3.645-5.513-4.703-42.191-30.308-50.055-33.268-.44-.166-1.828-.559-5.199-.634-2.761-.061-4.949-2.349-4.888-5.109s2.347-4.932 5.109-4.888c3.66.081 6.441.497 8.5 1.272 9.654 3.634 47.455 30.269 53.023 35.019 7.004 5.975 4.975 13.484 2.924 16.62z"/><path d="m664.675 717.424c-.298 0-.6-.027-.904-.082-2.716-.496-4.517-3.1-4.021-5.817.423-2.341.592-5.246.419-6.625-7.326-4.625-60.223-35.815-67.595-39.824-4.761-1.532-33.479 1.487-57.52 5.187-2.73.418-5.283-1.452-5.703-4.181s1.452-5.282 4.181-5.703c.136-.021 13.735-2.108 27.971-3.726 30.163-3.43 33.759-1.49 35.69-.448 3.985 2.15 66.555 38.739 69.807 41.249 3.189 2.462 4.06 7.801 2.588 15.867-.44 2.413-2.545 4.103-4.913 4.103zm-72.23-52.418s.008.004.012.007c-.004-.002-.008-.005-.012-.007z"/></g><path d="m703.227 1760.552c3.879-3.087 18.313 20.712 48.575 29.791 62.609 18.783 81.62 11.464 141.913 25.043 57.913 13.043 89.739 38.087 173.739 24 71.633-12.013 85.603-47.431 88.667-49.122 3.064-1.692 5.667 10.949 8.451 24.719 1.963 9.711 2.58 19.366.708 24.664s-30.663 37.784-96.304 41.51c-65.642 3.726-118.227-8.486-169.186-25.595-47.898-16.081-116.496-20.637-137.232-23.114-29.779-3.557-51.345-15.396-54.079-18.417s-8.16-51.166-5.252-53.48z" fill="#e3e5e5"/><path d="m401.214 488.864c-3.028 0-10.661-2.411-41.356-26.187-20.38-15.786-42.834-34.917-58.599-49.929-32.882-31.31-97.615-95.885-98.265-96.533-1.955-1.95-1.958-5.116-.008-7.071 1.95-1.954 5.116-1.958 7.071-.008.649.648 65.3 65.14 98.097 96.37 32.439 30.888 83.392 70.201 92.902 73.215 5.945-3.199 31.675-32.827 45.729-79.919 12.274-41.127 11.637-88.821 11.629-89.298-.045-2.761 2.156-5.036 4.917-5.082 2.76-.05 5.036 2.156 5.082 4.917.033 2.01.666 49.729-12.046 92.323-6.471 21.684-16.582 43.417-28.469 61.196-3.856 5.768-17.102 24.683-25.618 25.914-.298.043-.635.092-1.066.092zm.385-10.002s0 0 0 0z" fill="#cc2bc5"/><path d="m927.861 1479.387c-.838 0-1.687-.211-2.466-.654-2.401-1.364-3.241-4.417-1.876-6.817 10.306-18.132 31.987-58.662 32.205-59.069 1.302-2.434 4.331-3.353 6.767-2.051 2.435 1.302 3.354 4.332 2.051 6.767-.218.408-21.959 41.052-32.33 59.295-.921 1.621-2.611 2.53-4.351 2.53z" fill="#002e77"/><path d="m672.431 1315.168c-1.305 0-2.608-.507-3.588-1.518l-32.049-33.023c-1.923-1.982-1.876-5.147.105-7.07 1.982-1.923 5.147-1.876 7.07.105l32.049 33.023c1.923 1.982 1.876 5.147-.105 7.07-.972.943-2.228 1.412-3.482 1.412z" fill="#002e77"/><path d="m1064.49 1530.458c-.723 0-1.457-.157-2.153-.49-2.492-1.191-3.546-4.176-2.355-6.667.878-1.837 8.707-18.114 13.042-23.751 1.684-2.189 4.824-2.598 7.012-.915 2.189 1.684 2.599 4.823.915 7.012-3.131 4.07-9.685 17.237-11.946 21.967-.858 1.795-2.649 2.844-4.515 2.844z" fill="#002e77"/><path d="m823.231 571.224-164.322 263.091c-6.743 10.918 3.209 24.5 15.651 21.359l248.912-64.036c11.113-2.804 20.69-9.839 26.692-19.602l143.559-230.673c6.256-10.177-1.998-23.081-13.86-21.668l-224.43 30.978c-13.306 1.584-25.162 9.15-32.203 20.552z" fill="#656c72"/><path d="m422.185 266.045c-13.029 0-25.662-6.735-31.879-17.874-1.346-2.411-.482-5.457 1.929-6.803 2.412-1.345 5.458-.482 6.803 1.929 4.881 8.744 17.715 15.5 30.745 11.666 2.652-.78 5.429.737 6.208 3.386s-.737 5.428-3.386 6.208c-3.425 1.007-6.937 1.489-10.419 1.489z" fill="#773a11"/><ellipse cx="382.998" cy="183.498" fill="#fff" rx="25.767" ry="21.324" transform="matrix(.04173615 -.99912867 .99912867 .04173615 183.678 558.505)"/><ellipse cx="386.571" cy="189.091" fill="#231f20" rx="19.509" ry="12.436" transform="matrix(.04173615 -.99912867 .99912867 .04173615 181.515 567.435)"/><ellipse cx="463.311" cy="182.166" fill="#fff" rx="25.767" ry="21.324" transform="matrix(.04173615 -.99912867 .99912867 .04173615 261.971 637.472)"/><ellipse cx="464.885" cy="187.758" fill="#231f20" rx="19.509" ry="12.436" transform="matrix(.04173615 -.99912867 .99912867 .04173615 257.892 644.403)"/><path d="m355.179 144.778c4.358-5.209 13.904-12.71 32.437-15.058s27.403-.172 28.526 4.623c1.249 5.334 1.795 14.429-15.862 12.522-21.8-2.354-36.93 3.288-41.878 4.383s-6.716-2.296-3.223-6.47z" fill="#231f20"/><path d="m442.497 131.212c7.051-2.909 23.857-3.652 32.914 0s15.311 10.354 17.535 13.826c2.422 3.783 0 8.739-4.361 6.209-4.794-2.781-14.141-4.719-25.826-5.688-7.856-.651-18.834-.722-21-2.087-4.696-2.959-2.739-10.826.738-12.261z" fill="#231f20"/></svg>