<svg height="627.169" viewBox="0 0 479.609 627.169" width="479.609" xmlns="http://www.w3.org/2000/svg"><path d="m442.156 576.477-310.57 45.233c-22.705 3.307-43.889-11.621-47.197-33.368l-78.951-518.98c-3.34-21.958 12.769-41.053 35.859-42.635l315.773-21.634c21.156-1.449 40.734 14.303 43.834 35.169l73.29 493.307c3.072 20.676-11.226 39.877-32.039 42.908z" fill="#e3e5e5"/><path d="m125.282 627.169c-22.641 0-42.467-15.923-45.837-38.074l-78.95-518.981c-1.777-11.681 1.243-23.102 8.502-32.159 7.672-9.571 19.022-15.33 31.958-16.217l315.773-21.634c23.62-1.617 45.652 16.067 49.122 39.423l73.29 493.308c1.68 11.305-1.147 22.577-7.959 31.739-6.844 9.205-16.896 15.189-28.305 16.851l-310.571 45.233c-2.359.344-4.708.51-7.023.51zm234.489-617.169c-.784 0-1.57.027-2.359.081l-315.772 21.634c-10.115.693-18.936 5.13-24.839 12.495-5.491 6.85-7.771 15.515-6.419 24.401l78.95 518.98c2.891 19 21.523 32.086 41.533 29.172l310.571-45.233.721 4.948-.721-4.948c8.76-1.276 16.474-5.865 21.721-12.922 5.215-7.014 7.379-15.645 6.092-24.303l-73.291-493.309c-2.605-17.536-18.567-30.996-36.187-30.996z" fill="#e3e5e5"/><path d="m368.382 526.976-176.679 24.324c-27.89 3.84-53.959-14.87-58.044-41.826-4.088-26.969 15.417-51.692 43.385-55.185l177.163-22.127c26.514-3.311 51.018 15.127 54.897 41.151 3.878 26.012-14.28 50.023-40.722 53.663z" fill="#b7b7b7"/><path d="m184.436 556.8c-27.472 0-51.625-19.559-55.72-46.576-2.129-14.045 1.448-28.052 10.071-39.441 9.035-11.933 22.401-19.552 37.638-21.455l177.164-22.126c29.076-3.631 56.191 16.725 60.462 45.375 2.061 13.821-1.411 27.58-9.774 38.743-8.491 11.334-20.996 18.653-35.211 20.61l-176.679 24.324c-2.669.367-5.327.546-7.95.546zm175.895-120.019c-1.82 0-3.656.112-5.504.343l-177.164 22.126c-12.537 1.566-23.512 7.805-30.905 17.569-6.98 9.22-9.877 20.551-8.156 31.906 3.671 24.219 27.189 41.096 52.419 37.622l176.679-24.324.682 4.953-.682-4.953c11.548-1.59 21.695-7.521 28.572-16.7 6.749-9.009 9.55-20.115 7.887-31.272-3.206-21.508-22.275-37.27-43.828-37.27z" fill="#b7b7b7"/><path d="m222.214 147.448c-63.98 5.489-108.966 60.653-99.52 123.067 9.436 62.344 69.394 106.807 132.969 99.484 62.538-7.203 105.175-61.976 96.139-122.503-9.045-60.592-66.654-105.448-129.589-100.048zm28.381 188.832c-44.209 4.895-85.712-26.117-92.241-69.347-6.534-43.264 24.54-81.643 68.945-85.65 43.898-3.962 84.262 27.24 90.601 69.621 6.335 42.349-23.6 80.538-67.305 85.377z" fill="#fff"/><path d="m263.035 127.399-9.917-11.028c-1.293-1.438-3.301-2.002-5.154-1.446l-29.006 8.697-31.156-3.742c-2.064-.248-4.066.807-5.028 2.65l-6.531 12.506c-.651 1.247-.747 2.711-.264 4.032s1.5 2.378 2.803 2.91l42.643 17.443c.611.25 1.253.372 1.892.372s0 0 0 0c.974 0 1.943-.285 2.778-.843l36-24.051c1.206-.806 2.003-2.096 2.184-3.535.18-1.439-.273-2.886-1.243-3.965z" fill="#fff"/><path d="m223.317 169.794c-1.954 0-3.863-.375-5.676-1.115l-42.644-17.444c-2.556-1.046-3.78-3.965-2.735-6.521s3.965-3.781 6.521-2.735l42.641 17.443c1.523.622 3.304.442 4.671-.471l35.999-24.051c2.296-1.534 5.4-.917 6.936 1.38 1.534 2.296.916 5.401-1.38 6.935l-35.999 24.05c-2.475 1.654-5.357 2.529-8.335 2.529z" fill="#e3e5e5"/><path d="m231.902 87.809-37 2.891-22.607 26.393 50.432 33.771 38.671-41.017z" fill="#55a2ff"/><path d="m222.725 155.864c-.962 0-1.931-.277-2.78-.846l-50.433-33.771c-1.187-.795-1.978-2.06-2.171-3.475-.194-1.416.227-2.847 1.156-3.932l22.607-26.393c.862-1.006 2.087-1.629 3.408-1.732l37.001-2.892c1.21-.093 2.411.254 3.382.979l29.495 22.038c1.142.853 1.865 2.153 1.989 3.573.123 1.42-.366 2.825-1.343 3.862l-38.67 41.017c-.975 1.034-2.302 1.57-3.64 1.57zm-42.971-39.793 42.238 28.284 31.921-33.858-23.497-17.557-33.063 2.584z" fill="#55a2ff"/><g fill="#2471ed"><path d="m172.289 122.093c-2.578 0-4.766-1.98-4.978-4.595-.224-2.752 1.826-5.165 4.578-5.389l89.103-7.246c2.753-.224 5.165 1.826 5.389 4.578s-1.826 5.165-4.578 5.389l-89.103 7.246c-.138.011-.275.017-.411.017z"/><path d="m222.728 155.864c-1.332 0-2.66-.529-3.644-1.575l-33.064-35.172c-1.119-1.19-1.585-2.852-1.25-4.45l5.238-24.993c.566-2.703 3.214-4.434 5.919-3.868 2.703.567 4.434 3.217 3.868 5.919l-4.704 22.442 31.279 33.272c1.891 2.012 1.793 5.176-.218 7.068-.965.907-2.196 1.357-3.424 1.357z"/><path d="m222.723 155.865c-.808 0-1.626-.196-2.385-.609-2.426-1.32-3.322-4.356-2.002-6.782l20.284-37.282-11.136-21.046c-1.292-2.441-.36-5.466 2.081-6.758s5.466-.36 6.758 2.081l12.391 23.417c.784 1.481.773 3.256-.027 4.728l-21.566 39.638c-.907 1.667-2.624 2.611-4.396 2.611z"/></g><path d="m224.639 163.587 15.666-25.305-17.89-13.558c-2.131-1.614-5.154-1.265-6.863.79l-13.524 16.294z" fill="#fff"/><path d="m224.639 168.587c-1.285 0-2.531-.496-3.468-1.399l-20.937-20.167c-1.989-1.916-2.048-5.081-.132-7.07 1.917-1.989 5.081-2.048 7.07-.133l16.477 15.871 11.083-17.902c1.454-2.348 4.535-3.073 6.883-1.62s3.073 4.535 1.62 6.883l-14.342 23.168c-.795 1.285-2.129 2.141-3.628 2.329-.208.026-.416.039-.624.039z" fill="#e3e5e5"/></svg>