<svg xmlns="http://www.w3.org/2000/svg" viewBox="0 0 3000 2314" width="3000" height="2314"><g transform="translate(186.0 1403.142857142857) rotate(0.0 559.2857142857142 386.9999999999999) scale(0.8567889803149722 0.8564324829128439)"><svg width="1305.539" height="903.749" viewBox="0 0 1305.539 903.749"><g fill="#5917C1"><path d="M18.144 203.439c-.004-32.899 6.879-62.1 20.457-86.79 24.47-44.496 82.347-97.537 219.113-97.537 19.348 0 39.745 1.089 61.002 3.231C167.398-15.183 53.019-6.575 14.526 56.802-6.475 91.38-4.231 144.831 18.199 208.248a235.133 235.133 0 0 1-.055-4.81zm1242.802 448.485c4.532 18.789 6.667 36.99 6.334 54.331-.526 27.406-7.093 52.758-19.519 75.353-11.583 21.063-28.201 39.781-49.394 55.636-18.882 14.126-41.539 26.046-67.342 35.426-38.017 13.822-82.435 22.194-132.424 25.006 145.627 18.065 256.449-4.33 293.313-65.025 26.496-43.624 13.383-107.192-30.969-180.726z"/><path d="M1199.568 755.104c-65.84 119.723-383.977 125.28-687.869-27.175C198.247 570.678 20.954 262.875 86.794 143.151c65.84-119.723 368.317-79.788 675.601 89.198s503.013 403.031 437.173 522.755z"/></g></svg></g><g transform="translate(850.2857142857142 238.28571428571428) rotate(0.0 981.8571428571429 561.8571428571429) scale(0.8581628385524505 0.8583652583154544)"><svg width="2288.277" height="1309.133" viewBox="0 0 2288.277 1309.133"><g fill="#ffd215"><path d="M468.197 866.691c449.286 110.619 624.953 501.58 1202.176 434.825 432.705-50.042 617.904-405.615 617.904-615.006 0-211.001-171.051-382.052-382.052-382.052-63.833 0-124.019 15.635-176.896 43.338-111.23 58.274-249.583 109.678-366.427 86.073-220.17-44.479-374.31-255.825-576.236-372.118C720.394 23.585 644.24 0 562.205 0 320.084 0 123.807 196.277 123.807 438.397c0 209.851 147.446 385.264 344.39 428.294zM56.011 425.934c0-121.432 46.507-231.998 122.674-314.872-237.696 60.383-194.513 303.904-118.73 375.717a469.799 469.799 0 0 1-3.945-60.844z"/></g></svg></g><g transform="translate(1490.5714285714284 134.57142857142856) rotate(0.0 664.2857142857142 624.0) scale(0.8569642768451661 0.8569756997948201)"><svg width="1550.323" height="1456.284" viewBox="0 0 1550.323 1456.284"><clipPath id="a"><path d="M384.499 189.958c9.053 23.368 23.355 56.092 36.671 85.437 19.349 42.64 53.218-24.853 40.99-57.076-18.87-49.725-84.161-45.14-77.661-28.36z"/></clipPath><clipPath id="b"><ellipse cx="415.737" cy="233.638" rx="29.217" ry="30.986" transform="matrix(.89449002 -.44708791 .44708791 .89449002 -60.592 210.521)"/></clipPath><clipPath id="c"><ellipse cx="520.609" cy="174.719" rx="34.768" ry="36.874" transform="matrix(.89449002 -.44708791 .44708791 .89449002 -23.186 251.191)"/></clipPath><path d="M1255.166 1302.483c-85.94 58.56-192.43 102.12-321.17 118.48-3.16.4-6.32.78-9.5 1.15-2.02.23-4.04.46-6.06.68-109.05 12.07-203.7 7.73-288.6-7.97-19.68-74.37-66.16-275.62-32.58-384.79 25.66-85.18 418.17-194.11 494.63-121.63 39.53 37.48 65.32 91.811 102.81 188.09 16.07 41.26 51.11 170.97 60.47 205.99z" fill="#2471ed"/><path d="M933.996 1420.964c-3.16.4-6.32.78-9.5 1.15-2.02.23-4.04.46-6.06.68l-104.84-241.75c-1.65-3.8.09-8.21 3.89-9.86s8.22.1 9.87 3.9z" fill="#004ebf"/><path d="M566.383 396.483c-29.256 11.175-148.674 48.472-144.675 78.28 3.998 29.808 106.162 518.095 175.549 555.272s141.252 3.581 176.867-10.537c37.123 8.32 114.019-10.015 166.647-42.818 0 0 147.283-26.352 151.114-68.277 7.391-80.871-69.612-195.631-116.761-341.38-23.84-73.697-70.659-200.017-108.573-214.965-37.913-14.948-116.937 16.313-116.937 16.313z" fill="#5917c1"/><path d="M774.126 1027a7.502 7.502 0 0 1-2.896-14.422c24.816-10.373 46.915-32.61 47.135-32.833a7.5 7.5 0 1 1 10.68 10.532c-.986 1-24.464 24.619-52.03 36.141a7.481 7.481 0 0 1-2.89.582z" fill="#330096"/><path d="M718.557 304.857s-25.237-48.854-31.979-65.874c-9.542-24.089-30.859-98.939-30.859-98.939-26.965-40.751-95.377-.512-136.129 26.452-40.751 26.965-51.928 79.859-15.963 120.611 0 0 36.378 98.778 48.453 131.722 9.1 24.829 24.414 68.575 85.352 57.884 63.382-11.12 92.853-75.424 95.826-107.949 1.931-21.124-1.836-44.467-14.7-63.908z" fill="#f4bbab"/><path d="M367.388 140.35c2.414 25.764 84.95 206.288 98.894 226.547 19.866 28.864 130.881-14.478 184.391-97.62 30.584-47.521-10.111-163.7-73.827-208.112-79.092-55.13-216.286 6.314-209.459 79.185z" fill="#f4bbab"/><path d="M404.711 180.113c11.991-10.01-1.545-30.339-11.701-21.551-6.384 5.524-25.699 24.684-26.059 39.331-.234 9.498 4.064 18.479 11.683 8.697s14.577-16.877 26.076-26.477zm62.365-39.592c-13.149 10.62-29.521-8.749-14.791-18.598 18.706-12.508 54.993-21.116 72.39-12.586 17.396 8.53 15.418 17.373 3.014 16.997s-42.996-.042-60.612 14.186z" fill="#111"/><path d="M622.19 169.661c-1.849 11.809-13.417 19.612-19.392 2.77s-1.881-48.712-25.943-60.926c-26.117-13.257-52.19-50.396-76.129-47.404C406.2 75.913 389.292 125.38 358.367 129.33c-18.339 2.343-48.039-3.94-56.384-39.584 0 0 31.955-.114 53.508-13.553 0 0-31.88-3.936-34.647-43.5 0 0 42.4 18.542 65.951 4.634-11.106-23.325 13.029-37.699 38.056-19.13-5.167-10.654 1.273-31.468 27.78-6.161 0 0 30.757-20.059 56.371 3.509 0 0 56.693-18.177 93.029 25.66 0 0-12.988-20.752-6.765-24.501 6.224-3.749 69.641 104.404 66.021 136.135s-39.099 16.823-39.099 16.823z" fill="#111"/><path d="M524.867 234.982c-3.974 0-7.977-.387-11.964-1.172-16.074-3.162-29.955-12.394-39.085-25.996s-12.417-29.945-9.256-46.02c3.162-16.074 12.395-29.955 25.996-39.085 13.602-9.13 29.945-12.417 46.02-9.256 16.074 3.162 29.955 12.394 39.085 25.996s12.417 29.945 9.256 46.019c-3.162 16.074-12.395 29.955-25.996 39.085-10.228 6.866-22.007 10.427-34.055 10.427zm-.197-107.667a46.056 46.056 0 0 0-25.752 7.849c-21.212 14.239-26.885 43.079-12.646 64.291 6.897 10.275 17.383 17.25 29.526 19.638 12.144 2.389 24.49-.095 34.764-6.992 10.275-6.897 17.25-17.384 19.638-29.526s-.094-24.489-6.992-34.764c-8.93-13.302-23.606-20.495-38.538-20.495zM418.404 292.919c-18.268 0-36.219-8.797-47.144-25.072-8.438-12.57-11.476-27.673-8.554-42.527s11.454-27.682 24.023-36.12c12.57-8.438 27.673-11.475 42.527-8.553s27.682 11.454 36.12 24.023c17.418 25.948 10.478 61.229-15.47 78.647a56.36 56.36 0 0 1-31.503 9.602zm-.172-98.35c-8.188 0-16.191 2.42-23.142 7.086-9.243 6.205-15.517 15.637-17.666 26.561-2.148 10.923.085 22.029 6.29 31.272 12.808 19.081 38.752 24.183 57.833 11.376 19.081-12.808 24.184-38.752 11.376-57.833-6.205-9.243-15.637-15.517-26.561-17.665a42.092 42.092 0 0 0-8.13-.796z" fill="#656c72"/><path d="M461.423 219.725a7.499 7.499 0 0 1-7.486-8.073c.675-8.814 7.967-14.848 14.895-16.918 6.928-2.069 13.5-.415 17.152 4.319a7.5 7.5 0 0 1-11.325 9.8h-.019c-.761 0-2.354.325-3.874 1.41-1.112.794-1.813 1.741-1.873 2.533a7.5 7.5 0 0 1-7.47 6.928zM569.44 151.13a7.5 7.5 0 0 1-3.256-14.261c23.799-11.446 57.307-24.426 73.396-23.349a7.5 7.5 0 1 1-1.004 14.966c-10.365-.697-38.063 8.516-65.892 21.9a7.47 7.47 0 0 1-3.245.743z" fill="#656c72"/><path d="M621.2 165.151c-3.204-36.641 28.618-65.955 55.711-37.396 27.093 28.558 8.785 66.201-13.272 72.292s-40.406-11.653-42.439-34.895z" fill="#f4bbab"/><path d="M648.719 184.328a7.49 7.49 0 0 1-6.234-3.321c-10.047-14.967-8.073-31.636 6.038-50.961a7.5 7.5 0 0 1 12.114 8.846c-13.095 17.934-9.924 27.46-5.698 33.755a7.5 7.5 0 0 1-6.22 11.681z" fill="#e09273"/><path d="M659.853 168.22a7.49 7.49 0 0 1-2.856-.568l-14.19-5.851a7.5 7.5 0 1 1 5.717-13.868l14.19 5.851a7.502 7.502 0 0 1-2.862 14.436zm-96.542 129.085a7.5 7.5 0 0 1-3.991-13.855c9.699-6.08 21.076-17.731 23.921-32.196.799-4.065 4.743-6.71 8.807-5.911s6.711 4.742 5.911 8.806c-4.743 24.113-24.675 38.251-30.671 42.01a7.467 7.467 0 0 1-3.977 1.146zm-27.586 74.818a7.504 7.504 0 0 1-7.035-4.899 7.5 7.5 0 0 1 4.431-9.637c.329-.122 33.13-12.322 53.043-24.82 38.739-24.314 59.509-56.084 62.908-76.785a7.5 7.5 0 0 1 14.802 2.43c-4.814 29.32-32.187 63.493-69.736 87.06-21.238 13.329-54.41 25.664-55.812 26.183a7.49 7.49 0 0 1-2.601.468z" fill="#e09273"/><g clip-path="url(#a)"><ellipse cx="415.737" cy="233.638" fill="#fff" rx="29.217" ry="30.986" transform="matrix(.89449002 -.44708791 .44708791 .89449002 -60.592 210.521)"/><g clip-path="url(#b)"><ellipse cx="419.694" cy="244.848" fill="#111" rx="16.702" ry="27.279" transform="matrix(.89449002 -.44708791 .44708791 .89449002 -65.187 213.473)"/></g></g><ellipse cx="520.609" cy="174.719" fill="#fff" rx="34.768" ry="36.874" transform="matrix(.89449002 -.44708791 .44708791 .89449002 -23.186 251.191)"/><g clip-path="url(#c)"><ellipse cx="519.242" cy="189.202" fill="#111" rx="19.994" ry="30.474" transform="matrix(.89449002 -.44708791 .44708791 .89449002 -29.805 252.108)"/></g><path d="M489.563 233.849c-25.842-9.199-34.263 14.093-8.21 28.787" fill="#f4bbab"/><path d="M481.346 270.138a7.467 7.467 0 0 1-3.678-.969c-18.471-10.418-22.39-24.62-18.081-34.073 3.882-8.513 15.434-14.384 32.49-8.312a7.5 7.5 0 0 1-5.031 14.132c-8.088-2.879-12.944-1.497-13.812.403-1.189 2.608 1.74 9.111 11.801 14.785a7.5 7.5 0 0 1-3.692 14.034z" fill="#e09273"/><path d="M1138.311 969.909c-74.06 48-258.57 112.94-360.59 135.04-79.71 17.26-178.23 8.94-191.97-10.47 1.89-23.23 5.55-45.07 11.51-64.44.51-1.68 1.16-3.38 1.96-5.08 15.48 3.5 67.88 12.11 158.58-4.45 96.72-17.65 281.18-91.41 333.4-112.74.23.21.46.42.68.63 17.42 16.51 32.17 36.3 46.43 61.51z" fill="#e3e5e5"/><path d="M750.811 1122.078c-7.66 0-14.647-1.032-19.304-3.894-11.689-7.184-19.487-29.07-21.599-35.607-2.787-8.625-8.549-29.89-1.884-41.027 4.659-7.786 21.547-15.213 50.194-22.074 4.2-1.006 41.384-9.714 53.638-5.785 13.74 4.407 21.897 34.804 24.069 44.015 4.901 20.778 4.423 34.207-1.419 39.913-8.835 8.629-31.583 16.041-49.925 20.099-8.918 1.973-22.121 4.361-33.77 4.361zm-29.941-72.783c-1.591 2.768-1.613 13.429 3.311 28.67 4.792 14.834 11.264 25.032 15.18 27.439 3.344 2.056 17.285 3.13 41.979-2.333 21.638-4.787 37.482-11.524 42.349-15.87 1.037-2.734 1.01-14.075-3.652-31.113-5.029-18.379-10.89-26.945-12.888-28.151-3.811-1.059-21.198.39-44.603 5.928-26.668 6.31-39.69 12.799-41.676 15.43zm102.718 38.138zm-109.129-42.032h.01z" fill="#111"/><path d="M399.056 430.115c-42.756 11.669-70.133 38.077-118.248 54.787s-70.988 16.939-109.698 25.519c-54.354 12.047-65.265 76.364-50.529 103.815 30.083 56.04 91.241 94.239 130.215 109.892 23.15 9.297 62.771 12.703 99.748 2.78 29.466-7.908 78.668.657 97.853-3.449 98.8-21.142 9.407-309.377-49.341-293.344z" fill="#ea2688"/><path d="M449.364 701.212c6.337 76.249 13.544 155.65 76.496 277.324 0 0-8.695 66.831-7.174 96.932s46.927 148.035 47.737 214.042c.131 10.651-2.712 34.709-2.712 34.709 13.763 6.774 69.733 6.774 89.233-11.651 11.344-50.617 20.952-111.799 20.376-172.367-1.011-106.273-27.086-376.863-65.205-592.427-69.278-81.809-72.429-145.605-72.429-145.605-34.062 7.16-102.685 15.768-136.629 27.945-33.944 12.178 43.971 194.848 50.308 271.097z" fill="#ea2688"/><path d="M452.55 744.331a7.501 7.501 0 0 1-7.478-7.023c-3.685-57.746-12.611-88.319-22.061-120.688-1.56-5.343-3.172-10.867-4.737-16.451a7.5 7.5 0 1 1 14.444-4.046c1.542 5.505 3.143 10.989 4.691 16.293 9.263 31.727 18.84 64.534 22.631 123.936a7.5 7.5 0 0 1-7.492 7.977zm73.319 241.705a7.501 7.501 0 0 1-7.362-8.977c.083-.413 8.322-42.022 11.276-101.932a7.5 7.5 0 0 1 14.982.738c-3.013 61.114-11.204 102.418-11.551 104.146a7.502 7.502 0 0 1-7.345 6.024z" fill="#b7006d"/><path d="m538.063 379.426-47.198 76.26 12.933 67.418 23.157-39.593 81.16 64.263c-31.113-54.321-36.478-78.609-51.197-116.095-6.178-15.733-18.855-52.253-18.855-52.253z" fill="#ea2688"/><path d="M608.11 555.274a7.468 7.468 0 0 1-4.651-1.62l-74.391-58.902-18.797 32.139a7.5 7.5 0 0 1-13.84-2.373L483.498 457.1a7.507 7.507 0 0 1 .988-5.36l31.526-50.938a7.5 7.5 0 0 1 10.325-2.43 7.5 7.5 0 0 1 2.43 10.324l-29.987 48.451 8.62 44.94 13.078-22.361a7.5 7.5 0 0 1 11.13-2.093l81.161 64.263a7.5 7.5 0 0 1-4.661 13.38z" fill="#b7006d"/><path d="M878.779 329.147c-48.224 8.126-138.829 19.46-138.829 19.46-1.24 59.266-8.654 87.436-32.368 157.827 17.498 102.575 112.84 356.037 179.389 517.546 30.292 73.518 74.304 149.144 113.27 209.733 86.336-32.306 163.745-76.269 223.826-138.341-40.106-82.494-22.593-189.243-67.631-273.798-16.693-31.34-60.039-54.367-94.343-114.045-56.443-98.193-135.089-386.507-183.314-378.381z" fill="#ea2688"/><path d="m718.557 304.857 91.478 32.487 8.652 106.977-77.226-16.457-33.88 78.57c15.867-75.158 21.526-143.655 10.975-201.576z" fill="#ea2688"/><path d="M707.579 513.935a7.499 7.499 0 0 1-6.883-10.472l33.88-78.57a7.498 7.498 0 0 1 8.45-4.365l67.375 14.358-7.84-96.938a7.5 7.5 0 0 1 6.871-8.08c4.126-.336 7.746 2.743 8.08 6.871l8.652 106.977a7.503 7.503 0 0 1-2.526 6.24 7.503 7.503 0 0 1-6.513 1.7l-71.211-15.175-31.444 72.922a7.502 7.502 0 0 1-6.891 4.532z" fill="#b7006d"/><path d="M1539.425 1080.847h.003l-10-20.001h-.002c-3.69-7.379-10.206-13.344-18.664-16.128l-425.773-140.157c-16.831-5.54-34.967 3.613-40.508 20.444l-104.877 318.6c-2.757 8.374-1.874 17.071 1.781 24.38h-.003l10 20.001h.002l588.041-207.139z" fill="#374047"/><path d="M951.385 1295.486a7.502 7.502 0 0 1-6.712-4.146l-10-20a11.595 11.595 0 0 1-.094-.194c-4.619-9.362-5.366-19.966-2.101-29.886l104.877-318.6c6.825-20.732 29.246-32.048 49.977-25.223l425.773 140.157c10.025 3.3 18.159 10.292 22.927 19.701.035.065.069.13.102.196l10 20a7.5 7.5 0 0 1-4.258 10.443l-587.967 207.112a7.49 7.49 0 0 1-2.525.44zm-3.208-30.68 6.954 13.907 573.787-202.117-6.108-12.217-.092-.178c-2.953-5.906-8.031-10.295-14.3-12.359l-425.773-140.157c-12.877-4.239-26.8 2.789-31.039 15.665l-104.877 318.6c-2.042 6.202-1.557 12.836 1.365 18.68.029.058.058.116.085.175z" fill="#374047"/><rect fill="#e3e5e5" height="512.418" rx="32.085" transform="matrix(.31268308 -.94985751 .94985751 .31268308 -269.033 1997.037)" width="399.587" x="1045.611" y="928.207"/><path d="M1405.892 1453.399c-4.164 0-8.347-.665-12.417-2.005l-425.773-140.156c-20.732-6.825-32.047-29.245-25.223-49.978l104.877-318.6c6.826-20.733 29.248-32.047 49.978-25.223l425.772 140.156c10.043 3.306 18.198 10.326 22.962 19.765s5.566 20.17 2.261 30.212l-104.877 318.6c-3.306 10.043-10.325 18.198-19.765 22.962-5.614 2.833-11.685 4.266-17.796 4.266zm-320.917-522.948c-10.33 0-19.969 6.566-23.371 16.9L956.727 1265.95c-4.239 12.876 2.789 26.801 15.665 31.04l425.773 140.156c6.237 2.053 12.901 1.554 18.764-1.404s10.222-8.023 12.275-14.261l104.877-318.599c2.054-6.238 1.555-12.902-1.404-18.764s-8.023-10.222-14.261-12.275l-425.772-140.156a24.49 24.49 0 0 0-7.669-1.235z" fill="#e3e5e5"/><rect fill="#374047" height="50.345" rx="10.695" transform="matrix(.31268308 -.94985751 .94985751 .31268308 -188.71 1739.749)" width="50.345" x="1082.612" y="975.098"/><path d="M1116.996 1036.745a18.12 18.12 0 0 1-5.676-.914l-27.503-9.053c-9.529-3.137-14.73-13.442-11.594-22.972l9.054-27.503a18.075 18.075 0 0 1 9.085-10.554 18.077 18.077 0 0 1 13.887-1.039l27.503 9.053c4.616 1.52 8.364 4.746 10.554 9.085s2.559 9.271 1.039 13.887l-9.053 27.503c-2.518 7.648-9.652 12.508-17.296 12.508zm-18.435-57.95c-.635 0-1.144.194-1.441.345a3.184 3.184 0 0 0-1.595 1.853l-9.054 27.503a3.199 3.199 0 0 0 2.036 4.034l27.503 9.053a3.198 3.198 0 0 0 4.034-2.036l9.053-27.503c.36-1.094.041-1.997-.182-2.438s-.76-1.235-1.854-1.595l-27.503-9.053a3.174 3.174 0 0 0-.998-.162z" fill="#374047"/><g fill="#f4bbab"><path d="m1160.108 1190.363 10.386-145.951c8.053-96.76 184.747-82.055 176.694 14.705l-28.028 155.326c-13.075 86.359-172.127 62.279-159.052-24.08z"/><path d="M1160.108 1190.363c-4.338 35.72-57.677 102.575-57.362 129.148.305 25.69 150.053 91.516 163.004 74.456 7.642-10.066 19.915-30.331 43.088-78.904 11.986-25.123 14.633-56.154 10.321-100.62-6.305-65.017-159.052-24.08-159.052-24.08z"/><path d="M1102.747 1319.512c.001 35.952 8.982 99.543 19.688 112.576 10.707 13.033 68.313 17.378 81.612 6.584 5.966-4.842 6.928-47.476 7.312-58.016.962-26.394-35.849-30.505-39.167-3.474l-3.318 27.03-11.204-.42-.969-48.005-53.955-36.275z"/><path d="M1147.412 1352.989c-3.068 16.585 1.457 70.196 6.6 79.781 5.129 9.558 51.152 26.649 60.635 22.543 6.684-2.895 25.035-29.427 29.66-35.826 13.621-18.846-17.346-42.499-33.013-22.602-14.821 18.821-13.849 16.165-13.849 16.165l-8.072-6.208 4.918-41.594-46.879-12.258z"/><path d="M1188.133 1363.637c-3.787 14.067-8.333 60.448-5.448 66.671s45.73 25.449 53.684 22.734 28.803-21.515 34.035-26.368c14.992-13.906-9.607-41.267-29.802-23.946-5.813 4.985-13.259 11.688-13.259 11.688l-7.114-3.493 10.71-33.196-42.806-14.091z"/><path d="M1223.805 1375.379c-4.039 11.737-8.273 40.676-8.116 49.777.156 9.101 48.664 26.645 58.057 21.625s27.654-36.063 32.962-46.48c10.625-20.855-21.348-39.057-32.264-20.583-5.986 10.129-10.695 19.746-10.695 19.746l10.695-19.746-50.638-4.338z"/></g><path d="M1169.223 1452.201a7.462 7.462 0 0 1-3.773-1.024c-.393-.229-9.692-5.701-16.868-13.233-3.777-3.965-8.218-13.088-9.035-48.741-.429-18.704.34-35.835.373-36.555.189-4.138 3.702-7.342 7.834-7.149a7.5 7.5 0 0 1 7.15 7.834c-.008.167-.759 16.941-.376 34.861.71 33.191 4.529 38.914 4.962 39.458 5.632 5.91 13.455 10.532 13.533 10.579a7.503 7.503 0 0 1-3.8 13.972z" fill="#e09273"/><path d="M1213.332 1456.286a7.48 7.48 0 0 1-2.726-.516c-6.567-2.564-28.454-11.703-34.365-21.624-2.329-3.907-3.96-11.615-.168-41.305 1.995-15.62 4.569-29.935 4.678-30.537a7.5 7.5 0 0 1 8.712-6.049 7.5 7.5 0 0 1 6.049 8.712c-4.545 25.197-8.105 55.781-6.251 61.71 2.589 3.793 15.798 10.815 26.803 15.12a7.5 7.5 0 0 1-2.733 14.487zm-24.015-29.442z" fill="#e09273"/><path d="M1250.035 1451.675a7.474 7.474 0 0 1-2.61-.471c-.341-.126-8.452-3.148-16.957-7.105-16.384-7.625-20.636-12.245-21.979-16.838-3.12-10.671 7.996-53.575 8.116-53.984a7.501 7.501 0 0 1 14.399 4.206c-2.176 7.451-8.622 37.691-8.15 45.042 3.167 3.098 16.577 9.706 29.795 14.619a7.5 7.5 0 0 1 4.417 9.642 7.504 7.504 0 0 1-7.031 4.89zm-27.101-28.434h.01z" fill="#e09273"/><path d="M1277.491 1375.924c-3.391 5.795-6.245 10.28-8.688 13.817a1501.533 1501.533 0 0 0-9.406 17.517l36.412 11.986c4.745-7.61 8.818-14.862 10.897-18.944 9.761-19.159-16.427-36.075-29.216-24.376z" fill="#e3e5e5"/><path d="M878.779 329.147c180.919-19.869 233.181 108.564 338.877 184.822 16.841 12.15 44.421 34.382 57.208 78.305 15.373 52.803 95.073 103.413 113.698 189.258 12.041 55.499-126.466 141.137-210.07 93.818-112.122-63.461-139.21-143.324-169.767-195.338-24.183-41.164-41.877-73.281-83.894-102.467-63.261-43.942-142.033-237.857-46.053-248.398z" fill="#ea2688"/><path d="M1147.04 865.62a7.47 7.47 0 0 1-4.736-1.688c-55.626-45.376-85.053-78.538-108.574-122.356-27.664-51.538-42.903-79.927-71.393-119.356-13.611-18.837-41.503-38.321-41.783-38.515a7.5 7.5 0 1 1 8.557-12.319c1.229.854 30.29 21.16 45.384 42.049 29.076 40.239 45.402 70.655 72.452 121.047 22.489 41.895 50.903 73.83 104.839 117.827a7.5 7.5 0 0 1-4.745 13.312zm145.392-197.407a7.503 7.503 0 0 1-7.329-5.942c-.079-.373-8.03-37.603-17.402-67.772a7.5 7.5 0 0 1 4.938-9.387 7.5 7.5 0 0 1 9.388 4.938c9.579 30.837 17.668 68.723 17.749 69.102a7.5 7.5 0 0 1-7.343 9.062z" fill="#b7006d"/><path d="M1278.015 711.255c34.656-5.745 92.94 8.424 110.547 70.277 15.904 55.871 1.539 213.617-7.962 250.275 27.175 22.16.345 68.293-23.402 113.841-21.73 41.679-177.041 10.531-190.293-16.514-20-40.816-7.938-101.594 8.332-134.907 0 0-47.338-91.283-17.216-180.106 23.642-69.714 85.337-97.12 119.993-102.865z" fill="#ea2688"/><path d="M1175.232 1001.729a7.5 7.5 0 0 1-6.785-10.687c12.365-26.362 24.435-54.967 24.556-55.253a7.5 7.5 0 0 1 13.823 5.825c-.122.289-12.307 29.169-24.798 55.798a7.502 7.502 0 0 1-6.795 4.317zm-22.137-69.7a7.502 7.502 0 0 1-7.356-6.083c-18.606-96.602 20.608-146.53 22.287-148.608a7.5 7.5 0 0 1 11.684 9.407c-.193.245-9.275 11.894-16.14 34.261-6.381 20.793-12.1 55.386-3.102 102.103a7.5 7.5 0 0 1-7.373 8.92zm180.228 148.457a7.5 7.5 0 0 1-4.947-13.14 11261.824 11261.824 0 0 1 47.316-41.21 7.5 7.5 0 0 1 10.579.765 7.5 7.5 0 0 1-.765 10.579c-.229.198-23.235 20.106-47.244 41.147a7.474 7.474 0 0 1-4.94 1.86z" fill="#b7006d"/><path d="M1158.75 1103.788c-12.954-13.055-38.843 48.92-26.302 67.422s63.635 51.43 128.171 60.862c52.109 7.615 82.785 6.289 93.038-2.386s17.652-67.439 7.94-80.315c-5.794-7.682-30.532 3.629-90.476-4.549-74.652-10.185-102.173-30.756-112.372-41.034z" fill="#ea2688"/><path d="M1319.155 1154.958c-15.033 0-33.379-.76-53.153-3.252-46.066-5.805-95.283-26.618-112.347-42.414a7.5 7.5 0 1 1 10.19-11.008c15.042 13.923 61.465 33.175 104.033 38.54 47.775 6.02 88.042 1.423 88.443 1.376 4.119-.484 7.84 2.458 8.325 6.571s-2.455 7.84-6.567 8.326c-1.028.121-16.185 1.862-38.923 1.862z" fill="#b7006d"/><path d="M70.474 980.992c35.345 0 165.254-120.177 180.274-151.591 15.92-33.297-64.28-53.217-130.939 5.645-62.552 55.236-66.815 145.946-49.335 145.946z" fill="#111"/><path d="M213.311 835.244c39.794-12.89 87.592 37.631 114.444 76.163 20.258 29.069-84.707 136.789-116.706 114.23-35.385-24.946-44.573-34.985-75.492-66.976-8.913-9.222-16.722-8.317-14.634-22.704 4.592-31.651 39.579-83.607 92.389-100.713z" fill="#f4bbab"/><path d="M266.41 847.546s72.648 52.121 119.673 126.699c14.589 23.138 33.605 63.011 39.415 73.733 9.78 18.051-23.719 44.774-39.973 20.952-15.7-23.01-29.085-45.635-34.819-55.549a50.94 50.94 0 0 0-7.338-9.76L220.903 893.988z" fill="#f4bbab"/><path d="M238.045 871.101s83.155 112.76 88.964 123.482c9.78 18.051-21.642 43.216-39.973 20.952-17.546-21.311-92.451-111.91-92.451-111.91l43.459-32.525z" fill="#f4bbab"/><path d="M197.551 896.213s80.746 109.348 86.556 120.07c9.78 18.051-21.642 43.216-39.973 20.952-17.546-21.311-94.027-111.74-94.027-111.74z" fill="#f4bbab"/><path d="M189.86 976.46c17.514 24.185 41.965 53.225 47.774 63.947 9.78 18.051-15.32 35.915-39.973 20.952-30.641-18.598-75.806-65.584-80.761-114.121-1.365-13.369 6.845-34.262 21.15-34.012 7.33.128 11.477 7.536 51.809 63.233z" fill="#f4bbab"/><path d="M266.41 847.546c-15.945-9.033-15.662-18.145-15.662-18.145l-31.855-175.823c-8.34-68.942-182.806-59.804-180.417 27.799 2.065 75.723 52.141 182.634 60.481 201.677 5.597 12.779 13.091 33.232 17.945 64.185 1.537 9.804 22.995 44.357 102.843-3.165 46.008-27.382 62.61-87.494 46.666-96.527z" fill="#f4bbab"/><path d="M247.089 1053.478a7.484 7.484 0 0 1-5.615-2.524l-28.355-31.98a7.5 7.5 0 0 1 11.223-9.951l28.355 31.98a7.5 7.5 0 0 1-5.609 12.475zm42.813-24.103a7.482 7.482 0 0 1-5.867-2.823l-27.304-34.219a7.5 7.5 0 0 1 11.725-9.355l27.304 34.219a7.5 7.5 0 0 1-5.858 12.178zm42.413-28.154a7.496 7.496 0 0 1-6.246-3.338c-.153-.229-15.439-23.071-28.177-36.503a7.5 7.5 0 0 1 10.884-10.322c13.628 14.371 29.119 37.521 29.771 38.5a7.5 7.5 0 0 1-6.233 11.663z" fill="#e09273"/><path d="M171.11 510.421c-59.921 14.858-155.023 57.504-168.891 174.51-3.34 28.178 2.832 67.962 5.516 91.106-4.265 30.023 1.061 89.782 12.553 115.511 11.229 25.141 17.68 36.644 17.68 36.644s5.668-150.218 209.918-156.89c0 0 7.891 5.364-4.155-25.582 5.167-7.595 7.118-19.715 6.2-26.083 9.15-12.83 10.976-30.426 11.123-37.021 2.189-97.892-89.944-172.196-89.944-172.196z" fill="#ea2688"/><path d="M249.924 727.138a7.5 7.5 0 0 1-6.088-11.872c21.915-30.552 3.942-93.724-17.458-127.581a7.5 7.5 0 0 1 12.68-8.014c12.464 19.72 22.605 46.093 27.127 70.547 3.999 21.625 5.482 51.982-10.161 73.791a7.491 7.491 0 0 1-6.101 3.129z" fill="#b7006d"/><path d="M250.748 829.402c7.521-7.228 16.361-22.96-2.863-72.58-12.691-32.757-134.331-24.354-197.147 60.19-32.351 43.542-33.592 81.503-33.842 92.344-.544 23.535 44.117 73.437 53.578 71.637-9.695-10.648-2.981-70.602 66.455-130.53 45.981-39.685 112.054-45.717 113.819-21.06z" fill="#ea2688"/><path d="M18.096 904.311a7.494 7.494 0 0 1-7.494-7.932c.136-2.318 3.913-57.336 54.18-106.731 30.5-29.97 68.142-51.019 105.993-59.268 33.34-7.266 63.219-3.523 77.974 9.769a7.5 7.5 0 1 1-10.039 11.145c-9.062-8.163-32.594-13.264-64.741-6.258-35.123 7.655-70.166 27.298-98.673 55.312-45.958 45.161-49.688 96.416-49.721 96.928a7.508 7.508 0 0 1-7.48 7.036zm238.757-190.485a7.499 7.499 0 0 1-7.317-9.179c2.598-11.326-7.948-24.355-19.114-38.149-4.012-4.957-8.161-10.083-11.931-15.4a7.5 7.5 0 1 1 12.236-8.675c3.493 4.927 7.489 9.864 11.354 14.638 12.933 15.977 26.305 32.498 22.075 50.94a7.502 7.502 0 0 1-7.303 5.825zM7.509 785.301a7.5 7.5 0 0 1-7.415-8.683c8.745-54.804 38.044-81.906 39.287-83.033a7.5 7.5 0 0 1 10.089 11.101c-.44.407-26.724 25.166-34.563 74.296a7.502 7.502 0 0 1-7.397 6.319z" fill="#b7006d"/></svg></g><g transform="translate(850.2857142857142 738.8571428571428) rotate(0.0 569.1428571428571 506.5714285714286) scale(0.8565165938803135 0.8569507319787503)"><svg width="1328.971" height="1182.265" viewBox="0 0 1328.971 1182.265"><rect fill="#e3e5e5" height="1167.265" rx="90" width="1313.971" x="7.5" y="7.5"/><path d="M1231.471 1182.265H97.5c-53.762 0-97.5-43.739-97.5-97.5V97.5C0 43.738 43.738 0 97.5 0h1133.971c53.762 0 97.5 43.738 97.5 97.5v987.265c0 53.762-43.738 97.5-97.5 97.5zM97.5 15C52.009 15 15 52.009 15 97.5v987.265c0 45.49 37.009 82.5 82.5 82.5h1133.971c45.491 0 82.5-37.01 82.5-82.5V97.5c0-45.491-37.009-82.5-82.5-82.5z" fill="#e3e5e5"/><path d="M567.477 1182.265a7.5 7.5 0 0 1-7.5-7.5V196.813a7.5 7.5 0 0 1 15 0v977.952a7.5 7.5 0 0 1-7.5 7.5z" fill="#caccd2"/><path d="M97.5 7.5h1133.971c49.672 0 90 40.328 90 90v99.313H7.5V97.5c0-49.672 40.328-90 90-90z" fill="#b7b7b7"/><path d="M1321.471 204.313H7.5a7.5 7.5 0 0 1-7.5-7.5V97.5C0 43.738 43.738 0 97.5 0h1133.971c53.762 0 97.5 43.738 97.5 97.5v99.313a7.5 7.5 0 0 1-7.5 7.5zM15 189.313h1298.971V97.5c0-45.491-37.009-82.5-82.5-82.5H97.5C52.009 15 15 52.009 15 97.5z" fill="#b7b7b7"/><circle cx="1227.532" cy="102.156" fill="#e3e5e5" r="44.618"/><circle cx="1113.067" cy="102.156" fill="#e3e5e5" r="44.618"/><circle cx="998.603" cy="102.156" fill="#e3e5e5" r="44.618"/><g fill="#caccd2"><path d="M147.015 326.565H80.07a7.5 7.5 0 0 1 0-15h66.945a7.5 7.5 0 0 1 0 15zm341.704 0H196.601a7.5 7.5 0 0 1 0-15H488.72a7.5 7.5 0 0 1 0 15zM263.546 431.343h-66.945a7.5 7.5 0 0 1 0-15h66.945a7.5 7.5 0 0 1 0 15zm225.173 0H313.13a7.5 7.5 0 0 1 0-15h175.589a7.5 7.5 0 0 1 0 15zM263.546 640.9h-66.945a7.5 7.5 0 0 1 0-15h66.945a7.5 7.5 0 0 1 0 15zm225.173 0H313.13a7.5 7.5 0 0 1 0-15h175.589a7.5 7.5 0 0 1 0 15zM263.546 955.234h-66.945a7.5 7.5 0 0 1 0-15h66.945a7.5 7.5 0 0 1 0 15zm225.173 0H313.13a7.5 7.5 0 0 1 0-15h175.589a7.5 7.5 0 0 1 0 15zM147.015 536.121H80.07a7.5 7.5 0 0 1 0-15h66.945a7.5 7.5 0 0 1 0 15zm341.704 0H196.601a7.5 7.5 0 0 1 0-15H488.72a7.5 7.5 0 0 1 0 15zm0 209.557H196.601a7.5 7.5 0 0 1 0-15H488.72a7.5 7.5 0 0 1 0 15zm0 104.778H200.816a7.5 7.5 0 0 1 0-15h287.903a7.5 7.5 0 0 1 0 15zm-341.704 209.557H80.07a7.5 7.5 0 0 1 0-15h66.945a7.5 7.5 0 0 1 0 15zm341.704 0H196.601a7.5 7.5 0 0 1 0-15H488.72a7.5 7.5 0 0 1 0 15z"/></g></svg></g><g transform="translate(1142.5714285714284 1157.142857142857) rotate(0.0 495.8571428571429 200.57142857142856) scale(0.856737073291376 0.8567950130136421)"><svg width="1157.548" height="468.19" viewBox="0 0 1157.548 468.19"><rect fill="#5ac4ff" height="453.19" rx="60" width="1142.548" x="7.5" y="7.5"/><path d="M1090.048 468.19H67.5c-37.22 0-67.5-30.281-67.5-67.5V67.5C0 30.28 30.28 0 67.5 0h1022.548c37.22 0 67.5 30.28 67.5 67.5v333.19c0 37.22-30.28 67.5-67.5 67.5zM67.5 15C38.551 15 15 38.551 15 67.5v333.19c0 28.949 23.551 52.5 52.5 52.5h1022.548c28.949 0 52.5-23.551 52.5-52.5V67.5c0-28.949-23.551-52.5-52.5-52.5z" fill="#5ac4ff"/><path d="m338.211 460.69 296.818-231.805c20.464-15.982 48.354-18.604 71.438-6.717l41.768 21.509c24.371 12.55 53.943 8.874 74.5-9.259l82.526-72.797c15.177-13.388 37.8-13.869 53.532-1.139l191.255 154.756v85.452c0 33.137-26.863 60-60 60z" fill="#0a3ea5"/><path d="M1090.048 468.19H338.211a7.5 7.5 0 0 1-4.616-13.411l296.818-231.805c22.69-17.721 53.891-20.654 79.488-7.474l41.769 21.509c21.782 11.217 47.73 7.993 66.105-8.216l82.526-72.797a48.85 48.85 0 0 1 63.211-1.345l191.255 154.756a7.5 7.5 0 0 1 2.782 5.83v85.452c0 37.22-30.28 67.5-67.5 67.5zm-730.049-15h730.049c28.949 0 52.5-23.551 52.5-52.5v-81.873L954.075 166.313a33.888 33.888 0 0 0-43.853.933l-82.526 72.797c-23.042 20.325-55.58 24.369-82.895 10.303l-41.769-21.509c-20.413-10.511-45.294-8.171-63.388 5.96L359.998 453.191z" fill="#0a3ea5"/><g fill="#ffd215"><circle cx="248.848" cy="160.414" r="88.838"/><path d="M248.848 256.752c-53.121 0-96.338-43.217-96.338-96.338s43.217-96.338 96.338-96.338 96.338 43.217 96.338 96.338-43.217 96.338-96.338 96.338zm0-177.676c-44.85 0-81.338 36.488-81.338 81.338s36.488 81.338 81.338 81.338 81.338-36.488 81.338-81.338-36.488-81.338-81.338-81.338z"/></g></svg></g><g transform="translate(192.0 1140.0) rotate(0.0 606.8571428571428 489.8571428571429) scale(0.85701938824794 0.8568647321947869)"><svg width="1416.204" height="1143.371" viewBox="0 0 1416.204 1143.371"><clipPath id="d"><ellipse cx="796.816" cy="190.639" rx="26.908" ry="30.662" transform="matrix(.95147095 -.30773859 .30773859 .95147095 -19.998 254.468)"/></clipPath><clipPath id="e"><path d="M891.619 128.262c2.672 15.859 3.038 30.455 5.581 42.316 2.537 11.834 9.199 21.311 14.904 31.698 7.115 12.953-32.744 18.994-45.107-.214-33.448-51.971 19.713-102.931 24.621-73.8z"/></clipPath><clipPath id="f"><ellipse cx="888.979" cy="166.159" rx="23.372" ry="26.633" transform="matrix(.95147095 -.30773859 .30773859 .95147095 -7.992 281.643)"/></clipPath><path d="M751.642 1126.457c-79.52-18.96-163.38-48.76-246.18-90.3-69.55-34.89-132.4-77.2-187.38-123.22 20.73-41.75 34.95-67.52 37.82-73.28 47.86-95.92 390.83-51.36 391 53.35.05 28.83 3.08 141.15 4.74 233.45z" fill="#007a63"/><path d="M1154.645 403.134c-13.871 29.947-39.056 85.283-76.48 167.097-14.825 32.41 120.42 130.721 140.603 75.306 20.183-55.416 42.694-122.62 56.386-159.833 16.873-45.859-91.103-146.059-120.509-82.57zm231.197-15.272s-17.511 23.053-27.795 34.907c-17.137 19.755 9.595 40.799 27.119 25.417 11.671-10.245 31.344-29.964 31.035-43.456s-9.52-28.892-16.167-33.254-46.729 11.301-58.979 16.07l12.036 33.775 9.798-3.715" fill="#a85f36"/><path d="M1369.378 360.917s-5.299 6.64-19.128 28.837 13.217 44.137 27.119 25.417c7.421-9.993 29.728-38.564 29.419-52.056s-11.546-25.848-18.193-30.21-51.798 8.738-64.047 13.507l13.553 38.032 20.428-7.722" fill="#a85f36"/><path d="M1356.788 321.798s-7.387 14.081-21.216 36.278 13.217 44.137 27.119 25.417c7.421-9.993 31.816-46.005 31.507-59.497s-11.546-25.848-18.193-30.21-56.461 13.733-68.71 18.502l19.182 37.939 17.66-6.201" fill="#a85f36"/><path d="M1150.279 414.51c17.53-54.792 84.742-103.859 123.709-135.652s107.795 117.693 88.902 138.747-59.833 84.671-111.882 92.346-100.729-95.441-100.729-95.441z" fill="#a85f36"/><path d="M1349.155 397.395c-4.26 0-8.591-1.063-12.586-3.265-10.845-5.979-15.037-18.029-10.678-30.699 4.034-11.726 11.711-23.13 12.036-23.609a7.499 7.499 0 0 1 10.415-2.005 7.499 7.499 0 0 1 2.005 10.415c-.066.098-6.897 10.27-10.271 20.078-2.673 7.771 1.192 11.282 3.735 12.683 3.883 2.14 9.606 2.074 13.032-2.195 8.549-10.652 23.88-35.403 27.845-46.12a7.5 7.5 0 0 1 14.069 5.206c-4.598 12.425-20.726 38.48-30.215 50.304-4.82 6.006-11.994 9.208-19.385 9.208z" fill="#773a11"/><path d="M1363.787 430.162c-4.919 0-9.578-1.686-13.351-4.432-10.83-7.881-16.215-25.017-6.481-40.052a7.5 7.5 0 0 1 12.592 8.152c-5.343 8.252-1.539 16.676 2.714 19.771 5.042 3.668 9.467.302 12.293-3.167 4.406-5.41 11.848-16.36 18.413-26.021 3.242-4.771 6.304-9.277 8.735-12.723a7.5 7.5 0 0 1 12.258 8.646c-2.355 3.339-5.382 7.793-8.586 12.508-6.736 9.913-14.372 21.149-19.188 27.063-5.96 7.317-12.906 10.255-19.398 10.255z" fill="#773a11"/><path d="M1332.89 290.009s-9.459 25.121-15.51 40.615c-10.58 27.089 24.256 35.576 34.678 18.943 9.782-15.611 23.835-53.831 22.743-65.019s-12.824-30.493-25.654-31.383c-12.83-.891-60.127 15.842-75.159 25.694l26.709 35.999 26.73-10.407" fill="#a85f36"/><path d="M1335.116 366.085c-3.71 0-7.387-.638-10.702-1.896-10.799-4.097-20.204-15.614-14.237-35.654l13.32-47.315a7.5 7.5 0 1 1 14.438 4.065l-13.335 47.371a5.076 5.076 0 0 1-.034.116c-1.89 6.322-2.528 14.472 5.169 17.392 5.799 2.201 13.634.306 15.521-3.756.531-1.144 1.074-2.305 1.625-3.483 3.937-8.418 8.398-17.959 11.457-27.641a7.5 7.5 0 0 1 14.304 4.518c-3.356 10.623-8.04 20.639-12.172 29.477-.545 1.165-1.083 2.315-1.608 3.447-4.188 9.018-14.072 13.359-23.745 13.359z" fill="#773a11"/><path d="M1207.356 357.897c21.264-13.402 47.778-38.943 58.878-43.171 7.951-3.029 41.427-16.068 48.463-18.886s32.954-1.795 40.655-2.401c28.587-2.248 33.311 38.773 1.924 41.77-6.564.627-27.676 1.758-27.676 1.758-12.809 5.496-35.721 18.754-35.721 18.754.12 33.09-16.124 54.501-40.358 69.358" fill="#a85f36"/><path d="M1253.529 432.581a7.5 7.5 0 0 1-3.927-13.895c25.191-15.444 36.878-35.443 36.778-62.937a7.5 7.5 0 0 1 3.744-6.519c.951-.55 23.45-13.548 36.52-19.155a7.484 7.484 0 0 1 2.556-.597c.21-.011 21.031-1.13 27.365-1.735 11.75-1.122 15.293-8.716 14.757-14.879-.566-6.505-5.541-12.723-15.381-11.948-2.632.207-6.846.24-11.724.279-7.521.059-23.172.182-26.73 1.607-7.258 2.907-41.01 16.048-48.582 18.933-4.767 1.816-15.3 10.299-25.488 18.503-10.165 8.187-21.687 17.466-32.061 24.004a7.5 7.5 0 0 1-10.344-2.346 7.5 7.5 0 0 1 2.346-10.344c9.64-6.076 20.802-15.065 30.651-22.997 12.61-10.156 22.571-18.177 29.556-20.838 7.539-2.872 41.126-15.949 48.345-18.84 5.743-2.3 16.963-2.563 32.189-2.682 4.403-.035 8.562-.067 10.667-.233 19.085-1.5 30.293 11.743 31.5 25.601 1.219 14.003-8.102 29.186-28.275 31.112-5.739.548-21.803 1.444-26.629 1.707-9.312 4.143-23.432 11.989-30.055 15.737-1.146 30.61-15.529 53.983-43.864 71.355a7.462 7.462 0 0 1-3.913 1.107z" fill="#773a11"/><path d="M926.006 461.851c4.708 8.293 12.244 20.387 20.827 35.095 28.166 48.265 71.552 122.324 106.034 157.07 18.676 18.819 42.672 67.481 30.304 122.71-20.56 91.81-130.448 101.35-152.952 72.805-49.12-62.307-174.282-242.558-174.51-366.009-.147-79.784 87.862-94.452 106.322-88.177 28.977 9.85 52.586 46.442 63.975 66.505z" fill="#ff5cf0"/><path d="M1043.302 643.657c-.33.34-.57.59-.69.7-.54.52-53.74 52.7-81.76 98.33-23.06 37.55-34.96 67.28-41.45 92.8-6.69-8.85-14.2-19.1-22.23-30.48 8.03-23.38 20.01-48.54 38.11-78.01 29.99-48.84 84.08-101.87 86.37-104.1.87-.85 1.86-1.82 2.92-2.84 3.18 4.31 6.34 8.46 9.47 12.4l1.17 1.47c.78.98 1.55 1.94 2.33 2.89.39.47.77.94 1.16 1.41 1.54 1.87 3.08 3.68 4.6 5.43zm-37.8-50.9c-17.65 4.32-39.79 16.53-62.95 53.62-29.25 46.83-64.63 66.66-99.39 75.49-5.28-8.88-10.52-17.98-15.66-27.23 34.81-6.88 64.16-23.4 89.61-64.15 24.67-39.5 50.23-56.47 71.43-63.98h.01c.66 1.05 1.32 2.09 1.97 3.14.74 1.17 1.48 2.33 2.22 3.5 1.29 2.03 2.59 4.05 3.88 6.07 2.94 4.56 5.91 9.09 8.88 13.54zm-39.82-63.75c-10.91-2.98-25.77-4.65-40.77 1.03-10.46 3.96-23.41 17.01-35.93 29.63-14.73 14.85-29.96 30.2-46.92 37.59-19.81 8.62-38.57 12.78-55.25 14.33a563.84 563.84 0 0 1-11.26-29.27c15.71-.56 34.4-3.81 54.53-12.57 11.69-5.09 24.86-18.37 37.6-31.2 15.45-15.58 30.05-30.3 46.6-36.57 11.16-4.23 22.06-5.78 32.13-5.74h.01c.13.23.27.47.41.71.44.75.88 1.51 1.33 2.28.89 1.53 1.8 3.09 2.73 4.67.92 1.57 1.85 3.18 2.81 4.8a3204.184 3204.184 0 0 0 11.98 20.31z" fill="#ea2688"/><path d="M1120.205 480.639c56.214 9.111 165.652 74.346 159.256 97.697-2.848 10.397-12.154 22.61-33.732 58.055 0 0-35.21 121.899-73.302 187.358-28.748 49.403-72.549 82.176-139.244 82.176-57.846 0-102.966-56.394-102.966-56.394s160.013-307.07 189.987-368.892z" fill="#ff5cf0"/><path d="M1240.072 655.037c-2.99 9.61-7.07 22.34-11.98 36.8-21.32-33.56-31.46-43.92-46.42-46.18-4.81-.73-14.87-.11-23.76.95-18.78 2.23-44.51 5.3-67.86-11.29-13.91-9.88-24.01-22.95-30.95-34.43-.02-.03-.04-.07-.06-.1 5.95-11.58 11.66-22.7 17.01-33.15.02.05.04.1.06.16 2.74 7.09 12.59 29.77 31.31 43.06 13.92 9.89 29.96 7.98 46.94 5.96 12.13-1.45 25.16-2.22 36.11.16 17.55 3.8 30.91 12 49.6 38.06zm-64.93 163.95c-.9 1.62-1.8 3.2-2.71 4.76-5.06 8.7-10.59 16.88-16.64 24.46-7.43-13.19-14.12-30.37-16.99-51.89l-.34-2.56c-2.91-21.89-4.44-31.77-10.08-36.62-8.17-7.01-20.93-6.57-35.7-6.07-18.83.65-40.18 1.37-56.65-14.79-10.22-10.02-16.35-28-18.59-54.71-.01-.03-.01-.05-.01-.08 10.32-19.97 10.8-20.88 20.7-40.09 0 .06-.01.12-.01.18-.92 11.81 7.86 60.35 18.92 73.29 6.19 7.24 17.61 6.8 34.61 6.22 18.39-.63 39.22-1.34 56.27 13.29 14.57 12.5 16.84 29.58 20.28 55.42l.33 2.55c1.36 10.14 3.72 18.99 6.61 26.64z" fill="#ea2688"/><path d="M1053.882 904.817c-6.64.73-13.54 1.11-20.7 1.11-3.13 0-6.23-.17-9.28-.48 1.44-61.61-14.58-81.67-28.95-99.67-8.72-10.92-17.67-22.14-21.33-39.69 0-.02-.01-.03-.01-.05-.86-4.17-1.43-8.7-1.62-13.66-2.43-63.35 55.2-125.64 55.2-125.64l10.94 14.66c-4.92 7.83-13.07 22.24-20.4 39.6-8.47 20.07-15.83 44.08-15.83 66.45 0 1.27.02 2.53.07 3.78.62 16.03 6.91 23.91 16.42 35.83 9.2 11.52 20.64 25.85 27.94 50.3 5.52 18.51 8.03 40.77 7.55 67.46z" fill="#ea2688"/><path d="M952.785 759.3a7.46 7.46 0 0 1-3.624-.939 7.5 7.5 0 0 1-2.932-10.193c15.04-27.182 29.122-41.196 42.74-54.748 14.648-14.577 28.485-28.346 44.031-58.432 1.901-3.68 6.426-5.122 10.106-3.22s5.122 6.426 3.22 10.106c-16.626 32.174-31.954 47.427-46.777 62.178-13.467 13.402-26.188 26.061-40.195 51.377a7.497 7.497 0 0 1-6.569 3.87zm231.79-50.223a7.5 7.5 0 0 1-4.944-13.142c12.5-10.947 39.233-36.766 60.142-64.1a7.5 7.5 0 1 1 11.914 9.114c-20.22 26.434-46.13 52.221-62.173 66.271a7.474 7.474 0 0 1-4.938 1.858z" fill="#cc2bc5"/><path d="M485.015 392.239c32.845-9.338 119.428-15.828 142.632-19.17S774.714 383.7 774.714 383.7s51.257 7.582 60.739 10.217-7.216 195.041-95.174 202.389c-87.958 7.347-255.264-204.066-255.264-204.066z" fill="#a85f36"/><path d="M761.952 224.784c36.466 14.694 54.143 56.23 39.449 92.696l-47.848 118.744c-14.694 36.466-56.23 54.143-92.697 39.448-36.465-14.694-54.143-56.23-39.448-92.696l47.847-118.744c14.694-36.465 56.23-54.142 92.696-39.448z" fill="#a85f36"/><path d="M653.503 23.406C631.114-3.238 552.99-19.759 532.825 49.112c-17.117 58.46 31.748 89.421 70.315 83.798 49.199-7.173 84.427-68.965 50.363-109.504z" fill="#4f2000"/><path d="M574.309 130.656c-7.28 6.301-28.332 10.308-48.786-.233 6.854 22.792 31.594 30.689 54.22 24.676 30.954-8.227-5.434-24.442-5.434-24.442z" fill="#4f2000"/><path d="M825.774 37.216c74.515 44.052 64.213 99.715 71.426 133.361 5.701 26.591 32.227 41.284 21.939 81.137-8.773 33.98-24.294 74.895-46.057 84.443s-139.999 4.886-191.187-51.589c-47.666-52.589-65.152-103.686-45.015-173.954C659.186 32.778 770.993 4.83 825.775 37.216z" fill="#a85f36"/><path d="M798.994 43.784C792.633 14.801 733.32-3.093 677.722 9.049c-88.411 19.308-102.05 88.14-103.613 167.899-1.564 79.759 32.072 94.561 100.644 87.799 2.666-30.842 35.552-57.712 45.765-89.197 19.883-61.301-1.372-107.996 78.477-131.766z" fill="#4f2000"/><path d="M685.487 238.339c-15.189-36.115-83.157-32.305-62.138 20.383 12.508 31.354 38.77 33.469 58.545 25.846 14.033-5.41 9.549-32.068 3.593-46.229z" fill="#a85f36"/><path d="M741.539 7.5C762.826.602 844.685-7.451 873.59 33.942c22.098 31.645 9.986 65.281 9.986 65.281s-13.982-34.043-40.995-48.628c-19.029-10.274-43.588-6.811-43.588-6.811-5.79-18.568-24.445-29.966-57.455-36.284z" fill="#4f2000"/><path d="M730.787 67.61c-20.634 50.238-3.586 68.308-19.373 110.827-12.271 33.049-25.388 38.62-25.624 87.944-.246 51.477 38.877 76.679 38.877 76.679-11.979-14.652-20.021-52.761-17.119-76.575 3.773-30.957 30.594-62.452 46.616-84.714 36.042-50.082 19.145-96.033 44.831-137.987" fill="#4f2000"/><path d="M867.372 123.89c-16.259 12.621-33.941-6.243-20.796-16.469 13.145-10.227 35.872-11.521 44.126-5.401s7.987 15.596-1.485 14.553c-9.472-1.042-15.93 2.726-21.845 7.317zm-59.309 17.053c19.102.091 12.744-24.128 1.991-25.115s-47.263 5.061-58.074 16.163-9.036 31.287 3.634 22.429c12.671-8.858 34.177-13.564 52.448-13.476z" fill="#111"/><path d="M852.236 227.868a7.5 7.5 0 0 1-6.967-10.274c7.277-18.298 22.688-25.721 32.792-22.105 6.868 2.458 12.57 10.216 7.976 24.619a7.5 7.5 0 0 1-14.29-4.559c1.101-3.453.993-5.261.855-5.982-2.341.001-9.384 3.486-13.394 13.57a7.503 7.503 0 0 1-6.972 4.731zm-180.061 37.537a7.491 7.491 0 0 1-6.116-3.15c-7.041-9.887-21.416-17.008-28.661-18.15a7.5 7.5 0 0 1 2.337-14.817c11.773 1.857 29.409 11.441 38.542 24.266a7.5 7.5 0 0 1-6.103 11.851z" fill="#773a11"/><path d="M650.509 269.289a7.5 7.5 0 0 1-7.114-9.88c1.098-3.286 5.063-14.391 9.967-19.336a7.5 7.5 0 0 1 10.649 10.564c-1.661 1.675-4.701 8.473-6.39 13.527a7.504 7.504 0 0 1-7.112 5.125zm143.416 74.26a7.42 7.42 0 0 1-.838-.047c-19.012-2.113-36.812-6.758-54.416-14.199a7.5 7.5 0 0 1 5.84-13.816c16.477 6.965 32.439 11.13 50.233 13.108a7.5 7.5 0 0 1-.82 14.955z" fill="#773a11"/><path d="M798.999 51.286a7.5 7.5 0 0 1-6.807-4.342c-10.165-21.878-35.29-27.989-51.917-32.033l-.509-.124A7.5 7.5 0 0 1 743.312.212l.508.124c18.24 4.436 48.769 11.861 61.975 40.288a7.5 7.5 0 0 1-6.797 10.662zm-224.13 111.982h-.037a7.5 7.5 0 0 1-7.464-7.536c.175-36.492 8.579-69.801 24.305-96.327 14.116-23.812 33.398-40.915 54.294-48.159a7.501 7.501 0 0 1 4.913 14.173c-32.751 11.354-68.161 56.998-68.512 130.385a7.5 7.5 0 0 1-7.499 7.464zm114.363 75.624a7.5 7.5 0 0 1-7.244-9.461c5.57-20.577 10.069-28.322 14.039-35.156 2.854-4.914 5.32-9.158 8.254-18.161 6.723-20.626 7.001-35.686 7.27-50.25.325-17.592.661-35.782 12.419-61.384a7.5 7.5 0 0 1 13.631 6.261c-10.45 22.752-10.729 37.881-11.052 55.4-.276 14.936-.588 31.864-8.006 54.622-3.427 10.515-6.538 15.869-9.546 21.047-3.676 6.328-7.477 12.871-12.531 31.541a7.503 7.503 0 0 1-7.235 5.542z" fill="#111"/><ellipse cx="796.816" cy="190.639" fill="#fff" rx="26.908" ry="30.662" transform="matrix(.95147095 -.30773859 .30773859 .95147095 -19.998 254.468)"/><g clip-path="url(#d)"><ellipse cx="802.486" cy="182.915" fill="#111" rx="14.963" ry="25.012" transform="matrix(.95147095 -.30773859 .30773859 .95147095 -17.346 255.839)"/></g><g clip-path="url(#e)"><ellipse cx="888.979" cy="166.159" fill="#fff" rx="23.372" ry="26.633" transform="matrix(.95147095 -.30773859 .30773859 .95147095 -7.992 281.643)"/><g clip-path="url(#f)"><ellipse cx="889.108" cy="159.085" fill="#111" rx="13.62" ry="22.671" transform="matrix(.95147095 -.30773859 .30773859 .95147095 -5.808 281.34)"/></g></g><path d="M794.921 260.398c-9.407 6.111-1.404 29.374 24.206 36.736 23.336 6.708 46.855-9.148 41.951-17.578-5.289-9.092-19.276-2.565-33.512-7.066-18.718-5.918-24.386-17.457-32.644-12.092z" fill="#fff"/><path d="M735.385 559.379c48.542.76 82.098-113.663 79.418-171.654.39-6.799 40.183 4.153 47.227 7.621 12.761 6.282-9.691 127.991-7.435 151.074s12.142 104.132 8.845 129.604c-7.365 56.911-58.401 88.461-60.306 115.666s4.908 56.892-3.301 71.569c-11.295 20.193-29.334 30.536-68.971 30.346-26.998 19.812-94.897 34.673-126.444 8.356-122.405 6.347-157.432-28.68-174.152-42.431 0 0-56.118-5.765-79.344-20.901-17.752-11.569-18.515-38.552 3.616-81.577 14.922-29.009 50.409-118.959 50.058-156.122-1.016-107.379-6.578-202.084 14.498-211.097 21.076-9.014 80.645-14.225 95.975-8.159 31.595 12.503 154.451 176.675 220.317 177.706z" fill="#ff5cf0"/><path d="M864.042 656.817c-2.43 1.87-5.03 3.98-7.92 6.36-14.07 11.59-31.59 26.01-58.71 30.42-21.69 3.52-44.45-7.46-66.46-18.09-20.48-9.88-41.67-20.11-56.69-15.73-23.05 6.71-39.47 14.81-55.35 22.64-24.72 12.2-48.07 23.71-86.76 23.47-3.71-.02-7.4-.43-11.08-1.15-20.3-4.01-40.21-18.1-61.41-32.43-24.12-16.3-52.06-26.23-62.16-29.52 3.37-12.65 5.8-24.33 6.7-33.85 14.69 5.24 43.64 17.29 72.23 39.1 19.42 14.82 40.88 28.25 55.9 28.34 31.72.2 50.17-8.9 73.53-20.42 16.23-8 34.62-17.08 60.15-24.51 25.9-7.54 52.27 5.18 77.77 17.49 17.89 8.64 36.39 17.57 48.9 15.53 19.25-3.12 32.18-13.77 44.68-24.07 7.52-6.18 15.55-12.78 24.82-17.17.04.47.07.94.11 1.41.1 1.39.21 2.78.31 4.16.2 2.76.39 5.49.55 8.16l.24 3.93c.07 1.15.13 2.29.18 3.42.06 1.13.12 2.25.16 3.35.04.75.07 1.5.1 2.23.02.41.03.82.04 1.23.02.46.04.92.05 1.38.05 1.48.09 2.92.12 4.32z" fill="#ea2688"/><path d="M839.422 733.707c-6.4 9.31-13.15 17.69-19.07 25.43-.84 1.11-1.67 2.2-2.48 3.28h-.01c-1.63-.26-3.23-.52-4.82-.79-8.53-1.43-16.59-2.78-23.21-1.17-3.88.95-8.11 3.13-12.59 5.44-4.16 2.14-8.87 4.57-14.05 6.37-24.49 8.53-48.58.42-69.84-6.74-15.54-5.23-30.23-10.17-43.95-9-12.55 1.08-24.82 7.39-37.82 14.06-6.21 3.19-12.64 6.49-19.34 9.35-27.92 11.87-59.03 14.42-88.49 8.61-29.64-5.85-55.2-22.82-78.97-41.98-18.97-15.3-39.32-26.57-51.34-32.63 3.57-9.05 7.21-18.73 10.69-28.56 14.61 7.9 41.31 23.3 61.73 40.54 36.85 31.11 90.45 45.75 134.82 26.87 5.73-2.44 11.41-5.36 17.42-8.45 14.96-7.68 30.43-15.63 48.77-17.2 19.84-1.71 38.17 4.46 55.9 10.43 19.19 6.46 35.77 12.05 50.71 6.84 3.22-1.12 6.63-2.88 10.24-4.74 5.54-2.86 11.83-6.1 19.13-7.88 12.5-3.04 24.49-1.03 35.06.74 5.27.88 10.25 1.71 14.89 1.89 2.16.08 4.43-.18 6.62-.71z" fill="#ea2688"/><path d="M803.982 841.457c-22.71 11.39-48.54 21.15-76.28 19.76-14.45-.72-28.2-4.4-41.5-7.95-18.42-4.91-35.8-9.55-51.32-5.07-6.35 1.84-12.75 5.8-19.51 10.01-8.76 5.43-18.69 11.59-30.57 14.18-25.74 5.59-49.2 4.98-70.68.74-37.09-7.32-68.3-25.47-95.34-41.18-22.05-12.81-54.59-25.68-80.82-25.77.7-8.42 3.18-18.24 7.58-29.45 29.11 1.48 62.67 14.94 88.07 29.71 40.27 23.41 85.91 49.94 144.92 37.11 6.91-1.5 13.89-5.83 21.28-10.41 7.79-4.84 16.62-10.32 26.88-13.29 23.4-6.75 45.63-.82 67.12 4.91 12.36 3.31 24.04 6.42 35.36 6.99 25.59 1.28 50.76-10.54 73.69-23.01.09 3.6.25 7.18.41 10.7.05 1.11.11 2.22.16 3.31.32 6.58.63 12.9.55 18.71z" fill="#ea2688"/><path d="M634.047 922.107a7.5 7.5 0 0 1-1.795-14.782c.581-.154 15.623-4.298 25.513-22.248 3.211-5.829 4.803-17.82 6.646-31.705 2.73-20.565 6.469-48.729 18.203-77.884 4.156-10.329 11.381-21.947 19.031-34.246 11.991-19.281 25.583-41.135 31.066-63.647 3.518-14.441.382-49.335-2.138-77.372-1.541-17.143-2.871-31.948-2.687-40.995.084-4.141 3.518-7.428 7.651-7.345a7.5 7.5 0 0 1 7.346 7.651c-.168 8.222 1.191 23.34 2.629 39.347 2.755 30.659 5.878 65.408 1.772 82.265-6.052 24.845-20.317 47.782-32.903 68.019-7.294 11.729-14.184 22.807-17.853 31.924-11.028 27.403-14.477 53.383-17.249 74.259-2.127 16.018-3.807 28.671-8.378 36.969-13.182 23.927-34.164 29.352-35.05 29.572a7.537 7.537 0 0 1-1.806.221zm201.15-174.946a7.5 7.5 0 0 1-6.003-11.988c31.424-42.078 28.959-70.418 26.35-100.422-.41-4.715-.834-9.589-1.125-14.508-.244-2.573-3.934-41.378-7.282-73.034a7.501 7.501 0 0 1 14.917-1.578c3.456 32.676 7.272 72.927 7.311 73.33.008.089.015.179.021.268.279 4.754.697 9.567 1.102 14.222 2.738 31.483 5.57 64.039-29.274 110.697a7.489 7.489 0 0 1-6.015 3.013zM730.869 901.107a7.5 7.5 0 0 1-3.675-14.042c16.214-9.094 23.69-13.622 31.016-25.647a7.5 7.5 0 0 1 10.307-2.503 7.5 7.5 0 0 1 2.503 10.307c-9.679 15.888-20.345 21.87-36.489 30.926a7.467 7.467 0 0 1-3.662.96z" fill="#cc2bc5"/><path d="M201.784 975.65s25.444 34.863 136.402-34.628c36.845-23.076 55.669-47.596 51.156-54.544-20.922-32.208-69.538-33.397-98.405-23.76-28.554 9.533-130.959 58.343-89.153 112.932z" fill="#111"/><g fill="#a85f36"><path d="M52.059 719.459c42.686 94.66 168.738 210.202 216.253 255.101 34.384 32.491 121.031-88.082 121.031-88.082s-112.905-159.42-163.356-233.703c-41.622-61.283-204.748-1.663-173.927 66.685z"/><path d="M389.342 886.478c15.672 13.404 103.271 42.157 123.469 49.977s-42.713 118.521-74.896 117.486c-32.183-1.034-87.645-4.029-113.896-23.449s-55.708-55.932-55.708-55.932c45.796-49.502 83.628-95.803 121.031-88.082z"/><path d="M512.811 936.455c17.478 7.645 87.137 46.454 95.071 63.454s1.086 100.272.565 113.912c-1.163 30.442-44.069 27.265-44.603 1.331-.655-31.799 2.962-78.776 2.962-78.776l-78.177-53.952z"/><path d="M490.691 965.078c18.82 6.219 89.616 49.254 93.368 59.118 3.753 9.864-1.533 93.413-1.519 103.874.025 18.949-40.257 23.532-42.582-5.043-2.126-26.123-2.464-72.306-2.464-72.306l-71.132-44.284z"/><path d="M465.414 991.763s70.221 35.065 75.231 44.539 6.498 77.54 7.638 86.897c2.671 21.919-40.257 23.532-43.471-2.355-3.063-24.672-3.722-59.21-3.722-59.21l-56.532-31.04z"/><path d="M432.573 1017.852c18.637 5.07 69.47 27.739 71.795 40.136 2.266 12.081 4.79 45.406 3.864 67.128-1.034 24.253-41.566 19.217-42.441-10.442-.562-19.05-2.751-36.411-2.751-36.411l-48.647-25.852z"/></g><path d="M580.569 1142.449a7.5 7.5 0 0 1-6.584-11.08c1.499-2.856 4.247-19.436 5.234-51.755.903-29.545-.471-48.107-1.715-51.744-1.862-2.603-12.47-11.385-41.412-28.891-20.297-12.277-41.452-23.903-48.476-27.06a7.5 7.5 0 1 1 6.15-13.681c10.14 4.558 87.624 46.925 96.726 62.102 4.492 7.491 4.288 39.673 3.767 58.19-.419 14.884-1.95 50.526-7.09 59.996a7.5 7.5 0 0 1-6.598 3.923zm-2.942-114.395h.01z" fill="#773a11"/><path d="M546.602 1139.358a7.46 7.46 0 0 1-3.642-.949 7.499 7.499 0 0 1-2.944-10.128c1.012-2.376 2.227-14.726-.346-44.789-1.878-21.948-4.679-40.167-5.969-44.315-.824-1.088-5.113-5.536-25.851-17.06-13.54-7.524-28.648-15.067-38.646-20.058-2.964-1.48-5.43-2.711-7.201-3.616a7.5 7.5 0 0 1 6.824-13.358c1.741.89 4.164 2.099 7.077 3.553 50.623 25.272 68.739 36.656 71.796 45.115 2.411 6.672 5.404 30.438 6.996 49.413 3.616 43.088-.126 49.808-1.535 52.339a7.499 7.499 0 0 1-6.56 3.853zm-6.546-11.15-.015.027.015-.027z" fill="#773a11"/><path d="M507.887 1137.049a7.501 7.501 0 0 1-7.492-7.254c-.537-16.329-2.165-59.93-3.371-70.108-.949-1.253-6.261-6.964-31.019-19.12-15.77-7.743-31.43-14.167-35.767-15.588a7.5 7.5 0 1 1 4.67-14.254c5.993 1.964 24.164 9.602 40.142 17.582 30.949 15.457 35.951 22.905 36.747 28.651 1.568 11.322 3.508 69.857 3.59 72.343a7.5 7.5 0 0 1-7.501 7.747zm-10.683-77.099z" fill="#773a11"/><path d="M492.993 379.057c-111.197 0-277.158 55.553-393.741 103.716-48.253 19.934-114.707 81.382-96.015 171.189 11.878 57.069 102.818 71.725 143.843 48.034 47.844-27.628 107.344-68.279 235.99-97.245 13.013-2.93 49.068-5.886 62.159-21.706 47.057-56.869 75.835-203.987 47.764-203.987z" fill="#ff5cf0"/><path d="M389.012 508.277c0 27.98-6.29 65.51-18.49 99.39-12.8 3.06-24.88 6.24-36.31 9.51 16.19-34.31 24.8-78.77 24.8-108.9 0-57.17-15.64-88.04-32.54-103.15l33.03-8.1c19.59 25.84 29.51 63.24 29.51 111.25zm-88.58 119.41h-.01a649.433 649.433 0 0 0-32.48 11.89c4.67-23.84 10.28-68.65-1.26-112.23-9.8-37-31.75-64.42-66.73-83.09 12.04-4.24 24.26-8.41 36.58-12.46 2.45 1.81 4.84 3.67 7.16 5.58 25.64 21.14 43.13 48.83 51.99 82.29 10.6 40.05 8.67 80.03 4.75 108.02zm-75.07 13.75c-6.81-7.35-14.86-13.62-23.79-18.88-2.66-1.57-5.39-3.05-8.19-4.44-2.75-16.58-8.41-32.42-16.97-47.33-23.2-40.43-65.3-64.82-96.63-78.19 6.65-3.95 13.21-7.24 19.47-9.82 5.27-2.18 10.64-4.37 16.11-6.58 30.99 16.45 65.38 41.87 87.07 79.66 13.11 22.84 19.33 45.33 21.71 65.41.84 7.05 1.2 13.8 1.22 20.17z" fill="#ea2688"/><path d="M370.518 615.168a7.501 7.501 0 0 1-1.891-14.758c2.353-.615 57.991-14.915 91.324-2.702a7.5 7.5 0 0 1-5.16 14.084c-28.972-10.615-81.84 2.992-82.371 3.13a7.522 7.522 0 0 1-1.901.246z" fill="#cc2bc5"/><path d="M201.784 975.65c-39.34-51.263 151.379-113.488 187.558-89.172 0 0-6.825-11.137-18.189-28.389-25.875-39.282-77.412-117.197-137.328-206.021-54.771-81.198-242.632-57.025-230.589 1.895 8.69 42.517 83.748 176.787 198.547 321.688z" fill="#ff5cf0"/><path d="M340.952 812.377c-3.96-1.51-8.22-2.94-12.75-4.23-36.62-10.45-72.68-6.97-107.18 10.34-21.11 10.58-59.08 35.11-86.34 67.63a1920.69 1920.69 0 0 1-17.7-25.42c37.03-41.36 84.23-65.84 90.59-69.03 34.46-17.29 71.53-23.03 108.37-16.97l1.68 2.53 4.95 7.45 1.62 2.44 10.9 16.42 4.42 6.67zm-59.46-89.35c-9.68-1.89-21.75-3.72-35.44-4.71-32.41-2.34-80.95-.29-128.16 22.77-9.61 4.7-31.52 18.52-52.63 39.54-5.56-9.19-10.78-18.06-15.65-26.57 22.18-20.87 44.2-34.59 55.11-39.92 42.4-20.72 92.36-29.59 144.49-25.67 3.32.25 6.56.55 9.69.88 7.75 11.52 15.29 22.77 22.59 33.68zm-47.884-71.281c-8.652-13.38-21.909-23.119-32.089-29.181-8.319 1.12-15.952 2.806-23.276 4.422-14.52 3.21-27.07 5.98-42.69 4.05-16.12-1.99-28.56-7.39-41.74-13.11-10.01-4.35-20.38-8.85-32.18-11.61-23.95-5.6-44.53-2.13-61.08 4.64-.94 10.47-.71 21.47.92 32.96 13.12-7.7 31.3-13.54 53.32-8.39 9.18 2.14 17.87 5.92 27.08 9.91 13.87 6.03 29.58 12.85 50 15.37 20.74 2.57 37.06-1.04 52.84-4.52 15.22-3.363 29.824-6.583 49.091-4.241l-.196-.3z" fill="#ea2688"/><path d="M246.362 678.165a7.495 7.495 0 0 1-6.229-3.312c-1.695-2.518-3.287-4.849-4.811-7.083-2.778-4.07-5.402-7.914-8.013-11.952-14.188-21.94-42.871-33.628-43.159-33.743-3.841-1.54-5.714-5.902-4.178-9.746 1.536-3.843 5.891-5.718 9.734-4.187 1.354.539 33.37 13.506 50.199 39.531 2.51 3.881 5.083 7.65 7.806 11.64 1.542 2.259 3.151 4.616 4.866 7.163a7.5 7.5 0 0 1-6.215 11.689zm124.305 187.013a7.493 7.493 0 0 1-6.274-3.382l-36.732-55.895a7.5 7.5 0 1 1 12.535-8.238l36.732 55.895a7.5 7.5 0 0 1-6.26 11.62z" fill="#cc2bc5"/></svg></g><g transform="translate(1584.8571428571427 966.0) rotate(0.0 162.8571428571429 70.28571428571422) scale(0.8527020744969901 0.8481391361909753)"><svg width="381.979" height="165.741" viewBox="0 0 381.979 165.741"><rect fill="#40b509" height="165.741" rx="82.87" width="381.979"/><circle cx="299.108" cy="82.87" fill="#fff" r="49.526"/></svg></g><g transform="translate(1490.5714285714284 572.5714285714286) rotate(0.0 183.0 242.99999999999994) scale(0.8566312857661116 0.8557347433588115)"><svg width="427.255" height="567.933" viewBox="0 0 427.255 567.933"><path d="M70.474 470.572c35.345 0 165.254-120.177 180.274-151.591 15.92-33.297-64.28-53.217-130.939 5.645-62.552 55.236-66.815 145.946-49.335 145.946Z" fill="#111"/><g><path d="M213.311 324.824c39.794-12.89 87.592 37.631 114.444 76.163 20.258 29.069-84.707 136.789-116.706 114.23-35.385-24.946-44.573-34.985-75.492-66.976-8.913-9.222-16.722-8.317-14.634-22.704 4.592-31.651 39.579-83.607 92.389-100.713Z" fill="#f4bbab"/><path d="M266.41 337.126s72.648 52.121 119.673 126.699c14.589 23.138 33.605 63.011 39.415 73.733 9.78 18.051-23.719 44.774-39.973 20.952-15.7-23.01-29.085-45.635-34.819-55.549a50.94 50.94 0 0 0-7.338-9.76L220.903 383.568l45.507-46.442Z" fill="#f4bbab"/><path d="M238.045 360.68s83.155 112.76 88.964 123.482c9.78 18.051-21.642 43.216-39.973 20.952-17.546-21.311-92.451-111.91-92.451-111.91l43.459-32.525Z" fill="#f4bbab"/><path d="M197.551 385.792s80.746 109.348 86.556 120.07c9.78 18.051-21.642 43.216-39.973 20.952-17.546-21.311-94.027-111.74-94.027-111.74l47.444-29.282Z" fill="#f4bbab"/><path d="M189.86 466.039c17.514 24.185 41.965 53.225 47.774 63.947 9.78 18.051-15.32 35.915-39.973 20.952-30.641-18.598-75.806-65.584-80.761-114.121-1.365-13.369 6.845-34.262 21.15-34.012 7.33.128 11.477 7.536 51.809 63.233Z" fill="#f4bbab"/><path d="M266.41 337.126c-15.945-9.033-15.662-18.145-15.662-18.145l-31.855-175.823c-8.34-68.942-182.806-59.804-180.417 27.799 2.065 75.723 52.141 182.634 60.481 201.677 5.597 12.779 13.091 33.232 17.945 64.185 1.537 9.804 22.995 44.357 102.843-3.165 46.008-27.382 62.61-87.494 46.666-96.527Z" fill="#f4bbab"/><path d="M247.09 543.058a7.486 7.486 0 0 1-5.615-2.524l-28.355-31.98a7.5 7.5 0 0 1 11.223-9.952l28.355 31.98a7.5 7.5 0 0 1-5.609 12.476Zm42.812-24.104a7.482 7.482 0 0 1-5.867-2.823l-27.304-34.218a7.5 7.5 0 0 1 11.725-9.355l27.304 34.218a7.5 7.5 0 0 1-5.858 12.178Zm42.413-28.153a7.494 7.494 0 0 1-6.246-3.338c-.153-.229-15.439-23.07-28.177-36.503a7.5 7.5 0 0 1 10.884-10.322c13.628 14.371 29.119 37.521 29.771 38.5a7.5 7.5 0 0 1-6.233 11.663Z" fill="#e09273"/></g><g><path d="M171.11 0C111.188 14.858 16.086 57.504 2.219 174.51c-3.34 28.178 2.832 67.962 5.516 91.106-4.265 30.023 1.061 89.782 12.553 115.511 11.229 25.141 17.68 36.644 17.68 36.644s5.668-150.218 209.918-156.89c0 0 7.891 5.364-4.155-25.582 5.167-7.595 7.118-19.715 6.2-26.083 9.15-12.83 10.976-30.426 11.123-37.021C263.243 74.304 171.11 0 171.11 0Z" fill="#ea2688"/><path d="M249.924 216.717a7.5 7.5 0 0 1-6.088-11.872c21.915-30.552 3.942-93.724-17.458-127.581a7.5 7.5 0 0 1 12.68-8.014c12.464 19.72 22.605 46.093 27.128 70.547 3.999 21.625 5.482 51.982-10.162 73.791a7.491 7.491 0 0 1-6.101 3.129Z" fill="#b7006d"/><path d="M250.748 318.981c7.521-7.228 16.361-22.96-2.863-72.58-12.691-32.757-134.331-24.354-197.147 60.19-32.351 43.542-33.592 81.503-33.842 92.344-.544 23.535 44.117 73.437 53.578 71.637-9.695-10.648-2.981-70.602 66.455-130.53 45.981-39.685 112.054-45.717 113.819-21.06Z" fill="#ea2688"/><path d="M18.097 393.898a7.5 7.5 0 0 1-7.494-7.94c.136-2.318 3.914-57.336 54.181-106.731 30.5-29.971 68.142-51.019 105.993-59.268 33.34-7.267 63.218-3.523 77.974 9.768a7.5 7.5 0 1 1-10.039 11.145c-9.062-8.163-32.595-13.263-64.741-6.258-35.122 7.655-70.165 27.298-98.673 55.312-46.189 45.388-49.69 96.402-49.72 96.912a7.5 7.5 0 0 1-7.48 7.06Zm238.756-190.492a7.5 7.5 0 0 1-7.317-9.179c2.598-11.326-7.949-24.355-19.114-38.15-4.012-4.957-8.161-10.082-11.931-15.399a7.5 7.5 0 1 1 12.236-8.676c3.493 4.927 7.489 9.864 11.354 14.637 12.933 15.977 26.306 32.498 22.075 50.941a7.502 7.502 0 0 1-7.303 5.825ZM7.509 274.88a7.501 7.501 0 0 1-7.416-8.683c8.745-54.804 38.044-81.906 39.287-83.033a7.5 7.5 0 0 1 10.091 11.099c-.364.336-26.714 25.095-34.565 74.298a7.502 7.502 0 0 1-7.397 6.319Z" fill="#b7006d"/></g></svg></g><g transform="translate(1049.142857142857 397.71428571428567) rotate(0.0 238.28571428571422 330.4285714285714) scale(0.8567129598123037 0.8563287339755367)"><svg width="556.279" height="771.733" viewBox="0 0 556.279 771.733"><g fill="#fff"><path d="M52.277 682.179a7.5 7.5 0 0 1-7.5-7.5V176.473c0-37.22 30.28-67.5 67.5-67.5h60.656a7.5 7.5 0 0 1 0 15h-60.656c-28.949 0-52.5 23.551-52.5 52.5v498.206a7.5 7.5 0 0 1-7.5 7.5z"/><path d="M52.277 771.733C23.451 771.733 0 748.281 0 719.456s23.451-52.277 52.277-52.277 52.277 23.451 52.277 52.277-23.451 52.277-52.277 52.277zm0-89.554C31.722 682.179 15 698.901 15 719.456s16.722 37.277 37.277 37.277 37.277-16.722 37.277-37.277-16.722-37.277-37.277-37.277z"/><rect height="217.946" rx="40" width="375.846" x="172.933" y="7.5"/><path d="M508.779 232.946H212.933c-26.191 0-47.5-21.308-47.5-47.5V47.5c0-26.192 21.309-47.5 47.5-47.5h295.846c26.191 0 47.5 21.308 47.5 47.5v137.946c0 26.192-21.309 47.5-47.5 47.5zM212.933 15c-17.92 0-32.5 14.579-32.5 32.5v137.946c0 17.921 14.58 32.5 32.5 32.5h295.846c17.92 0 32.5-14.579 32.5-32.5V47.5c0-17.921-14.58-32.5-32.5-32.5z"/></g><path d="M282.83 170.742a7.475 7.475 0 0 1-4.885-1.812l-54.487-46.826a7.5 7.5 0 0 1 0-11.376l54.354-46.712a7.5 7.5 0 1 1 9.776 11.376l-47.736 41.024 47.868 41.137a7.499 7.499 0 0 1-4.891 13.188zm156.185 0a7.499 7.499 0 0 1-4.891-13.188l47.736-41.024-47.868-41.137a7.5 7.5 0 1 1 9.776-11.376l54.486 46.826a7.5 7.5 0 0 1 0 11.376L443.9 168.931a7.471 7.471 0 0 1-4.885 1.812zm-101.512 13.835a7.5 7.5 0 0 1-6.997-10.199l46.703-121.205a7.5 7.5 0 0 1 13.997 5.393l-46.703 121.205a7.503 7.503 0 0 1-7 4.805z" fill="#374047"/></svg></g><g transform="translate(1290.857142857143 1249.7142857142856) rotate(0.0 42.0 135.8571428571429) scale(0.8697633001304644 0.8678832546443392)"><svg width="96.578" height="313.077" viewBox="0 0 96.578 313.077"><g fill="#111"><path d="m77.463 27.71-12.907-2.346a5.234 5.234 0 0 0-5.401 2.419L39.66 59.673a20.932 20.932 0 0 0-2.891 8.163L7.643 287.187c-1.142 8.597 4.67 16.576 13.202 18.126 8.56 1.556 16.826-3.907 18.752-12.391L88.558 77.201c.639-2.816.689-5.734.146-8.57l-7.037-36.756a5.235 5.235 0 0 0-4.204-4.165z"/><path d="M23.804 313.081c-1.418 0-2.854-.127-4.3-.389C7.013 310.422-1.463 298.786.208 286.2L29.335 66.849a28.255 28.255 0 0 1 3.927-11.088l19.494-31.889c2.723-4.454 8.002-6.82 13.14-5.887l12.907 2.346c5.136.934 9.247 5.006 10.229 10.133l7.037 36.757a28.272 28.272 0 0 1-.198 11.64L46.91 294.582a23.699 23.699 0 0 1-23.107 18.499zm40.94-280.06L46.06 63.585a13.347 13.347 0 0 0-1.855 5.239l-29.127 219.35a8.74 8.74 0 0 0 7.109 9.76 8.73 8.73 0 0 0 10.097-6.671L81.245 75.541c.413-1.818.444-3.669.094-5.499l-6.745-35.23-9.849-1.79zm11.378 2.068h.01z"/><path d="M71.018 34.038a7.499 7.499 0 0 1-7.388-8.842l3.459-19.037a7.5 7.5 0 0 1 14.759 2.682l-3.46 19.037a7.502 7.502 0 0 1-7.37 6.16z"/></g><path d="M42.675 189.949a7.499 7.499 0 0 1-7.388-8.842l9.376-51.6c.741-4.075 4.65-6.78 8.72-6.038a7.499 7.499 0 0 1 6.038 8.72l-9.376 51.6a7.502 7.502 0 0 1-7.371 6.16z" fill="#e3e5e5"/></svg></g><g transform="translate(1221.4285714285713 1385.142857142857) rotate(0.0 79.28571428571433 62.571428571428555) scale(0.8501714512426678 0.8528784648187632)"><svg width="186.517" height="146.73" viewBox="0 0 186.517 146.73"><path d="M7.5 72.047c21.264-13.402 47.778-38.943 58.878-43.171 7.951-3.029 41.427-16.068 48.463-18.886 7.036-2.818 32.954-1.795 40.655-2.401 28.587-2.248 33.311 38.773 1.924 41.77-6.564.627-27.676 1.758-27.676 1.758-12.809 5.496-35.721 18.754-35.721 18.754.12 33.09-16.124 54.501-40.358 69.358" fill="#a85f36"/><path d="M53.672 146.731a7.5 7.5 0 0 1-3.927-13.895c25.191-15.444 36.878-35.443 36.778-62.937a7.499 7.499 0 0 1 3.744-6.519c.951-.551 23.449-13.548 36.52-19.155a7.484 7.484 0 0 1 2.556-.597c.209-.011 21.031-1.13 27.365-1.735 11.751-1.122 15.294-8.717 14.757-14.879-.566-6.505-5.539-12.723-15.38-11.948-2.633.207-6.846.24-11.724.279-7.521.059-23.172.182-26.73 1.607-7.26 2.908-41.012 16.049-48.582 18.933-4.767 1.816-15.3 10.299-25.488 18.504C33.396 62.576 21.874 71.855 11.5 78.393a7.5 7.5 0 0 1-10.344-2.346 7.5 7.5 0 0 1 2.346-10.344c9.64-6.076 20.802-15.065 30.651-22.997 12.61-10.156 22.571-18.177 29.556-20.839 7.537-2.871 41.125-15.948 48.345-18.84 5.743-2.3 16.963-2.563 32.189-2.682 4.403-.035 8.562-.067 10.667-.233 19.078-1.503 30.293 11.743 31.5 25.601 1.219 14.003-8.102 29.186-28.275 31.112-5.739.548-21.802 1.444-26.628 1.707-9.312 4.144-23.432 11.989-30.055 15.737-1.146 30.61-15.529 53.983-43.865 71.354a7.462 7.462 0 0 1-3.913 1.107Z" fill="#773a11"/></svg></g><g transform="translate(1646.5714285714284 1629.4285714285713) rotate(0.0 334.2857142857142 115.71428571428567) scale(0.8558842683533681 0.8582840570557568)"><svg width="781.147" height="269.641" viewBox="0 0 781.147 269.641"><rect fill="#656c72" height="254.641" rx="20" width="766.147" x="7.5" y="7.5"/><path d="M753.647 269.641H27.5c-15.164 0-27.5-12.337-27.5-27.5V27.5C0 12.336 12.336 0 27.5 0h726.147c15.164 0 27.5 12.336 27.5 27.5v214.641c0 15.164-12.336 27.5-27.5 27.5zM27.5 15C20.607 15 15 20.607 15 27.5v214.641c0 6.893 5.607 12.5 12.5 12.5h726.147c6.893 0 12.5-5.607 12.5-12.5V27.5c0-6.893-5.607-12.5-12.5-12.5z" fill="#656c72"/><path d="M556.091 197.058a7.5 7.5 0 0 1-7.117-9.869l8.024-24.105c-5.513-8.715-8.408-18.411-8.408-28.263 0-34.318 34.74-62.237 77.441-62.237s77.442 27.919 77.442 62.237-34.74 62.237-77.442 62.237c-14.521 0-28.547-3.207-40.788-9.3l-26.785 8.916a7.5 7.5 0 0 1-2.368.384zm29.805-24.922c1.25 0 2.494.313 3.612.927 10.708 5.885 23.337 8.995 36.523 8.995 34.431 0 62.442-21.19 62.442-47.237s-28.011-47.237-62.442-47.237-62.441 21.19-62.441 47.237c0 7.903 2.68 15.75 7.751 22.692a7.5 7.5 0 0 1 1.06 6.793l-4.462 13.403 15.588-5.189a7.49 7.49 0 0 1 2.369-.384zm-143.6 24.922H332.822a7.5 7.5 0 0 1-7.5-7.5V80.084a7.5 7.5 0 0 1 7.5-7.5h109.474a7.5 7.5 0 0 1 7.5 7.5v109.474a7.5 7.5 0 0 1-7.5 7.5zm-101.974-15h94.474V87.584h-94.474z" fill="#e3e5e5"/><path d="M124.747 206.234a7.499 7.499 0 0 1-7.166-5.283L78.009 73.124a7.5 7.5 0 0 1 9.382-9.382l127.827 39.572a7.5 7.5 0 0 1 .667 14.087l-59.45 24.766-24.766 59.45a7.5 7.5 0 0 1-6.921 4.616zM96.545 82.279l29.241 94.454 17.99-43.185a7.503 7.503 0 0 1 4.039-4.039L191 111.519z" fill="#fff"/></svg></g></svg>