<svg height="1222.315" viewBox="0 0 1304.11 1222.315" width="1304.11" xmlns="http://www.w3.org/2000/svg" xmlns:xlink="http://www.w3.org/1999/xlink"><clipPath id="a"><path d="m635.807 140.454c-3.254 19.621-3.754 38.964-10.678 55.586-3.724 8.941-8.639 18.425-12.099 29.429-4.768 15.164 53.089 41.107 76.149-22.416 22.266-61.335-50.118-82.22-53.372-62.599z"/></clipPath><path d="m630.947 461.344c-63.92 27.638-108.014 160.794-103.954 262.345 0 0-41.753 39.77-19.294 72.97 22.458 33.199 49.468 294.778 112.168 270.25 89.506-35.014 111.658-202.361 112.634-294.147s-53.215-332.318-101.554-311.417z" fill="#ea2688"/><path d="m287.361 872.668c-16.637-21.099 120.467-131.157 149.146-108.373s-118.237 147.57-149.146 108.373z" fill="#111"/><g fill="#f4bbab"><path d="m366.464 643.569s-20.899-36.092-41.441-42.568c-26.397-8.322-111.542-23.582-134.276-26.424-22.735-2.842-74.598 118.646-48.311 124.33s77.977 23.1 85.082 29.494 17.026 16.266 17.026 16.266c31.511 54.27 153.235-58.281 121.921-101.098z"/><path d="m348.293 616.773c-22.627-23.787-70.708-72.331-90.423-82.38-19.715-10.048-57.556-17.389-82.903-20.192-34.008-3.762-41.176 35.908-6.465 44.059s52.328 16.268 52.328 16.268 4.019 58.885 63.164 69.041 64.299-26.796 64.299-26.796z"/><path d="m190.747 574.577c-33.281-4.94-70.068-20.18-70.068-20.18s-40.658-29.918-56.636-43.868c-31.662-27.643-63.472 10.939-33.253 38.216 21.205 19.14 49.176 36.986 60.986 44.791 13.138 8.684 78.303 20.77 78.303 20.77l20.669-39.729z"/><path d="m175.455 603.97c-14.558-1.941-74.719-18.019-82.483-24.327s-33.134-33.511-42.751-43.83c-25.169-27.004-56.502 8.153-35.636 32.901s45.149 48.049 55.339 53.872 88.463 22.75 88.463 22.75l17.067-41.366z"/><path d="m163.796 632.229c-10.642-2.97-70.499-16.12-76.666-21.639-6.168-5.519-38.054-37.068-44.797-44.28-23.373-24.996-58.431 2.597-34.085 29.996 16.265 18.304 42.2 45.964 50.316 50.965s91.543 24.022 91.543 24.022l13.69-39.065z"/><path d="m156.287 653.655c-11.326-3.786-60.421-9.222-67.563-14.091s-29.316-28.477-36.654-37.739c-19.802-24.996-55.834 4.22-33.76 31.488s42.85 42.2 48.368 45.122c5.519 2.922 60.316 17.157 75.757 20.472l13.851-45.252z"/></g><path d="m156.296 661.156c-.402 0-.811-.032-1.221-.1-28.823-4.721-64.454-11.201-70.521-15.259-4.396-2.941-12.334-11.383-24.885-24.937-4.823-5.209-9.379-10.129-12.961-13.792-3.573-3.654-9.043-7.855-14.763-7.139-4.353.546-8.63 3.938-11.735 9.304-2.073 3.585-6.661 4.809-10.248 2.734-3.585-2.075-4.81-6.663-2.734-10.248 5.475-9.461 13.804-15.538 22.85-16.673 6.532-.819 16.578.516 27.354 11.534 3.726 3.809 8.349 8.802 13.244 14.089 7.871 8.5 18.602 20.089 22.047 22.542 5.035 2.348 36.739 8.45 64.775 13.042 4.088.669 6.859 4.526 6.189 8.614-.603 3.677-3.784 6.289-7.393 6.289z" fill="#e09273"/><path d="m163.803 639.73c-.563 0-1.134-.063-1.705-.196-.179-.042-18.123-4.218-36.492-8.962-38.854-10.034-41.722-12.735-43.619-14.523-2.139-2.016-7.318-7.211-13.875-13.789-10.498-10.531-23.563-23.637-30.891-30.462-9.655-8.99-20.955-7.497-22.75-6.07-3.078 2.772-7.812 2.513-10.583-.565-2.771-3.079-2.512-7.829.566-10.6 8.704-7.835 28.94-6.825 42.989 6.258 7.531 7.015 20.706 20.23 31.291 30.849 5.9 5.919 11.037 11.071 13.221 13.159 5.658 3.194 41.578 12.665 73.539 20.094 4.034.938 6.545 4.969 5.607 9.003-.806 3.463-3.89 5.803-7.299 5.803z" fill="#e09273"/><path d="m175.461 611.472c-.601 0-1.211-.073-1.82-.225-.193-.048-19.516-4.873-39.28-10.268-41.574-11.348-44.506-14.027-46.446-15.8-3.822-3.492-15.741-15.859-27.268-27.818-6.127-6.357-11.914-12.362-15.775-16.293-11.969-12.183-18.539-7.428-21.346-5.398-3.354 2.427-8.045 1.675-10.472-1.681-2.429-3.356-1.676-8.045 1.681-10.473 7.406-5.357 22.56-11.567 40.838 7.04 3.911 3.982 9.723 10.012 15.875 16.396 10.562 10.959 22.497 23.343 26.306 26.896 5.774 3.328 44.724 14.167 79.517 22.844 4.02 1.002 6.465 5.073 5.463 9.092-.851 3.41-3.909 5.687-7.271 5.687z" fill="#e09273"/><path d="m284.003 651.071c-.469 0-.942-.044-1.419-.135-38.687-7.405-61.718-30.962-68.452-70.018-.704-4.082 2.034-7.961 6.116-8.666 4.085-.701 7.962 2.035 8.665 6.117 5.721 33.175 23.672 51.552 56.491 57.834 4.068.779 6.734 4.708 5.956 8.776-.688 3.592-3.831 6.091-7.357 6.091z" fill="#e09273"/><path d="m366.464 643.569c1.051 2.102 170.269 231.229 170.269 231.229 65.228 83.806-111.557 196.028-157.131 102.477l-135.059-232.608c64.639-15.964 123.497-59.056 121.921-101.098z" fill="#f4bbab"/><path d="m548.276 853.594c-2.82-23.498-26.784-58.469-53.102-50.95s-172.032 105.846-151.855 140.371c29.45 50.392 25.461 99.613 81.857 127.811s108.817 30.612 194.692-3.918c71.767-28.857-71.591-213.314-71.591-213.314z" fill="#ea2688"/><path d="m495.174 802.644c-16.365-20.529-46.748-64.675-51.666-54.179-32.329 62.906-100.189 131.766-156.147 124.203 17.499 26.806 33.073 59.103 55.958 70.347 74.344-25.18 129.87-84.082 151.855-140.371z" fill="#ea2688"/><path d="m548.269 861.094c-3.931 0-7.232-3.06-7.479-7.037-1.405-22.704-16.499-34.635-31.096-46.172-2.367-1.871-4.604-3.639-6.794-5.462-3.184-2.649-3.616-7.378-.967-10.563 2.649-3.184 7.379-3.617 10.563-.967 2.045 1.702 4.209 3.413 6.5 5.224 15.569 12.307 34.946 27.623 36.765 57.014.256 4.134-2.888 7.692-7.022 7.948-.157.01-.314.015-.47.015z" fill="#b7006d"/><path d="m526.988 731.189c-1.624 0-3.26-.525-4.635-1.608-3.255-2.563-3.815-7.278-1.253-10.532 16.129-20.484 19.661-66.331 19.694-66.791.304-4.13 3.899-7.236 8.026-6.933 4.13.301 7.234 3.892 6.935 8.022-.15 2.066-3.894 50.88-22.87 74.981-1.479 1.879-3.678 2.861-5.897 2.861z" fill="#b7006d"/><path d="m343.311 950.516c-3.498 0-6.627-2.459-7.345-6.02-.818-4.061 1.811-8.016 5.871-8.834 65.698-13.241 125.969-79.326 146.283-135.566 1.407-3.896 5.707-5.913 9.602-4.506 3.896 1.407 5.913 5.706 4.506 9.602-10.941 30.293-32.541 62.735-59.258 89.009-21.229 20.875-55.492 47.564-98.17 56.167-.499.101-.998.148-1.489.148z" fill="#b7006d"/><path d="m880.804 40.048c20.141-13.792 53.686-30.626 76.758-23.192-23.072-28.52-78.178-20.885-76.758 23.192z" fill="#a85f36"/><path d="m755.782 19.841c-17.671-9.463-85.491-6.334-127.871 73.611-24.866 46.906-26.897 87.769-29.036 115.659-3.741 48.793-25.781 78.18-83.424 95.699 9.286 16.127 26.075 32.332 48.253 46.845 14.515-2.373 25.241-10.208 33.251-21.96 3.58 12.566 1.618 25.565-3.46 38.806 57.226 27.991 135.977 44.484 214.31 31.104 94.951-16.219 176.494-59.163 180.102-108.924 3.903-53.827-20.353-70.076-22.048-107.374-2.079-45.732-6.216-110.765-72.336-154.845-51.124-34.083-114.156-33.908-137.739-8.621z" fill="#a85f36"/><rect fill="#f4bbab" height="277.642" rx="77.12" transform="matrix(.98406553 -.17780615 .17780615 .98406553 -47.301 151.774)" width="154.241" x="746.02" y="200.97"/><path d="m663.005 83.204c-35.874 35.462-24.028 79.593-37.876 112.836-8.857 21.262-24.447 45.6-11.186 86.13 13.026 39.812 72.339 81.176 114.094 80.537 41.923-.642 119.687-22.371 152.125-81.655s29.344-130.682-5.409-179.075c-51.259-71.376-146.421-83.347-211.748-18.772z" fill="#f4bbab"/><path d="m741.02 42.537c-14.256 47.326 86.302 166.765 137.086 173.355 48.469 6.29 67.406-137.24 6.938-173.355s-128.503-51.526-144.024 0z" fill="#a85f36"/><ellipse cx="757.759" cy="195.239" fill="#fff" rx="35.5" ry="31.169" transform="matrix(.11563063 -.99329228 .99329228 .11563063 476.216 925.342)"/><ellipse cx="751.337" cy="193.306" fill="#111" rx="27.752" ry="19.228" transform="matrix(.11563063 -.99329228 .99329228 .11563063 472.456 917.253)"/><path d="m735.689 141.237c-16.642 5.235-22.219-21.854-6.168-28.135 21.816-8.537 64.401 11.331 76.738 26.208 7.441 8.973 4.041 23.313-4.395 16.419-13.088-10.695-44.104-21.434-66.175-14.492z" fill="#773a11"/><path d="m674.842 140.124c15.603 4.354 20.615-25.178 5.08-28.258-16.691-3.31-40.402 4.521-51.162 18.098-5.898 7.443-8.304 14.326-.363 10.885s29.974-5.322 46.445-.726z" fill="#773a11"/><path d="m667.68 253.636c-3.158 0-6.097-2.011-7.129-5.177-5.383-16.512.823-26.595 8.427-30.526 10.491-5.426 24.481-.776 33.272 11.049 2.471 3.324 1.779 8.022-1.545 10.493-3.325 2.47-8.022 1.78-10.494-1.545-5.161-6.943-11.609-8.086-14.345-6.673-2.675 1.383-3.089 6.311-1.054 12.552 1.283 3.938-.868 8.171-4.807 9.456-.771.251-1.556.371-2.326.371z" fill="#e09273"/><path d="m758.143 282.153c6.561 2.36 2.014 28.894-20.464 36.934-26.56 9.5-50.842-10.666-48.319-14.973 2.624-4.481 13.58-3.031 35.412-9.982 21.931-6.983 26.81-14.339 33.371-11.979z" fill="#fff"/><path d="m748.905 370.214c-3.871 0-7.153-2.976-7.468-6.901-.331-4.129 2.747-7.744 6.876-8.075 26.669-2.138 78.004-28.064 88.998-37.175 3.188-2.644 7.917-2.2 10.561.989 2.643 3.189 2.199 7.917-.99 10.561-12.696 10.521-66.976 38.141-97.369 40.577-.204.016-.407.024-.607.024z" fill="#e09273"/><path d="m878.106 215.892c18.564-27.511 59.561-10.679 56.187 21.435-3.092 29.434-31.538 53.132-48.098 45.861-18.892-8.294-22.931-45.302-8.089-67.297z" fill="#f4bbab"/><path d="m892.705 271.816c-3.344 0-6.393-2.252-7.261-5.64-6.013-23.466 7.315-45.243 23.112-51.962 3.816-1.622 8.216.155 9.837 3.966 1.621 3.812-.154 8.216-3.966 9.837-8.8 3.743-18.718 17.792-14.452 34.436 1.027 4.013-1.392 8.099-5.404 9.127-.624.16-1.251.237-1.866.237z" fill="#e09273"/><path d="m907.429 253.635c-1.13 0-2.276-.256-3.355-.797l-12.979-6.506c-3.702-1.856-5.199-6.363-3.344-10.065 1.855-3.704 6.361-5.201 10.066-3.344l12.979 6.506c3.702 1.856 5.199 6.363 3.344 10.065-1.315 2.625-3.963 4.141-6.711 4.141z" fill="#e09273"/><g clip-path="url(#a)"><ellipse cx="645.751" cy="186.575" fill="#fff" rx="33.946" ry="28.261" transform="matrix(.11563063 -.99329228 .99329228 .11563063 385.764 806.423)"/><ellipse cx="641.788" cy="184.745" fill="#111" rx="25.438" ry="17.625" transform="matrix(.11563063 -.99329228 .99329228 .11563063 384.077 800.868)"/></g><path d="m741.024 50.039c-.673 0-1.357-.091-2.037-.283-3.987-1.123-6.309-5.266-5.186-9.253 4.987-17.706 17.147-26.432 17.662-26.794 3.389-2.386 8.067-1.571 10.45 1.814 2.385 3.387 1.573 8.065-1.813 10.45-.035.026-8.375 6.221-11.861 18.597-.932 3.307-3.94 5.469-7.215 5.469z" fill="#773a11"/><path d="m746.944 389.147c43.957 16.358 128.353-9.197 163.281-37.025l9.122 46.989 46.337.614s-112.582 306.029-169.077 306.061c-73.956.042-95.497-269.271-95.497-269.271l50.781-16.064-4.946-31.305z" fill="#111"/><path d="m916.864 309.561c-1.119 23.785-13.562 46.369-47.769 56.169 55.09 29.086 113.764-17.02 118.81-75.049" fill="#a85f36"/><path d="m630.947 461.344c27.815-9.142 70.162-24.828 70.162-24.828 22.166 101.914 50.781 187.731 95.099 256.271 4.684-28.08 17.82-60.133 45.889-91.786 52.681-65.684 94.152-132.742 123.587-201.275 0 0 116.136 2.857 147.579 16.952 31.442 14.095 35.792 513.635 28.35 543.404-8.674 34.695-47.705 65.053-47.705 65.053-52.042 42.502-402.652 88.076-456.863 25.192-12.422-43.475-51.854-78.113-53.802-127.719-1.574-40.085 30.533-277.36 25.567-321.607-4.967-44.247-7.844-129.803 22.139-139.658z" fill="#ea2688"/><path d="m796.327 550.408h-.144c-13.128-.042-26.896-7.88-39.818-22.666-23.869-27.313-40.274-72.383-36.57-100.47.542-4.107 4.314-6.996 8.416-6.455 4.106.542 6.997 4.31 6.455 8.416-3.106 23.553 12.312 64.973 32.994 88.639 9.858 11.281 20.006 17.509 28.572 17.536h.098c19.351.002 49.825-18.302 77.686-46.665 29.058-29.582 49.385-64.093 53.048-90.064.579-4.102 4.382-6.957 8.475-6.379 4.102.578 6.957 4.372 6.379 8.474-4.151 29.428-25.534 66.243-57.2 98.481-31.476 32.042-64.503 51.153-88.39 51.153z" fill="#b7b7b7"/><path d="m793.408 569.914c-.356 0-.717-.025-1.079-.078-4.1-.59-6.944-4.393-6.354-8.493l2.81-19.505c.592-4.1 4.402-6.942 8.493-6.354 4.1.59 6.944 4.393 6.354 8.493l-2.81 19.505c-.539 3.737-3.746 6.432-7.414 6.432z" fill="#b7b7b7"/><path d="m811.822 580.179c1.994-11.188-5.495-21.025-17.076-21.566-11.897-.556-22.807 8.888-24.023 20.645-1.166 11.277 7.14 20.086 18.253 20.086 10.839 0 20.93-8.413 22.846-19.164z" fill="#2471ed"/><path d="m836.985 1074.41c-2.855 0-5.583-1.639-6.837-4.408-8.306-18.343-29.802-97.049-33.737-166.305-.839-14.766.082-34.215 1.147-56.735 2.285-48.293 5.13-108.395-8.508-151.933-1.238-3.953.963-8.161 4.915-9.399 3.956-1.238 8.161.963 9.399 4.916 14.432 46.074 11.518 107.649 9.177 157.125-1.046 22.102-1.949 41.189-1.154 55.175 3.83 67.415 24.464 143.388 32.425 160.969 1.709 3.773.035 8.218-3.738 9.926-1.004.454-2.055.67-3.089.67z" fill="#b7006d"/><ellipse cx="780.453" cy="739.214" fill="#b7006d" rx="10.303" ry="19.03"/><ellipse cx="780.453" cy="908.27" fill="#b7006d" rx="10.303" ry="19.03" transform="matrix(.99756527 -.06973906 .06973906 .99756527 -61.445 56.643)"/><path d="m637.034 1057.828c-3.641 0-6.836-2.656-7.404-6.366-1.386-9.054-10.856-25.604-20.884-43.127-16.738-29.25-35.71-62.403-32.957-86.575 3.822-33.554 25.097-281.71 25.52-320.839.045-4.114 3.395-7.419 7.498-7.419h.083c4.142.045 7.463 3.439 7.419 7.581-.427 39.411-21.779 288.702-25.615 322.375-2.197 19.29 16.25 51.526 31.072 77.428 11.205 19.583 20.883 36.495 22.692 48.308.626 4.094-2.185 7.922-6.279 8.549-.384.059-.767.087-1.145.087z" fill="#b7006d"/><path d="m902.82 354.577c-1.515 0-3.042-.457-4.366-1.407-3.365-2.415-4.137-7.101-1.722-10.466 5.652-7.877 11.286-16.973 12.656-33.753.337-4.129 3.963-7.205 8.086-6.864 4.129.337 7.202 3.958 6.865 8.086-1.604 19.624-8.358 31.436-15.42 41.277-1.465 2.041-3.766 3.128-6.1 3.128z" fill="#773a11"/><path d="m1113.262 416.678c66.653 32.968 116.352 161.787 136.226 232.574 10.86 38.681 42.011 73.321 28.094 165.358-8.818 58.312 19.174 86.788 25.354 133.479 5.674 42.871-90.099 79.617-158.175 55.59s-107.1-90.637-122.628-123.831c-12.348-26.398-8.294-41.849 5.774-66.412 0 0-4.004-92.103-18.688-129.478-14.683-37.375 62.896-287.631 104.043-267.28z" fill="#ea2688"/><path d="m930.553 1156.575c-30.366 4.068-82.259-173.378-35.629-187.047s79.892 181.118 35.629 187.047z" fill="#111"/><path d="m763.958 999.474 258.026-94.293c76.75-25.333 133.302 202.474 55.552 211.977l-273.377 35.086c12.434-56.574-3.96-121.255-40.202-152.769z" fill="#f4bbab"/><path d="m1302.935 948.089c4.383 41.764-2.86 75.565-38.27 92.465s-54.853 23.318-71.625 49.896c-44.453 70.448-107.941 35.941-157.285 46.167 10.893-61.976-23.87-140.343-61.613-215.168 4.024-8.852 22.746-45.376 47.99-41.6s277.004 32.045 280.803 68.241z" fill="#ea2688"/><path d="m876.088 952.174c-3.204-21.786 76.312-47.361 93.551-37.164 62.829 37.164 88.491 184.467 66.117 221.606-8.073 13.4-92.388 19.319-105.203 19.959 32.679-34.601 16.23-149.358-54.464-204.402z" fill="#ea2688"/><path d="m1296.609 927.858c-1.871 0-3.745-.696-5.2-2.097-26.328-25.34-38.438-76.919-38.94-79.103-.93-4.036 1.59-8.063 5.626-8.991 4.027-.932 8.063 1.589 8.991 5.626.113.489 11.629 49.43 34.726 71.661 2.984 2.872 3.075 7.62.202 10.604-1.472 1.529-3.437 2.299-5.404 2.299z" fill="#b7006d"/><path d="m1035.751 1144.118c-1.043 0-2.104-.219-3.114-.682-3.767-1.723-5.424-6.173-3.701-9.939 7.703-16.845 11.676-53.342 3.184-96.905-9.24-47.399-30.709-88.127-60.453-114.681-3.09-2.759-3.358-7.5-.6-10.59 2.758-3.089 7.499-3.359 10.59-.6 32.173 28.723 55.323 72.404 65.186 123 8.028 41.182 6.354 82.795-4.266 106.014-1.26 2.756-3.98 4.383-6.825 4.383z" fill="#b7006d"/><path d="m876.091 959.675c-.769 0-1.549-.118-2.318-.368-3.939-1.279-6.096-5.51-4.817-9.45 13.669-42.099 80.956-42.402 102.134-41.418 7.186-19.546 27.65-29.156 39.957-33.294-10.37-25.642 5.165-56.245 9.455-63.888 1.033-28.576-10.135-92.712-18.545-125.432-1.031-4.012 1.385-8.1 5.396-9.131 4.018-1.035 8.101 1.386 9.131 5.396 9.036 35.156 20.602 102.293 18.911 131.774-.07 1.234-.445 2.432-1.091 3.486-.214.352-21.731 36.272-6.074 58.128 1.488 2.078 1.816 4.77.871 7.144s-3.034 4.103-5.543 4.588c-.337.066-35.031 7.167-39.532 30.524-.73 3.791-4.213 6.396-8.061 6.049-.204-.018-21.176-1.891-43.394 1.453-19.114 2.877-43.191 10.287-49.349 29.253-1.029 3.17-3.971 5.186-7.132 5.186zm151.816-146.24h.01z" fill="#b7006d"/><path d="m763.958 999.474-17.179 4.055s-104.87 11.122-133.21 15.501 39.717 132.499 58.508 139.414 72.572 6.447 95.237-4.375l36.847-1.826c49.949-6.411 14.748-172.85-40.202-152.769z" fill="#f4bbab"/><path d="m613.568 1019.029c-35.06 4.731-90.667 18.989-98.538 23.895s-41.044 46.262-56.534 62.256c-19.414 20.046 8.774 53.389 35.291 28.979s44.71-48.077 44.71-48.077l84.275-19.312-9.205-47.742z" fill="#f4bbab"/><path d="m620.113 1052.97c-8.141 2.627-80.769 16.237-86.131 22.159-5.361 5.922-55.287 55.656-63.76 67.231-15.424 21.072 19.05 47.472 35.967 27.043 12.144-14.664 51.587-53.852 51.587-53.852l75.6-19.957-13.265-42.625z" fill="#f4bbab"/><path d="m631.493 1089.538c-10.16 1.689-66.557 12.09-75.9 18.962-9.343 6.873-39.868 40.355-46.24 47.458-18.387 20.501 15.131 50.588 33.489 33.591 18.357-16.996 44.377-41.123 44.377-41.123l66.296-19.182-22.022-39.708z" fill="#f4bbab"/><path d="m648.424 1120.067c-13.057 3.11-54.579 18.723-59.893 25.648s-16.685 32.705-22.443 44.299c-12.83 25.835 31.442 46.094 43.137 20.478 8.456-18.522 15.889-33.006 15.889-33.006l46.962-19.042z" fill="#f4bbab"/><path d="m587.212 1155.928c-1.311 0-2.637-.343-3.843-1.064-3.555-2.126-4.713-6.731-2.587-10.286 2.438-4.076 8.672-9.752 36.417-20.935 14.61-5.889 28.26-10.491 28.833-10.685 3.925-1.317 8.179.791 9.5 4.717 1.32 3.926-.791 8.179-4.717 9.5-24.574 8.27-53.374 20.348-57.219 25.198-1.415 2.288-3.869 3.555-6.385 3.555zm6.443-3.651c-.007.012-.014.023-.021.034.007-.011.014-.022.021-.034z" fill="#e09273"/><path d="m501.349 1181.246c-3.148 0-6.08-1.998-7.121-5.151-2.054-6.222-.469-15.683 24.817-42.547 13.62-14.471 28.403-27.896 31.616-30.699 6.063-5.289 27.594-10.895 79.44-20.681 4.063-.767 7.992 1.908 8.761 5.979.768 4.069-1.909 7.992-5.979 8.761-54.102 10.212-69.263 15.042-72.423 17.298-2.938 2.57-15.942 14.378-28.567 27.593-20.558 21.519-22.956 28.944-23.232 30.268.861 3.733-1.25 7.575-4.96 8.8-.78.258-1.572.38-2.352.38z" fill="#e09273"/><path d="m470.222 1149.86c-1.851 0-3.705-.681-5.154-2.053-3.009-2.848-3.139-7.595-.292-10.603 2.329-2.461 57.111-60.335 63.808-67.28 2.159-2.241 5.775-5.993 49.346-15.816 20.571-4.639 40.577-8.467 40.777-8.505 4.069-.781 7.996 1.893 8.773 5.961.776 4.068-1.892 7.996-5.961 8.773-35.092 6.701-76.306 16.295-82.374 20.244-7.652 7.961-62.911 66.339-63.475 66.934-1.476 1.559-3.46 2.345-5.448 2.345zm68.777-69.18s0 0 0 0z" fill="#e09273"/><path d="m1098.746 920.2c-2.565 0-5.063-1.316-6.463-3.685-8.097-13.697-34.021-24.353-71.128-29.232-4.107-.54-6.998-4.307-6.458-8.413.539-4.107 4.312-7.006 8.413-6.458 29.94 3.937 68.484 13.46 82.085 36.471 2.108 3.566.926 8.165-2.64 10.272-1.197.708-2.513 1.045-3.81 1.045z" fill="#b7006d"/><path d="m915.047 376.962c19.23 4.622 41.795 15.658 50.637 16.956 4.421.649 49.136-.728 58.827 3.842 9.691 4.571 34.019 38.307 37.651 61.723l-85.04 3.246 6.29 23.587s-100.726 65.842-141.316 114.684c41.87-66.768 89.036-160.239 72.951-224.039z" fill="#ea2688"/><path d="m842.09 608.502c-1.442 0-2.9-.416-4.187-1.283-3.435-2.316-4.341-6.978-2.024-10.412 28.502-42.26 117.093-100.064 138.863-113.896l-4.867-18.25c-.587-2.203-.141-4.554 1.214-6.388 1.354-1.834 3.469-2.953 5.747-3.04l77.184-2.946c-3.929-15.474-23.009-36.319-35.041-49.464-2.797-3.055-2.587-7.799.468-10.596 3.056-2.797 7.8-2.587 10.597.468 21.837 23.856 41.298 46.963 39.593 67.41-.314 3.778-3.399 6.727-7.188 6.872l-75.661 2.888 3.872 14.518c.851 3.192-.487 6.565-3.294 8.307-1.086.673-108.948 67.87-139.051 112.504-1.448 2.148-3.815 3.307-6.225 3.307zm220.072-149.018h.01z" fill="#b7006d"/><path d="m751.89 420.452-3.568-22.583c-19.807 7.081-43.576 19.423-50.259 23.321-7.871 4.592-59.035 49.196-59.035 49.196s-28.954 56.411-30.22 68.874l61.705-36.733 7.923 29.518s96.757 125.535 117.772 160.742c-74.269-153.958-77.855-191.161-44.318-272.335z" fill="#ea2688"/><path d="m796.215 700.288c-2.438 0-4.828-1.187-6.27-3.375-42.176-64.012-80.528-116.362-117.251-160.042-.705-.839-1.218-1.823-1.503-2.882l-5.354-19.95-53.193 31.666c-2.803 1.669-6.36 1.333-8.802-.824-2.443-2.159-3.212-5.648-1.902-8.634l30.219-68.875c.448-1.021 1.118-1.93 1.962-2.66.159-.137 15.963-13.803 25.822-22.242 3.146-2.695 7.881-2.325 10.575.821 2.693 3.146 2.325 7.881-.821 10.575-8.191 7.012-20.512 17.653-24.482 21.085l-20.138 45.896 41.6-24.764c2.021-1.202 4.485-1.386 6.659-.504 2.176.884 3.813 2.736 4.422 5.005l7.49 27.912c36.773 43.871 75.133 96.284 117.223 160.165 2.279 3.459 1.322 8.11-2.137 10.389-1.271.837-2.703 1.238-4.119 1.238z" fill="#b7006d"/></svg>